<svg width="52" height="10" viewBox="0 0 52 10" fill="none" xmlns="http://www.w3.org/2000/svg">
<g clip-path="url(#clip0_5_708)">
<path d="M4.78951 2.14486C5.58938 2.36815 6.41161 2.50184 7.24102 2.54348L13.9245 3.26763C15.4366 3.44035 16.9277 3.76305 18.3758 4.23097C19.165 4.49663 19.9243 4.84398 20.6413 5.26738C21.4175 5.79043 22.2251 6.26524 23.0596 6.68913C23.5625 6.92451 24.1122 7.04264 24.6674 7.0346C25.2786 6.99904 25.8565 6.74429 26.2951 6.31708C27.1388 5.44676 27.3713 4.39042 27.9228 3.71277C28.1509 3.38 28.494 3.14337 28.8861 3.0484C29.3064 2.95523 29.7447 2.98521 30.1484 3.13476C31.0548 3.46447 31.8151 4.10472 32.2943 4.94184C32.8723 5.79887 33.3241 6.77549 33.9818 7.69232C34.6219 8.67747 35.5705 9.42275 36.6791 9.81165C37.261 9.97781 37.8777 9.97781 38.4596 9.81165C39.0109 9.64813 39.5192 9.36452 39.9478 8.98119C40.7142 8.27784 41.3115 7.41022 41.6951 6.44331C42.0804 5.55305 42.3595 4.68938 42.7448 3.932C43.1867 2.89671 43.989 2.05683 45.003 1.56814C46.0171 1.07945 47.1739 0.97513 48.259 1.27453C48.8354 1.41982 49.3741 1.68638 49.8393 2.05643C50.3044 2.42648 50.6852 2.8915 50.9564 3.42044C51.39 4.23676 51.5965 5.15453 51.5543 6.07791C51.5377 6.66954 51.4115 7.25296 51.1822 7.79862C51.0294 8.18395 50.9231 8.37662 50.9564 8.4032C50.9896 8.42977 51.149 8.26367 51.3749 7.89827C51.701 7.35328 51.9029 6.74307 51.9662 6.11112C52.0934 5.10017 51.9274 4.07394 51.4879 3.15469C51.2001 2.52933 50.7812 1.97314 50.2596 1.52381C49.7381 1.07448 49.126 0.742502 48.465 0.550374C47.6576 0.314723 46.8078 0.262819 45.9777 0.398475C45.1477 0.534131 44.3586 0.853909 43.6682 1.33433C42.9171 1.89564 42.3149 2.63241 41.9143 3.48024C41.4825 4.31069 41.1769 5.18765 40.7982 6.01811C40.464 6.84554 39.946 7.58616 39.2834 8.18395C38.9811 8.47458 38.6083 8.68135 38.2017 8.78388C37.7951 8.8864 37.3687 8.88113 36.9648 8.76859C36.0933 8.44192 35.3501 7.84322 34.8455 7.06117C34.2675 6.25729 33.8157 5.28066 33.1845 4.33726C32.8635 3.84812 32.4818 3.40165 32.0485 3.00853C31.5919 2.61167 31.0613 2.30911 30.4872 2.11828C29.8948 1.91566 29.2578 1.88117 28.6469 2.01863C28.0271 2.1718 27.4813 2.53883 27.1056 3.05504C26.4014 3.99844 26.1622 5.04814 25.5908 5.57299C25.3315 5.83312 24.9872 5.99114 24.6209 6.01811C24.2173 6.0212 23.8179 5.93499 23.4516 5.76566C22.6493 5.36811 21.8707 4.92445 21.1196 4.43692C20.342 3.9912 19.5177 3.63249 18.6615 3.36729C17.1463 2.91413 15.5874 2.62241 14.0109 2.49697C11.1541 2.2578 8.86208 2.18471 7.2676 2.10499C6.44264 2.02663 5.61152 2.04 4.78951 2.14486Z" fill="white"/>
<path d="M6.5238 6.27018C6.57695 6.13067 5.85945 5.73869 4.77653 5.08761C4.23175 4.76207 3.5873 4.36345 2.89636 3.89175C2.55089 3.65922 2.23199 3.40012 1.83337 3.13437C1.66268 3.01829 1.50459 2.8847 1.36167 2.73576C1.24212 2.61844 1.14726 2.47838 1.08265 2.32384C1.04943 2.19761 1.08265 2.20426 1.08265 2.15775C1.17899 2.06965 1.29914 2.01188 1.42811 1.99166L2.71699 1.6462C3.5408 1.42031 4.27825 1.20107 4.89611 0.98183C6.13183 0.583209 6.88921 0.264308 6.8427 0.12479C6.7962 -0.0147266 5.99897 0.0384244 4.71674 0.251022C4.05237 0.357321 3.32156 0.503481 2.48446 0.676216L1.15572 0.968539C0.816039 1.03036 0.504512 1.19775 0.265472 1.44688C0.117425 1.6148 0.0226135 1.82291 -0.00692081 2.04481C-0.0341129 2.24874 -0.0113082 2.45623 0.0595198 2.64939C0.170868 2.95034 0.347895 3.22269 0.577725 3.44663C0.76497 3.63928 0.974636 3.80879 1.20223 3.95154C1.58756 4.23057 1.97953 4.47639 2.35157 4.70228C3.0155 5.09932 3.70842 5.44577 4.42442 5.73869C5.66014 6.2569 6.47065 6.40306 6.5238 6.27018Z" fill="white"/>
</g>
<defs>
<clipPath id="clip0_5_708">
<rect width="52" height="9.86585" fill="white" transform="matrix(-1 0 0 1 52 0.0668945)"/>
</clipPath>
</defs>
</svg>
