<svg width="52" height="10" viewBox="0 0 52 10" fill="none" xmlns="http://www.w3.org/2000/svg">
<g clip-path="url(#clip0_5_145)">
<path d="M47.2105 2.14486C46.4106 2.36815 45.5884 2.50184 44.759 2.54348L38.0755 3.26763C36.5634 3.44035 35.0723 3.76305 33.6242 4.23097C32.835 4.49663 32.0757 4.84398 31.3587 5.26738C30.5825 5.79043 29.7749 6.26524 28.9404 6.68913C28.4375 6.92451 27.8878 7.04264 27.3326 7.0346C26.7214 6.99904 26.1435 6.74429 25.7049 6.31708C24.8612 5.44676 24.6287 4.39042 24.0772 3.71277C23.8491 3.38 23.506 3.14337 23.1139 3.0484C22.6936 2.95523 22.2553 2.98521 21.8516 3.13476C20.9452 3.46447 20.1849 4.10472 19.7057 4.94184C19.1277 5.79887 18.6759 6.77549 18.0182 7.69232C17.3781 8.67747 16.4295 9.42275 15.3209 9.81165C14.739 9.97781 14.1223 9.97781 13.5404 9.81165C12.9891 9.64813 12.4808 9.36452 12.0522 8.98119C11.2858 8.27784 10.6885 7.41022 10.3049 6.44331C9.91959 5.55305 9.64054 4.68938 9.25521 3.932C8.81334 2.89671 8.01098 2.05683 6.99695 1.56814C5.98293 1.07945 4.82607 0.97513 3.74097 1.27453C3.16462 1.41982 2.62589 1.68638 2.16075 2.05643C1.69561 2.42648 1.31477 2.8915 1.04364 3.42044C0.610002 4.23676 0.403487 5.15453 0.445698 6.07791C0.462342 6.66954 0.588506 7.25296 0.817762 7.79862C0.970566 8.18395 1.07686 8.37662 1.04364 8.4032C1.01043 8.42977 0.850974 8.26367 0.62509 7.89827C0.298973 7.35328 0.0970721 6.74307 0.0337932 6.11112C-0.0934455 5.10017 0.0725961 4.07394 0.512138 3.15469C0.79995 2.52933 1.21882 1.97314 1.74037 1.52381C2.26192 1.07448 2.87396 0.742502 3.53502 0.550374C4.34237 0.314723 5.19223 0.262819 6.02226 0.398475C6.85229 0.534131 7.64143 0.853909 8.33175 1.33433C9.08289 1.89564 9.68508 2.63241 10.0857 3.48024C10.5175 4.31069 10.8231 5.18765 11.2018 6.01811C11.536 6.84554 12.054 7.58616 12.7166 8.18395C13.0189 8.47458 13.3917 8.68135 13.7983 8.78388C14.2049 8.8864 14.6313 8.88113 15.0352 8.76859C15.9067 8.44192 16.6499 7.84322 17.1545 7.06117C17.7325 6.25729 18.1843 5.28066 18.8155 4.33726C19.1365 3.84812 19.5182 3.40165 19.9515 3.00853C20.4081 2.61167 20.9387 2.30911 21.5128 2.11828C22.1052 1.91566 22.7422 1.88117 23.3531 2.01863C23.9729 2.1718 24.5187 2.53883 24.8944 3.05504C25.5986 3.99844 25.8378 5.04814 26.4092 5.57299C26.6685 5.83312 27.0128 5.99114 27.3791 6.01811C27.7827 6.0212 28.1821 5.93499 28.5484 5.76566C29.3507 5.36811 30.1293 4.92445 30.8804 4.43692C31.658 3.9912 32.4823 3.63249 33.3385 3.36729C34.8537 2.91413 36.4126 2.62241 37.9891 2.49697C40.8459 2.2578 43.1379 2.18471 44.7324 2.10499C45.5574 2.02663 46.3885 2.04 47.2105 2.14486Z" fill="#006D21"/>
<path d="M45.4762 6.27018C45.4231 6.13067 46.1406 5.73869 47.2235 5.08761C47.7683 4.76207 48.4127 4.36345 49.1036 3.89175C49.4491 3.65922 49.768 3.40012 50.1666 3.13437C50.3373 3.01829 50.4954 2.8847 50.6383 2.73576C50.7579 2.61844 50.8527 2.47838 50.9173 2.32384C50.9506 2.19761 50.9173 2.20426 50.9173 2.15775C50.821 2.06965 50.7009 2.01188 50.5719 1.99166L49.283 1.6462C48.4592 1.42031 47.7218 1.20107 47.1039 0.98183C45.8682 0.583209 45.1108 0.264308 45.1573 0.12479C45.2038 -0.0147266 46.001 0.0384244 47.2833 0.251022C47.9476 0.357321 48.6784 0.503481 49.5155 0.676216L50.8443 0.968539C51.184 1.03036 51.4955 1.19775 51.7345 1.44688C51.8826 1.6148 51.9774 1.82291 52.0069 2.04481C52.0341 2.24874 52.0113 2.45623 51.9405 2.64939C51.8291 2.95034 51.6521 3.22269 51.4223 3.44663C51.235 3.63928 51.0254 3.80879 50.7978 3.95154C50.4124 4.23057 50.0205 4.47639 49.6484 4.70228C48.9845 5.09932 48.2916 5.44577 47.5756 5.73869C46.3399 6.2569 45.5294 6.40306 45.4762 6.27018Z" fill="#006D21"/>
</g>
<defs>
<clipPath id="clip0_5_145">
<rect width="52" height="9.86585" fill="white" transform="translate(0 0.0668945)"/>
</clipPath>
</defs>
</svg>
