<svg width="52" height="10" viewBox="0 0 52 10" fill="none" xmlns="http://www.w3.org/2000/svg">
<g clip-path="url(#clip0_1_133)">
<path d="M47.2105 2.14504C46.4106 2.36833 45.5884 2.50202 44.759 2.54366L38.0755 3.26782C36.5634 3.44053 35.0723 3.76324 33.6242 4.23116C32.835 4.49681 32.0757 4.84416 31.3587 5.26757C30.5825 5.79061 29.7749 6.26542 28.9404 6.68931C28.4375 6.92469 27.8878 7.04282 27.3326 7.03479C26.7214 6.99923 26.1435 6.74448 25.7049 6.31727C24.8612 5.44695 24.6287 4.3906 24.0772 3.71295C23.8491 3.38019 23.506 3.14355 23.1139 3.04858C22.6936 2.95541 22.2553 2.98539 21.8516 3.13494C20.9452 3.46465 20.1849 4.1049 19.7057 4.94202C19.1277 5.79906 18.6759 6.77568 18.0182 7.6925C17.3781 8.67765 16.4295 9.42293 15.3209 9.81183C14.739 9.978 14.1223 9.978 13.5404 9.81183C12.9891 9.64832 12.4808 9.3647 12.0522 8.98138C11.2858 8.27802 10.6885 7.4104 10.3049 6.44349C9.91959 5.55324 9.64054 4.68956 9.25521 3.93218C8.81334 2.8969 8.01098 2.05701 6.99695 1.56833C5.98293 1.07964 4.82607 0.975313 3.74097 1.27471C3.16462 1.42 2.62589 1.68657 2.16075 2.05662C1.69561 2.42666 1.31477 2.89169 1.04364 3.42063C0.610002 4.23694 0.403487 5.15472 0.445698 6.07809C0.462342 6.66972 0.588506 7.25314 0.817762 7.7988C0.970566 8.18414 1.07686 8.3768 1.04364 8.40338C1.01043 8.42995 0.850974 8.26386 0.62509 7.89845C0.298973 7.35347 0.0970721 6.74325 0.0337932 6.11131C-0.0934455 5.10035 0.0725961 4.07413 0.512138 3.15487C0.79995 2.52951 1.21882 1.97333 1.74037 1.52399C2.26192 1.07466 2.87396 0.742685 3.53502 0.550557C4.34237 0.314906 5.19223 0.263002 6.02226 0.398658C6.85229 0.534314 7.64143 0.854092 8.33175 1.33452C9.08289 1.89582 9.68508 2.63259 10.0857 3.48042C10.5175 4.31088 10.8231 5.18784 11.2018 6.01829C11.536 6.84573 12.054 7.58635 12.7166 8.18414C13.0189 8.47476 13.3917 8.68153 13.7983 8.78406C14.2049 8.88659 14.6313 8.88132 15.0352 8.76877C15.9067 8.4421 16.6499 7.84341 17.1545 7.06136C17.7325 6.25747 18.1843 5.28085 18.8155 4.33745C19.1365 3.84831 19.5182 3.40184 19.9515 3.00871C20.4081 2.61185 20.9387 2.30929 21.5128 2.11846C22.1052 1.91585 22.7422 1.88136 23.3531 2.01881C23.9729 2.17198 24.5187 2.53901 24.8944 3.05522C25.5986 3.99862 25.8378 5.04832 26.4092 5.57317C26.6685 5.8333 27.0128 5.99132 27.3791 6.01829C27.7827 6.02138 28.1821 5.93518 28.5484 5.76584C29.3507 5.36829 30.1293 4.92464 30.8804 4.43711C31.658 3.99138 32.4823 3.63267 33.3385 3.36748C34.8537 2.91432 36.4126 2.62259 37.9891 2.49716C40.8459 2.25799 43.1379 2.1849 44.7324 2.10517C45.5574 2.02681 46.3885 2.04019 47.2105 2.14504Z" fill="white"/>
<path d="M45.4762 6.27037C45.4231 6.13085 46.1406 5.73888 47.2235 5.0878C47.7683 4.76226 48.4127 4.36363 49.1036 3.89193C49.4491 3.6594 49.768 3.4003 50.1666 3.13456C50.3373 3.01847 50.4954 2.88488 50.6383 2.73594C50.7579 2.61862 50.8527 2.47857 50.9173 2.32403C50.9506 2.1978 50.9173 2.20444 50.9173 2.15793C50.821 2.06983 50.7009 2.01206 50.5719 1.99184L49.283 1.64638C48.4592 1.42049 47.7218 1.20125 47.1039 0.982013C45.8682 0.583392 45.1108 0.264491 45.1573 0.124974C45.2038 -0.0145435 46.001 0.0386075 47.2833 0.251205C47.9476 0.357504 48.6784 0.503664 49.5155 0.676399L50.8443 0.968722C51.184 1.03055 51.4955 1.19794 51.7345 1.44707C51.8826 1.61498 51.9774 1.82309 52.0069 2.04499C52.0341 2.24892 52.0113 2.45641 51.9405 2.64957C51.8291 2.95052 51.6521 3.22287 51.4223 3.44681C51.235 3.63946 51.0254 3.80898 50.7978 3.95172C50.4124 4.23076 50.0205 4.47658 49.6484 4.70246C48.9845 5.0995 48.2916 5.44595 47.5756 5.73887C46.3399 6.25708 45.5294 6.40324 45.4762 6.27037Z" fill="white"/>
</g>
<defs>
<clipPath id="clip0_1_133">
<rect width="52" height="9.86585" fill="white" transform="translate(0 0.0670776)"/>
</clipPath>
</defs>
</svg>
