<?xml version="1.0" standalone="no"?>
<!DOCTYPE svg PUBLIC "-//W3C//DTD SVG 20010904//EN"
 "http://www.w3.org/TR/2001/REC-SVG-20010904/DTD/svg10.dtd">
<svg version="1.0" xmlns="http://www.w3.org/2000/svg"
 width="1534.000000pt" height="391.000000pt" viewBox="0 0 1534.000000 391.000000"
 preserveAspectRatio="xMidYMid meet">

<g transform="translate(0.000000,391.000000) scale(0.100000,-0.100000)"
fill="#000000" stroke="none">
<path d="M1675 3830 c-187 -35 -339 -85 -505 -168 -93 -46 -278 -158 -300
-182 -3 -3 -34 -29 -70 -59 -146 -122 -317 -321 -389 -454 -17 -31 -41 -74
-54 -95 -43 -70 -75 -147 -120 -287 -54 -166 -79 -282 -81 -379 l-1 -71 48 0
c26 1 130 2 232 3 l185 2 0 24 c0 34 26 144 59 251 29 94 82 204 151 315 37
59 164 215 200 246 164 140 351 257 467 294 33 10 40 16 32 26 -16 20 -4 31
41 38 22 3 40 10 40 15 0 5 -15 5 -34 -1 -65 -20 -112 13 -86 61 14 26 140 66
152 48 15 -25 21 -100 8 -120 -11 -18 -10 -19 17 -13 125 28 204 36 347 36
240 0 413 -39 621 -141 90 -44 95 -47 185 -108 184 -124 359 -322 460 -522 39
-77 119 -316 127 -378 3 -28 11 -55 18 -61 8 -7 92 -9 231 -8 l219 3 -3 65
c-11 205 -116 520 -239 713 -24 37 -43 72 -43 76 0 21 -176 233 -262 316 -113
110 -166 154 -283 232 -174 117 -468 239 -660 273 -38 6 -92 16 -118 21 -26 5
-148 9 -270 8 -170 -1 -245 -5 -322 -19z m460 -60 c0 -18 -43 -26 -59 -10 -8
8 -7 13 4 20 21 14 55 8 55 -10z m-358 -71 c26 -28 50 -55 51 -60 5 -12 -51
-12 -64 1 -15 15 -83 0 -89 -20 -3 -10 -17 -20 -31 -23 -23 -4 -25 -2 -20 20
4 13 18 48 32 78 33 73 55 73 121 4z m279 22 c-4 -6 -16 -11 -27 -11 -15 0
-19 -7 -19 -35 0 -31 -3 -35 -25 -35 -23 0 -25 3 -25 49 l0 50 43 3 c45 3 63
-4 53 -21z m-116 4 c0 -7 -10 -15 -22 -17 -19 -2 -24 -10 -26 -41 -3 -33 -6
-38 -25 -35 -19 3 -22 10 -25 55 l-3 51 51 0 c36 1 50 -3 50 -13z m188 -37
c-2 -42 -7 -54 -22 -56 -30 -6 -39 12 -32 62 6 41 10 46 32 46 24 0 25 -2 22
-52z m157 31 c5 -5 30 -9 55 -9 61 0 84 -23 75 -74 -8 -42 -14 -47 -44 -39
-17 4 -20 10 -15 27 13 40 10 51 -16 51 -19 0 -26 -7 -34 -33 -13 -46 -39 -39
-46 13 -4 31 -9 40 -25 40 -13 0 -22 -10 -29 -32 -7 -26 -14 -33 -34 -33 -22
0 -24 3 -18 31 3 17 6 42 6 55 0 22 3 22 58 17 31 -3 61 -9 67 -14z m254 -50
c42 -15 53 -37 39 -82 -11 -36 -39 -50 -53 -27 -3 6 -19 10 -34 10 -36 0 -64
22 -59 46 3 16 12 19 52 17 53 -2 55 6 5 16 -43 9 -51 31 -11 31 16 0 43 -5
61 -11z m140 -8 c8 -5 11 -16 6 -30 -5 -16 -2 -21 12 -21 32 0 63 -29 63 -58
-1 -37 -30 -74 -50 -62 -12 8 -13 14 -3 41 15 38 10 49 -21 49 -17 0 -27 -9
-36 -30 -10 -25 -17 -29 -34 -24 -11 4 -22 8 -24 9 -1 1 6 24 16 51 10 27 22
57 25 67 7 18 24 22 46 8z m-1326 -78 l26 -63 -27 -6 c-15 -4 -37 -14 -49 -21
-27 -18 -83 -13 -96 8 -17 27 0 64 38 82 22 11 35 24 35 36 0 21 31 45 41 33
3 -4 17 -35 32 -69z m166 46 c6 -18 11 -37 11 -44 0 -14 -113 -50 -129 -41
-23 15 -11 46 27 65 40 22 30 29 -13 9 -18 -8 -29 -8 -36 -1 -16 16 36 41 88
42 37 1 42 -2 52 -30z m-351 -116 c33 -57 35 -83 7 -83 -8 0 -24 -9 -35 -20
-13 -13 -33 -20 -60 -20 -33 0 -42 4 -51 24 -14 30 9 69 51 86 32 13 37 24 18
36 -7 5 -5 11 7 21 11 7 22 13 25 13 3 0 20 -25 38 -57z m945 21 c10 -3 16
-11 14 -17 -3 -8 -23 -11 -59 -9 -61 4 -85 -12 -73 -48 6 -18 14 -21 61 -19
71 3 92 -15 36 -32 -101 -30 -206 48 -143 105 36 33 96 40 164 20z m770 -9
c42 -29 45 -46 18 -92 l-20 -32 -55 30 c-44 24 -56 36 -56 55 0 19 5 24 26 24
14 0 34 -5 46 -11 11 -6 22 -8 25 -5 4 3 -10 13 -30 21 -21 8 -37 20 -37 25 0
19 45 10 83 -15z m-612 -35 c13 -7 19 -21 19 -45 0 -42 -9 -67 -22 -59 -5 4
-28 6 -51 6 -53 -1 -79 13 -75 41 2 18 12 23 48 28 l45 6 -42 1 c-31 2 -43 6
-43 17 0 11 12 15 51 15 28 0 59 -5 70 -10z m-453 -12 c7 -7 12 -28 12 -49 0
-36 -1 -36 -46 -43 -69 -9 -91 -7 -97 7 -8 21 7 37 49 53 l39 15 -47 -6 c-32
-4 -48 -3 -48 5 0 26 115 41 138 18z m618 -23 c23 -15 25 -21 19 -53 -4 -21
-10 -41 -14 -45 -4 -4 -34 -1 -66 8 -53 13 -74 27 -75 47 0 16 42 29 78 24
l37 -6 -35 11 c-19 6 -41 13 -48 15 -7 2 -10 9 -6 15 9 15 78 5 110 -16z m133
9 c1 -1 -7 -32 -19 -68 -18 -55 -25 -66 -44 -66 -34 0 -35 6 -14 68 11 31 21
63 24 70 3 12 38 9 53 -4z m-1136 -20 c12 -12 -6 -34 -29 -34 -28 0 -31 15 -6
29 20 12 27 13 35 5z m1673 -25 c77 -52 104 -118 64 -154 -28 -25 -79 -13
-140 36 l-50 39 26 43 c31 48 45 67 51 67 2 0 25 -14 49 -31z m-2092 -30 c27
-32 33 -49 16 -49 -5 0 -23 -14 -41 -31 -22 -21 -39 -29 -57 -27 -38 4 -38 31
0 68 34 34 19 32 -19 -3 -12 -10 -25 -17 -30 -14 -5 3 -15 -8 -22 -24 -12 -27
-11 -33 8 -53 21 -22 21 -23 2 -40 -19 -17 -21 -16 -54 21 -33 35 -34 39 -20
55 9 10 19 15 24 13 4 -3 10 4 14 15 3 11 13 20 20 20 8 0 18 7 22 15 13 22
75 65 94 65 9 0 29 -14 43 -31z m449 -36 c16 -41 16 -43 -3 -53 -27 -14 -26
-15 -44 39 -20 61 -20 59 2 64 22 5 26 1 45 -50z m1215 27 c35 -22 41 -47 20
-93 -10 -20 -18 -25 -33 -20 -11 3 -21 10 -23 14 -2 5 -13 9 -25 9 -26 0 -57
28 -57 52 0 21 48 25 83 6 20 -10 21 -10 9 5 -8 9 -25 17 -39 19 -15 2 -28 9
-31 16 -6 20 59 15 96 -8z m-1428 -40 l11 -21 26 21 c46 36 95 20 109 -37 4
-16 2 -28 -7 -34 -22 -14 -27 -11 -44 21 -17 33 -36 38 -55 15 -10 -12 -10
-21 0 -46 11 -26 11 -32 -1 -40 -21 -13 -21 -13 -62 52 -35 58 -37 62 -20 75
24 18 31 17 43 -6z m1562 -27 c29 -14 55 -30 57 -35 2 -6 23 -18 46 -28 69
-30 81 -73 32 -118 -19 -18 -24 -19 -41 -7 -18 13 -18 15 3 44 l21 30 -22 16
c-21 14 -24 14 -33 -1 -31 -49 -32 -50 -52 -31 -16 16 -16 19 -1 45 13 22 14
32 6 40 -19 19 -44 14 -58 -13 -16 -30 -50 -34 -50 -5 0 17 29 90 36 90 1 0
26 -12 56 -27z m466 -15 c12 -12 17 -48 6 -48 -18 0 -44 24 -44 40 0 22 20 26
38 8z m-2088 -33 c0 -9 -11 -20 -24 -25 -13 -5 -27 -14 -31 -20 -3 -5 9 -3 28
6 73 35 93 -17 25 -66 -22 -16 -47 -30 -55 -30 -25 0 -13 27 17 40 17 7 30 16
30 21 0 5 -13 3 -30 -6 -61 -31 -86 -5 -43 46 36 43 83 62 83 34z m2038 -60
c-41 -40 -53 -42 -67 -17 -8 13 -2 25 27 55 l36 37 21 -20 20 -21 -37 -34z
m106 16 c15 -16 15 -20 2 -31 -14 -10 -12 -16 14 -42 48 -47 37 -108 -18 -108
-17 0 -41 17 -73 51 l-48 51 47 48 c26 26 50 48 53 48 3 1 13 -6 23 -17z
m-2532 -18 l27 -26 -47 -49 c-25 -26 -54 -48 -63 -48 -18 0 -33 26 -23 41 3 5
-4 9 -15 9 -26 0 -26 4 0 46 37 60 77 69 121 27z m2276 -15 c15 -15 16 -38 0
-38 -14 0 -48 30 -48 42 0 12 34 10 48 -4z m-1989 -44 c12 -15 21 -30 21 -34
0 -16 -95 -81 -115 -78 -31 5 -30 35 3 68 17 17 25 30 17 30 -7 0 -20 -11 -29
-25 -16 -25 -46 -34 -46 -15 0 5 15 25 34 45 43 44 85 47 115 9z m1969 -2 c-8
-19 -54 -82 -59 -82 -3 0 -14 6 -24 14 -18 13 -17 15 14 55 28 35 35 39 52 30
11 -6 19 -13 17 -17z m-2377 -70 l30 -27 -35 -47 c-35 -46 -66 -65 -86 -53
-16 10 -12 30 15 69 13 20 20 36 14 36 -5 0 -18 -13 -27 -30 -17 -29 -42 -41
-42 -19 0 31 59 99 87 99 7 0 27 -12 44 -28z m2480 -23 c27 -28 49 -54 49 -58
0 -18 -71 -71 -94 -71 -28 0 -106 63 -106 86 0 23 20 16 47 -16 13 -16 31 -30
38 -30 7 0 -2 15 -21 34 -50 50 -43 106 14 106 16 0 41 -17 73 -51z m-2206
-23 c28 -25 29 -56 2 -56 -8 0 -19 -11 -25 -25 -22 -48 -101 -61 -89 -15 4 15
0 20 -14 20 -24 0 -24 5 3 43 43 64 76 73 123 33z m2510 -23 c27 -40 32 -82
13 -101 -15 -15 -28 -15 -28 -1 0 16 -41 71 -48 65 -3 -4 5 -17 17 -30 13 -13
21 -32 19 -43 -3 -16 -8 -14 -35 15 -63 65 -62 132 1 132 29 0 39 -6 61 -37z
m-2925 -57 c0 -8 -4 -18 -10 -21 -5 -3 -15 -16 -21 -28 -7 -16 -1 -12 20 11
69 72 93 9 30 -79 -11 -16 -25 -29 -30 -29 -14 0 -11 26 6 40 8 7 15 19 15 28
0 9 -7 5 -21 -12 -25 -32 -62 -32 -67 -1 -1 11 10 39 25 63 27 42 53 55 53 28z
m2736 -21 c41 -38 44 -96 7 -125 -30 -23 -42 -22 -57 4 -6 10 -21 29 -33 42
-26 26 -30 69 -8 78 9 3 30 -8 50 -25 19 -17 35 -26 35 -21 0 6 -12 20 -26 31
-17 13 -24 26 -20 37 6 17 15 13 52 -21z m-2483 -20 l-6 -36 44 7 44 7 -16
-23 c-9 -14 -30 -28 -47 -32 -31 -8 -43 -33 -21 -40 13 -4 -5 -48 -20 -48 -4
0 -34 19 -65 41 -58 41 -58 42 -38 61 18 19 21 19 45 4 23 -15 25 -15 31 -1 3
9 6 24 6 34 0 19 27 61 40 61 5 0 6 -16 3 -35z m2765 -51 c12 -14 22 -31 22
-39 0 -7 12 -15 28 -17 19 -2 28 -9 30 -25 3 -18 -8 -28 -58 -53 l-61 -31 -12
28 c-7 15 -20 39 -29 53 -29 44 -32 76 -8 100 25 25 54 20 88 -16z m-3051 -71
l21 -14 -29 -59 c-35 -70 -62 -91 -81 -60 -7 11 -18 20 -25 20 -17 0 -16 16 4
72 23 65 53 77 110 41z m178 -33 c3 -6 -3 -22 -14 -36 -12 -15 -21 -31 -21
-37 0 -6 11 5 25 24 53 70 86 22 42 -61 -14 -24 -30 -46 -36 -48 -16 -5 -14
24 5 56 l16 27 -22 -27 c-22 -28 -53 -37 -65 -18 -9 15 3 61 25 98 20 33 34
40 45 22z m2752 -69 c14 -1 28 -12 38 -31 15 -29 14 -33 -20 -99 -19 -38 -38
-72 -43 -75 -16 -9 -34 44 -21 60 9 11 6 24 -10 59 -12 25 -27 45 -35 45 -17
0 -50 36 -42 48 3 5 29 5 58 1 29 -4 63 -8 75 -8z m201 -14 c12 -13 25 -37 28
-55 5 -27 10 -31 28 -26 17 4 25 -1 34 -21 9 -20 9 -27 -1 -30 -52 -19 -130
-45 -131 -43 -1 2 -12 35 -26 75 -20 60 -22 76 -12 97 15 33 51 34 80 3z
m-3256 -36 c47 -61 51 -71 39 -103 -7 -20 -19 -28 -50 -33 -23 -4 -41 -10 -41
-13 0 -3 14 -20 31 -38 25 -26 30 -37 25 -61 -6 -26 -15 -32 -78 -51 -39 -13
-73 -20 -76 -18 -2 3 -2 16 2 29 5 22 20 32 80 51 18 6 17 9 -13 40 -24 25
-32 41 -29 62 3 29 13 35 82 49 l29 6 -32 33 c-31 32 -37 50 -25 80 9 24 15
20 56 -33z m295 -77 c2 -5 -3 -18 -10 -28 -12 -17 -15 -17 -57 1 -78 31 -82
35 -68 65 l12 25 60 -26 c33 -15 61 -32 63 -37z m2872 -108 c-13 -6 -18 -15
-13 -25 32 -79 22 -125 -30 -135 -44 -8 -56 -2 -56 30 0 16 6 24 18 24 10 0
26 6 36 13 15 11 16 17 5 41 -11 22 -17 26 -38 21 -14 -4 -30 -7 -34 -8 -5 -1
-13 8 -18 20 -9 26 4 37 81 64 l45 16 12 -26 c10 -23 9 -27 -8 -35z m175 -6
c9 -22 16 -58 16 -80 0 -34 -4 -42 -26 -50 -41 -16 -74 -12 -76 8 -2 33 -3 37
-17 69 -18 43 -11 77 16 81 22 3 38 -16 54 -67 7 -25 7 -25 8 -3 1 13 -4 32
-9 43 -11 20 -6 39 10 39 4 0 15 -18 24 -40z m-3139 -49 c6 8 10 7 17 -5 6
-11 6 -22 0 -29 -5 -7 -13 -34 -16 -60 -12 -77 -33 -119 -59 -115 -14 2 -23
11 -25 25 -2 17 -9 21 -30 20 -25 -2 -27 1 -30 40 -4 52 20 103 49 103 12 0
23 -8 26 -20 3 -11 10 -17 15 -14 5 3 7 13 4 21 -9 22 13 46 29 33 10 -8 15
-8 20 1z"/>
<path d="M1700 3686 c0 -9 7 -16 16 -16 9 0 14 5 12 12 -6 18 -28 21 -28 4z"/>
<path d="M2485 3600 c3 -5 13 -10 21 -10 8 0 14 5 14 10 0 6 -9 10 -21 10 -11
0 -17 -4 -14 -10z"/>
<path d="M1265 3556 c-18 -13 -16 -46 3 -46 20 0 45 28 39 44 -8 20 -17 20
-42 2z"/>
<path d="M1448 3593 c-10 -2 -18 -9 -18 -14 0 -13 13 -11 36 6 19 14 14 17
-18 8z"/>
<path d="M1085 3464 c-14 -14 -14 -19 -2 -31 17 -17 43 -8 50 17 9 33 -20 41
-48 14z"/>
<path d="M2820 3469 c0 -5 9 -9 20 -9 11 0 20 2 20 4 0 2 -9 6 -20 9 -11 3
-20 1 -20 -4z"/>
<path d="M2185 3430 c-4 -6 6 -10 22 -10 22 0 25 2 13 10 -19 12 -27 12 -35 0z"/>
<path d="M1746 3421 c-11 -4 -15 -10 -9 -14 5 -3 19 0 29 8 20 15 11 18 -20 6z"/>
<path d="M2360 3400 c0 -5 12 -10 28 -10 21 0 24 2 12 10 -20 13 -40 13 -40 0z"/>
<path d="M3056 3365 c-20 -30 -14 -42 28 -60 33 -14 66 -5 66 18 0 16 -52 67
-67 67 -6 0 -18 -11 -27 -25z"/>
<path d="M960 3335 c-8 -9 -8 -15 -2 -15 12 0 26 19 19 26 -2 2 -10 -2 -17
-11z"/>
<path d="M2610 3320 c20 -13 43 -13 35 0 -3 6 -16 10 -28 10 -18 0 -19 -2 -7
-10z"/>
<path d="M3283 3134 c-3 -9 3 -24 14 -35 16 -17 22 -18 31 -6 9 10 8 19 -4 35
-18 26 -32 28 -41 6z"/>
<path d="M715 3170 c-10 -11 -16 -22 -14 -24 2 -2 12 7 22 20 22 29 17 32 -8
4z"/>
<path d="M745 3150 c-10 -11 -16 -23 -13 -26 7 -6 38 24 38 37 0 13 -5 11 -25
-11z"/>
<path d="M1025 3090 c-10 -11 -13 -20 -8 -20 13 0 38 29 31 35 -3 3 -13 -4
-23 -15z"/>
<path d="M630 3011 c-7 -15 -7 -21 0 -21 12 0 25 28 17 36 -3 3 -10 -4 -17
-15z"/>
<path d="M3090 3037 c0 -19 37 -50 49 -42 15 9 14 21 -5 39 -19 20 -44 21 -44
3z"/>
<path d="M865 2990 c-27 -30 -12 -34 15 -5 13 14 19 25 13 25 -5 0 -18 -9 -28
-20z"/>
<path d="M902 2978 c-6 -6 -12 -19 -12 -27 0 -13 2 -13 16 1 9 9 15 21 13 27
-3 9 -8 8 -17 -1z"/>
<path d="M3431 2983 c7 -10 15 -20 16 -22 2 -2 3 3 3 11 0 9 -7 19 -16 22 -15
6 -15 4 -3 -11z"/>
<path d="M3210 2872 c0 -5 5 -13 12 -20 16 -16 29 -15 22 2 -6 16 -34 30 -34
18z"/>
<path d="M3500 2806 c0 -30 26 -54 42 -38 17 17 1 62 -22 62 -14 0 -20 -7 -20
-24z"/>
<path d="M420 2726 c-15 -39 -12 -46 6 -13 9 16 13 31 10 34 -3 3 -10 -6 -16
-21z"/>
<path d="M455 2719 c-9 -28 1 -36 14 -10 7 12 7 22 2 26 -5 3 -13 -4 -16 -16z"/>
<path d="M3400 2633 c0 -2 5 -14 11 -25 9 -17 13 -18 20 -7 13 21 11 26 -11
32 -11 3 -20 3 -20 0z"/>
<path d="M3596 2633 c-12 -12 -6 -51 9 -63 22 -18 39 1 31 33 -6 25 -29 41
-40 30z"/>
<path d="M3650 2393 c0 -12 5 -25 10 -28 13 -8 13 15 0 35 -8 12 -10 11 -10
-7z"/>
<path d="M475 2307 c-4 -10 -5 -21 -1 -24 10 -10 18 4 13 24 -4 17 -4 17 -12
0z"/>
<path d="M531 2276 c-11 -13 -11 -20 -3 -28 15 -15 24 -5 20 23 -3 21 -4 21
-17 5z"/>
<path d="M1546 3407 c-15 -11 -15 -15 -4 -24 17 -14 58 1 58 22 0 18 -30 20
-54 2z"/>
<path d="M2360 3249 c0 -26 40 -302 45 -307 9 -9 5 39 -10 147 -8 57 -12 107
-9 112 2 5 -2 21 -10 36 -9 17 -15 22 -16 12z"/>
<path d="M1734 3223 c4 -16 10 -62 16 -103 5 -41 12 -95 15 -120 l6 -45 -76
-68 c-43 -37 -82 -66 -88 -64 -6 2 -15 14 -19 28 -6 20 -7 18 -5 -10 1 -20 9
-39 19 -45 15 -9 27 -2 70 41 29 28 63 56 75 62 30 15 37 72 23 181 -6 50 -13
105 -14 123 -4 46 -5 47 -17 47 -6 0 -8 -11 -5 -27z"/>
<path d="M1793 3223 c3 -16 13 -89 24 -163 11 -86 19 -121 21 -97 2 21 -1 69
-7 107 -6 38 -11 87 -11 109 0 46 -8 71 -22 71 -6 0 -8 -12 -5 -27z"/>
<path d="M1944 3239 c-3 -6 -1 -15 6 -19 10 -6 9 -9 -1 -13 -8 -3 -9 -6 -3 -6
16 -1 37 26 29 39 -8 13 -22 13 -31 -1z"/>
<path d="M2098 3243 c-3 -4 4 -71 15 -147 l20 -139 -28 -24 c-15 -14 -31 -21
-34 -16 -3 4 -15 9 -26 10 -18 1 -18 0 -3 -11 15 -11 12 -16 -24 -54 -42 -44
-58 -52 -58 -27 0 8 -4 15 -10 15 -12 0 -12 -2 0 -34 14 -37 28 -33 82 22 26
26 62 60 79 75 l32 29 -7 76 c-18 208 -25 249 -38 225z"/>
<path d="M2150 3217 c0 -44 29 -280 36 -286 8 -8 4 73 -6 134 -6 33 -11 83
-11 112 -2 61 -19 98 -19 40z"/>
<path d="M2256 3225 c4 -8 8 -15 10 -15 2 0 4 7 4 15 0 8 -4 15 -10 15 -5 0
-7 -7 -4 -15z"/>
<path d="M2024 3195 c-28 -14 -61 -37 -75 -52 l-24 -26 35 25 c19 14 54 35 78
47 23 12 42 24 42 26 0 8 -3 7 -56 -20z"/>
<path d="M1654 3184 c-17 -8 -44 -30 -60 -47 -27 -30 -27 -31 -2 -8 14 13 48
34 75 47 26 13 41 23 33 23 -8 1 -29 -6 -46 -15z"/>
<path d="M1542 3166 c2 -19 5 -22 15 -14 18 14 16 38 -2 38 -10 0 -14 -9 -13
-24z"/>
<path d="M1870 3180 c0 -8 5 -22 10 -30 9 -13 10 -13 10 0 0 8 -5 22 -10 30
-9 13 -10 13 -10 0z"/>
<path d="M2530 3179 c0 -5 5 -7 10 -4 6 3 10 8 10 11 0 2 -4 4 -10 4 -5 0 -10
-5 -10 -11z"/>
<path d="M2490 3162 c0 -5 7 -13 16 -16 10 -4 14 -1 12 6 -5 15 -28 23 -28 10z"/>
<path d="M2320 3150 c0 -5 5 -10 11 -10 5 0 7 -6 3 -12 -5 -9 -2 -9 9 1 23 18
21 31 -3 31 -11 0 -20 -4 -20 -10z"/>
<path d="M1681 3137 c-1 -10 -5 -15 -11 -12 -5 3 -10 -1 -10 -10 0 -12 5 -15
16 -11 9 3 20 6 25 6 5 0 9 10 9 23 0 16 -3 18 -9 8 -7 -11 -9 -11 -14 0 -4
10 -6 8 -6 -4z"/>
<path d="M2030 3130 c-1 -23 -2 -23 -10 -5 -8 18 -9 17 -9 -8 -1 -25 2 -27 22
-21 29 9 34 14 21 22 -6 4 -14 14 -17 22 -3 10 -6 6 -7 -10z"/>
<path d="M2197 3130 c-7 -28 1 -46 14 -33 6 6 6 19 1 33 l-9 24 -6 -24z"/>
<path d="M2270 3120 c-1 -23 -2 -23 -10 -5 -8 18 -9 17 -9 -7 -1 -29 5 -33 27
-20 9 6 10 15 3 33 l-10 24 -1 -25z"/>
<path d="M2424 3109 c-3 -6 -1 -16 5 -22 8 -8 11 -5 11 11 0 24 -5 28 -16 11z"/>
<path d="M1500 3094 c0 -8 5 -12 10 -9 6 3 10 10 10 16 0 5 -4 9 -10 9 -5 0
-10 -7 -10 -16z"/>
<path d="M1880 3101 c0 -5 7 -11 14 -14 10 -4 13 -1 9 9 -6 15 -23 19 -23 5z"/>
<path d="M2586 3083 c4 -16 13 -43 20 -62 18 -42 18 -43 -3 -39 -10 1 -24 -1
-32 -6 -8 -5 -16 -4 -21 4 -6 9 -12 9 -29 -2 -20 -12 -24 -10 -41 10 -20 24
-40 22 -40 -4 0 -8 4 -13 9 -9 6 3 15 -4 21 -15 11 -21 44 -27 55 -10 5 7 11
8 19 1 6 -5 18 -6 25 -2 7 5 22 6 32 4 25 -7 35 37 19 90 -7 23 -14 48 -16 55
-7 26 -24 11 -18 -15z"/>
<path d="M2524 3089 c-8 -14 11 -33 25 -25 6 4 11 11 11 16 0 13 -29 20 -36 9z"/>
<path d="M1460 3071 c0 -5 7 -11 14 -14 10 -4 13 -1 9 9 -6 15 -23 19 -23 5z"/>
<path d="M1593 3073 c-7 -2 -13 -11 -13 -19 0 -10 12 -14 40 -14 48 0 52 -13
9 -31 -29 -12 -33 -11 -51 11 -16 20 -21 21 -29 9 -12 -19 -11 -42 2 -34 5 4
19 -1 29 -10 17 -15 22 -15 74 10 31 15 63 24 71 22 7 -3 16 0 18 7 4 9 -13
18 -51 29 -32 9 -64 18 -72 21 -8 2 -21 2 -27 -1z"/>
<path d="M1870 3058 c0 -4 6 -8 14 -8 8 0 17 4 20 8 2 4 -4 8 -15 8 -10 0 -19
-4 -19 -8z"/>
<path d="M1937 3063 c-14 -13 -7 -43 14 -62 l22 -20 -34 -28 c-19 -15 -56 -49
-82 -75 -49 -49 -73 -58 -95 -36 -9 9 -12 9 -12 -3 0 -20 20 -39 42 -39 10 0
55 34 99 76 58 54 85 72 92 65 17 -17 27 -13 27 12 0 18 10 28 39 42 22 10 42
24 46 33 7 18 11 16 -53 30 -60 13 -95 15 -105 5z m87 -32 c17 -7 17 -8 -6
-23 -22 -14 -25 -14 -46 2 -12 10 -22 21 -22 24 0 8 51 6 74 -3z"/>
<path d="M2326 3043 c4 -16 13 -45 20 -66 12 -33 11 -39 -3 -44 -20 -8 -43 22
-44 56 0 14 -4 35 -9 46 -6 13 -7 -2 -3 -40 7 -72 17 -95 43 -95 31 0 43 33
29 83 -11 43 -17 66 -18 80 -1 4 -6 7 -11 7 -6 0 -8 -11 -4 -27z"/>
<path d="M2217 3016 c-3 -7 -9 -34 -12 -60 -4 -27 -14 -50 -24 -55 -19 -11 -8
-26 14 -18 9 4 15 20 16 44 l1 38 10 -35 c5 -19 13 -39 17 -43 13 -13 60 3 55
18 -3 7 -13 11 -23 8 -29 -7 -44 22 -38 72 6 42 -4 62 -16 31z"/>
<path d="M1870 2985 c0 -9 5 -15 11 -13 6 2 11 8 11 13 0 5 -5 11 -11 13 -6 2
-11 -4 -11 -13z"/>
<path d="M1407 2976 c-4 -10 -5 -21 -2 -24 9 -9 17 6 13 25 -3 17 -4 17 -11
-1z"/>
<path d="M1501 2974 c0 -11 3 -14 6 -6 3 7 2 16 -1 19 -3 4 -6 -2 -5 -13z"/>
<path d="M2035 2970 c-3 -5 1 -10 10 -10 9 0 13 5 10 10 -3 6 -8 10 -10 10 -2
0 -7 -4 -10 -10z"/>
<path d="M1534 2958 c3 -12 -2 -22 -17 -29 -12 -6 -41 -30 -65 -53 -42 -39
-44 -40 -58 -22 -13 19 -14 19 -14 -6 0 -45 27 -41 86 13 48 43 61 50 85 45
36 -7 37 5 3 41 -16 18 -24 22 -20 11z"/>
<path d="M2431 2940 c-1 -18 -18 -38 -61 -72 -32 -27 -64 -48 -70 -48 -5 0
-10 -4 -10 -9 0 -23 20 -19 60 12 73 55 91 65 111 60 23 -6 27 22 4 31 -9 3
-20 16 -25 28 l-9 23 0 -25z"/>
<path d="M1449 2919 c-23 -19 -23 -20 -2 -10 12 6 25 16 28 21 10 16 -1 12
-26 -11z"/>
<path d="M1192 2896 c-80 -32 -117 -67 -142 -133 -12 -32 -27 -65 -34 -73 -7
-8 -16 -22 -20 -30 -5 -8 9 4 29 28 27 31 44 42 65 42 48 0 111 57 138 124 13
32 22 59 20 60 -2 2 -27 -7 -56 -18z"/>
<path d="M1668 2913 c7 -3 16 -2 19 1 4 3 -2 6 -13 5 -11 0 -14 -3 -6 -6z"/>
<path d="M1780 2896 c0 -22 3 -27 11 -19 8 8 8 16 0 30 -9 16 -10 14 -11 -11z"/>
<path d="M2590 2905 c0 -9 5 -15 11 -13 6 2 11 8 11 13 0 5 -5 11 -11 13 -6 2
-11 -4 -11 -13z"/>
<path d="M2775 2878 c17 -79 74 -136 145 -145 30 -4 46 -13 61 -35 12 -16 24
-27 27 -23 3 3 18 -7 34 -22 19 -18 28 -36 28 -57 l-1 -31 -15 28 c-23 42 -27
32 -4 -13 18 -36 19 -39 3 -34 -11 3 -9 0 3 -7 12 -6 30 -29 40 -50 25 -56 26
-44 2 26 -16 48 -19 74 -14 132 l7 72 -38 41 c-36 41 -37 41 -46 18 -5 -12 -6
-41 -3 -63 l6 -40 -19 25 c-11 14 -22 40 -26 58 -8 46 -57 97 -120 127 -71 33
-78 32 -70 -7z"/>
<path d="M2219 2872 c11 -8 11 -10 0 -15 -10 -4 -8 -6 4 -6 21 -1 18 21 -4 27
-12 3 -12 2 0 -6z"/>
<path d="M2528 2873 c6 -2 18 -2 25 0 6 3 1 5 -13 5 -14 0 -19 -2 -12 -5z"/>
<path d="M1530 2860 c0 -7 -7 -10 -15 -7 -19 8 -31 -13 -14 -24 8 -4 16 -4 20
2 3 6 12 9 20 7 17 -4 19 24 2 30 -7 2 -13 -2 -13 -8z"/>
<path d="M2574 2838 c-23 -27 -24 -29 -3 -10 14 12 30 22 37 22 6 0 14 5 17
10 15 24 -24 7 -51 -22z"/>
<path d="M2489 2843 c-13 -16 -12 -17 4 -4 9 7 17 15 17 17 0 8 -8 3 -21 -13z"/>
<path d="M1900 2825 c0 -16 16 -20 24 -6 3 5 -1 11 -9 15 -9 3 -15 0 -15 -9z"/>
<path d="M2120 2825 c0 -8 5 -15 10 -15 6 0 10 7 10 15 0 8 -4 15 -10 15 -5 0
-10 -7 -10 -15z"/>
<path d="M2200 2825 c-19 -23 1 -39 26 -21 18 14 18 15 -6 9 -22 -6 -24 -5
-11 10 7 9 11 17 8 17 -2 0 -10 -7 -17 -15z"/>
<path d="M2410 2816 c0 -22 3 -27 11 -19 8 8 8 16 0 30 -9 16 -10 14 -11 -11z"/>
<path d="M1710 2814 c0 -8 5 -12 10 -9 6 4 8 11 5 16 -9 14 -15 11 -15 -7z"/>
<path d="M963 2768 c-37 -39 -48 -74 -34 -110 9 -24 2 -107 -13 -153 -5 -15
-3 -14 5 3 8 14 28 26 53 33 120 30 146 48 160 110 l6 26 -48 -8 c-53 -10 -82
-35 -98 -82 -6 -17 -19 -34 -29 -36 -13 -2 -16 1 -12 14 4 9 3 14 -3 10 -6 -3
-10 -2 -10 3 0 17 22 72 29 72 4 0 14 13 24 29 17 29 24 121 9 121 -4 0 -22
-15 -39 -32z"/>
<path d="M1997 2739 c-4 -13 -7 -34 -7 -46 0 -19 -6 -23 -32 -23 -18 0 -42 -7
-52 -15 -10 -8 -23 -12 -28 -9 -5 3 -15 0 -23 -6 -12 -10 -15 -9 -15 4 0 10
-5 14 -11 11 -6 -4 -8 -13 -5 -21 3 -8 1 -14 -4 -14 -6 0 -10 7 -10 15 0 8 -5
15 -11 15 -6 0 -9 -7 -5 -15 4 -13 -28 -15 -241 -17 -225 -3 -247 -5 -257 -21
-9 -14 -7 -21 7 -32 18 -13 18 -16 -2 -94 -25 -97 -26 -116 -1 -41 18 55 18
55 19 -347 l1 -401 -67 -7 c-38 -4 -85 -13 -105 -20 -34 -11 -38 -11 -39 4 -1
9 -6 1 -11 -16 -9 -29 -7 -38 16 -73 34 -51 71 -74 147 -90 73 -16 134 -8 198
24 79 40 114 98 92 153 -9 22 -10 23 -7 5 4 -19 1 -22 -12 -17 -38 16 -74 24
-136 30 l-66 7 1 397 c0 245 4 388 9 376 7 -14 8 -8 4 20 -3 22 -7 47 -9 55
-7 25 32 63 58 57 12 -2 104 -25 204 -51 210 -53 293 -60 337 -25 21 17 29 19
41 9 8 -7 15 -24 15 -39 0 -14 4 -33 10 -41 7 -11 11 -9 19 14 6 15 8 32 5 38
-3 5 3 18 13 27 19 18 20 18 42 -5 38 -39 117 -33 359 27 142 36 207 48 210
40 7 -21 42 -34 58 -20 19 15 18 45 -2 53 -9 3 -121 6 -250 6 -201 0 -234 2
-234 15 0 8 -4 15 -10 15 -5 0 -9 -5 -7 -11 1 -6 -3 -13 -10 -16 -7 -3 -9 3
-6 16 3 12 1 21 -6 21 -6 0 -11 -7 -11 -16 0 -14 -3 -14 -15 -4 -9 7 -18 10
-22 6 -3 -3 -16 0 -28 8 -12 8 -35 16 -50 18 -23 2 -29 9 -32 32 -6 47 -19 63
-26 35z m-17 -128 c0 -5 -8 -15 -17 -22 -16 -12 -17 -12 -6 2 7 9 10 19 6 22
-3 4 -1 7 5 7 7 0 12 -4 12 -9z m77 -11 c2 -18 0 -18 -13 -6 -17 18 -18 26 -1
26 7 0 13 -9 14 -20z"/>
<path d="M2870 2670 c0 -21 33 -76 57 -94 13 -10 42 -20 64 -23 l38 -6 -12 44
c-9 30 -22 48 -42 60 -35 19 -105 32 -105 19z"/>
<path d="M966 2603 c-6 -14 -5 -15 5 -6 7 7 10 15 7 18 -3 3 -9 -2 -12 -12z"/>
<path d="M797 2505 c-33 -78 -33 -83 -1 -130 14 -21 31 -60 37 -86 l11 -46 19
23 c13 17 29 24 51 24 47 0 64 17 91 93 l25 68 -22 -6 c-77 -24 -128 -75 -128
-128 0 -14 -7 -30 -15 -37 -13 -11 -14 -8 -10 21 4 24 3 28 -3 15 -8 -18 -9
-18 -15 -2 -4 9 3 45 14 79 21 61 21 63 3 115 -10 29 -20 55 -23 57 -4 2 -18
-25 -34 -60z"/>
<path d="M3167 2536 c-21 -46 -22 -99 -1 -160 13 -37 14 -53 5 -72 -14 -31
-27 -24 -36 19 -11 51 -32 75 -87 102 -28 14 -53 23 -55 21 -2 -2 6 -34 17
-70 23 -69 38 -85 87 -88 33 -2 63 -24 64 -47 0 -9 7 8 15 37 7 29 25 69 39
90 32 47 31 73 -3 146 l-27 58 -18 -36z"/>
<path d="M2672 2484 c-8 -31 -11 -58 -8 -62 3 -3 6 4 6 16 0 22 20 42 20 20 1
-9 3 -9 9 2 9 16 3 80 -8 80 -3 0 -12 -25 -19 -56z"/>
<path d="M891 2449 c-6 -18 -9 -34 -7 -36 2 -2 9 10 15 28 6 18 9 34 7 36 -2
2 -9 -10 -15 -28z"/>
<path d="M2712 2440 c0 -14 2 -19 5 -12 2 6 2 18 0 25 -3 6 -5 1 -5 -13z"/>
<path d="M2692 2420 c0 -14 2 -19 5 -12 2 6 2 18 0 25 -3 6 -5 1 -5 -13z"/>
<path d="M3127 2415 c3 -16 10 -39 14 -50 l8 -20 0 20 c0 11 -6 34 -14 50
l-14 30 6 -30z"/>
<path d="M1351 2414 c0 -11 3 -14 6 -6 3 7 2 16 -1 19 -3 4 -6 -2 -5 -13z"/>
<path d="M1940 2413 c-29 -6 -60 -31 -60 -49 0 -7 8 -10 18 -7 10 2 26 -5 36
-16 24 -26 16 -99 -15 -142 -24 -34 -43 -36 -84 -9 -44 29 -105 27 -136 -6
-24 -26 -24 -26 -32 -337 -4 -172 -10 -340 -13 -374 l-6 -63 -216 0 c-205 -1
-215 -2 -187 -17 65 -35 162 -116 205 -172 86 -111 128 -151 159 -151 28 0 28
0 34 83 4 45 7 117 7 161 0 73 2 81 30 113 17 18 30 42 30 53 0 10 5 22 11 25
5 4 15 17 20 28 16 35 32 60 65 102 17 22 36 49 42 60 11 20 11 20 12 -1 0
-34 -50 -198 -63 -206 -7 -4 -16 -9 -21 -11 -5 -2 -11 -18 -12 -36 -1 -21 2
-31 9 -28 7 3 11 11 9 18 -2 8 0 11 3 7 4 -4 20 -1 36 7 26 14 29 14 39 -6 10
-17 14 -18 27 -8 13 11 18 10 30 -6 15 -20 15 -20 9 1 -5 17 -2 23 18 26 14 3
30 0 36 -6 8 -8 13 -7 19 3 7 11 10 11 15 0 4 -11 7 -11 12 -2 3 7 21 15 39
19 26 5 39 1 56 -14 19 -18 23 -19 36 -7 12 13 19 11 54 -10 l39 -25 0 29 c0
19 -8 34 -23 44 -17 11 -31 41 -51 110 -16 52 -26 101 -23 109 3 8 9 3 16 -14
6 -16 15 -28 21 -28 6 0 15 -10 21 -22 11 -25 21 -42 60 -103 14 -22 29 -49
32 -60 4 -11 18 -33 32 -49 20 -23 25 -40 25 -80 0 -28 3 -102 7 -164 l6 -112
33 0 c30 0 42 11 129 115 87 104 175 182 240 211 13 6 -57 10 -196 12 l-216 2
-6 128 c-4 70 -7 195 -8 277 -1 83 -4 194 -8 247 -5 83 -9 100 -30 122 -30 32
-76 34 -132 6 -48 -25 -69 -20 -94 22 -14 24 -18 50 -17 104 1 48 -3 76 -11
83 -16 13 -83 21 -117 14z m133 -337 c48 -20 76 -56 83 -108 9 -67 -2 -113
-37 -147 -62 -62 -157 -61 -226 2 -30 28 -35 39 -39 92 -4 46 -1 68 13 95 35
67 132 98 206 66z m-143 -616 c-20 -13 -33 -13 -25 0 3 6 14 10 23 10 15 0 15
-2 2 -10z"/>
<path d="M1999 2019 c-13 -12 -17 -19 -9 -15 8 3 23 9 33 12 9 4 17 10 17 15
0 15 -16 10 -41 -12z"/>
<path d="M2052 2010 c0 -14 2 -19 5 -12 2 6 2 18 0 25 -3 6 -5 1 -5 -13z"/>
<path d="M2100 1999 c0 -25 -2 -26 -62 -28 -72 -1 -93 -11 -25 -11 26 0 47 -4
47 -9 0 -22 -78 -29 -98 -9 -8 8 -21 2 -51 -25 -22 -20 -37 -39 -32 -41 4 -3
18 6 31 19 13 13 27 22 33 18 6 -3 8 -2 5 3 -4 5 31 9 80 8 48 0 93 2 100 4
18 6 15 42 -4 42 -9 0 -14 6 -11 13 3 8 1 20 -4 28 -6 10 -9 7 -9 -12z m10
-49 c0 -5 -9 -10 -20 -10 -11 0 -20 5 -20 10 0 6 9 10 20 10 11 0 20 -4 20
-10z"/>
<path d="M1910 2000 c0 -5 5 -10 11 -10 5 0 7 5 4 10 -3 6 -8 10 -11 10 -2 0
-4 -4 -4 -10z"/>
<path d="M1865 1950 c3 -5 8 -10 11 -10 2 0 4 5 4 10 0 6 -5 10 -11 10 -5 0
-7 -4 -4 -10z"/>
<path d="M2012 1890 c0 -14 2 -19 5 -12 2 6 2 18 0 25 -3 6 -5 1 -5 -13z"/>
<path d="M2041 1894 c0 -11 3 -14 6 -6 3 7 2 16 -1 19 -3 4 -6 -2 -5 -13z"/>
<path d="M2124 1896 c-3 -8 -4 -23 -2 -33 3 -11 6 -6 9 15 6 34 2 42 -7 18z"/>
<path d="M1930 1891 c0 -5 5 -13 10 -16 6 -3 10 -2 10 4 0 5 -4 13 -10 16 -5
3 -10 2 -10 -4z"/>
<path d="M2072 1880 c0 -14 2 -19 5 -12 2 6 2 18 0 25 -3 6 -5 1 -5 -13z"/>
<path d="M2010 1850 c0 -7 -7 -10 -15 -6 -8 3 -15 1 -15 -4 0 -10 65 -8 76 3
4 4 2 7 -4 7 -5 0 -17 3 -26 6 -9 4 -16 1 -16 -6z"/>
<path d="M1955 1840 c-3 -5 -1 -10 4 -10 6 0 11 5 11 10 0 6 -2 10 -4 10 -3 0
-8 -4 -11 -10z"/>
<path d="M2646 2384 c-4 -14 -5 -28 -3 -31 3 -2 8 8 11 23 4 14 5 28 3 31 -3
2 -8 -8 -11 -23z"/>
<path d="M866 2374 c-4 -14 -5 -28 -3 -31 3 -2 8 8 11 23 4 14 5 28 3 31 -3 2
-8 -8 -11 -23z"/>
<path d="M1361 2374 c0 -11 3 -14 6 -6 3 7 2 16 -1 19 -3 4 -6 -2 -5 -13z"/>
<path d="M1376 2320 c4 -19 11 -44 15 -55 6 -14 7 -9 3 15 -4 19 -11 44 -15
55 -6 14 -7 9 -3 -15z"/>
<path d="M2731 2340 c0 -8 4 -24 9 -35 5 -13 9 -14 9 -5 0 8 -4 24 -9 35 -5
13 -9 14 -9 5z"/>
<path d="M1261 2294 c-7 -25 -10 -48 -8 -51 3 -2 10 17 16 43 7 25 10 48 8 51
-3 2 -10 -17 -16 -43z"/>
<path d="M2631 2324 c0 -11 3 -14 6 -6 3 7 2 16 -1 19 -3 4 -6 -2 -5 -13z"/>
<path d="M2616 2274 c-4 -14 -5 -28 -3 -31 3 -2 8 8 11 23 4 14 5 28 3 31 -3
2 -8 -8 -11 -23z"/>
<path d="M2756 2250 c4 -19 11 -44 15 -55 6 -14 7 -9 3 15 -4 19 -11 44 -15
55 -6 14 -7 9 -3 -15z"/>
<path d="M712 2192 c-20 -96 -16 -120 22 -156 50 -47 86 -110 87 -153 0 -21 3
-56 7 -77 4 -21 7 60 7 180 0 120 -3 199 -7 174 -3 -25 -7 -80 -7 -122 -1 -81
-10 -96 -30 -52 -9 20 -8 35 3 69 17 48 11 84 -24 139 -37 62 -45 61 -58 -2z"/>
<path d="M3251 2205 c-40 -56 -51 -118 -29 -163 13 -26 13 -32 -1 -58 l-16
-29 -6 40 -6 40 -2 -43 c-2 -59 -21 -44 -21 16 0 73 -17 117 -58 153 l-37 33
-7 -45 c-13 -69 7 -138 45 -158 17 -9 43 -28 58 -43 l26 -27 23 42 c13 23 37
54 54 68 30 26 31 30 29 100 -1 41 -5 84 -10 97 -8 22 -10 21 -42 -23z"/>
<path d="M1401 2224 c0 -11 3 -14 6 -6 3 7 2 16 -1 19 -3 4 -6 -2 -5 -13z"/>
<path d="M1241 2214 c0 -11 3 -14 6 -6 3 7 2 16 -1 19 -3 4 -6 -2 -5 -13z"/>
<path d="M2596 2194 c-4 -14 -5 -28 -3 -31 3 -2 8 8 11 23 4 14 5 28 3 31 -3
2 -8 -8 -11 -23z"/>
<path d="M3177 2145 c3 -44 7 -82 9 -84 7 -8 3 84 -6 124 -6 29 -7 17 -3 -40z"/>
<path d="M1231 2174 c0 -11 3 -14 6 -6 3 7 2 16 -1 19 -3 4 -6 -2 -5 -13z"/>
<path d="M891 2154 c-34 -29 -51 -76 -51 -147 l0 -47 33 13 c51 21 77 69 77
143 0 73 -10 80 -59 38z"/>
<path d="M2692 2160 c0 -14 2 -19 5 -12 2 6 2 18 0 25 -3 6 -5 1 -5 -13z"/>
<path d="M2782 2155 c0 -11 3 -29 8 -40 11 -25 11 1 0 35 -6 20 -8 21 -8 5z"/>
<path d="M1206 2084 c-9 -37 -15 -68 -13 -71 3 -2 12 26 21 63 9 37 15 68 13
71 -3 2 -12 -26 -21 -63z"/>
<path d="M1421 2120 c0 -8 4 -24 9 -35 5 -13 9 -14 9 -5 0 8 -4 24 -9 35 -5
13 -9 14 -9 5z"/>
<path d="M362 2083 c-6 -16 -14 -40 -18 -55 -6 -27 -9 -28 -68 -28 l-61 -1 44
-40 44 -39 -17 -52 c-9 -28 -14 -53 -12 -55 2 -3 23 9 47 26 23 17 47 31 53
31 6 -1 27 -14 46 -30 19 -17 37 -30 41 -30 4 0 0 25 -8 55 -15 53 -15 57 3
69 10 8 30 23 44 35 l25 20 -35 1 c-66 1 -77 8 -95 66 -9 30 -18 54 -20 54 -1
0 -7 -12 -13 -27z"/>
<path d="M3667 2056 c-15 -46 -22 -56 -46 -61 -15 -3 -32 -5 -37 -4 -5 1 -20
1 -34 0 l-25 -2 22 -15 c12 -9 33 -26 47 -39 25 -23 25 -25 11 -59 -8 -19 -15
-45 -15 -56 0 -20 3 -19 44 10 25 16 49 30 54 30 5 0 27 -14 48 -31 44 -35 52
-27 31 35 -15 42 -14 45 6 64 12 11 35 28 52 38 l29 19 -59 5 -60 5 -21 53
c-11 28 -23 54 -26 57 -2 3 -12 -20 -21 -49z"/>
<path d="M2566 2059 c-8 -42 0 -50 9 -9 4 17 5 34 2 36 -2 3 -7 -10 -11 -27z"/>
<path d="M2802 2080 c0 -8 4 -26 8 -40 6 -20 8 -21 8 -5 0 11 -3 29 -8 40 -5
12 -8 14 -8 5z"/>
<path d="M1446 2030 c4 -19 11 -44 15 -55 6 -14 7 -9 3 15 -4 19 -11 44 -15
55 -6 14 -7 9 -3 -15z"/>
<path d="M2551 1994 c0 -11 3 -14 6 -6 3 7 2 16 -1 19 -3 4 -6 -2 -5 -13z"/>
<path d="M2821 2000 c0 -8 4 -24 9 -35 5 -13 9 -14 9 -5 0 8 -4 24 -9 35 -5
13 -9 14 -9 5z"/>
<path d="M1171 1954 c-7 -25 -10 -48 -8 -51 3 -2 10 17 16 43 7 25 10 48 8 51
-3 2 -10 -17 -16 -43z"/>
<path d="M2531 1924 c-7 -25 -10 -48 -8 -51 3 -2 10 17 16 43 7 25 10 48 8 51
-3 2 -10 -17 -16 -43z"/>
<path d="M1471 1934 c0 -11 3 -14 6 -6 3 7 2 16 -1 19 -3 4 -6 -2 -5 -13z"/>
<path d="M3061 1905 c-21 -85 -5 -156 39 -170 11 -4 28 -21 38 -40 l17 -33 74
67 75 68 4 68 5 69 -42 -33 c-55 -44 -75 -83 -68 -137 3 -33 0 -47 -13 -59
-17 -16 -19 -15 -23 7 l-4 23 -2 -23 c0 -13 -5 -20 -11 -17 -6 3 -7 30 -3 65
7 75 1 99 -41 149 l-34 40 -11 -44z"/>
<path d="M913 1918 c-50 -56 -56 -74 -49 -153 6 -70 6 -75 -13 -75 -30 0 -52
37 -40 68 15 39 -6 86 -59 133 l-47 41 -3 -43 c-5 -68 5 -88 83 -163 l74 -71
11 30 c7 17 27 40 45 53 43 27 57 72 43 139 -13 62 -20 68 -45 41z"/>
<path d="M2841 1924 c0 -11 3 -14 6 -6 3 7 2 16 -1 19 -3 4 -6 -2 -5 -13z"/>
<path d="M2692 1900 c0 -14 2 -19 5 -12 2 6 2 18 0 25 -3 6 -5 1 -5 -13z"/>
<path d="M1481 1894 c0 -11 3 -14 6 -6 3 7 2 16 -1 19 -3 4 -6 -2 -5 -13z"/>
<path d="M2851 1890 c0 -8 4 -22 9 -30 12 -18 12 -2 0 25 -6 13 -9 15 -9 5z"/>
<path d="M3183 1855 c0 -27 2 -38 4 -22 2 15 2 37 0 50 -2 12 -4 0 -4 -28z"/>
<path d="M1151 1874 c0 -11 3 -14 6 -6 3 7 2 16 -1 19 -3 4 -6 -2 -5 -13z"/>
<path d="M1491 1860 c0 -8 4 -24 9 -35 5 -13 9 -14 9 -5 0 8 -4 24 -9 35 -5
13 -9 14 -9 5z"/>
<path d="M2511 1844 c0 -11 3 -14 6 -6 3 7 2 16 -1 19 -3 4 -6 -2 -5 -13z"/>
<path d="M1141 1834 c0 -11 3 -14 6 -6 3 7 2 16 -1 19 -3 4 -6 -2 -5 -13z"/>
<path d="M2501 1804 c0 -11 3 -14 6 -6 3 7 2 16 -1 19 -3 4 -6 -2 -5 -13z"/>
<path d="M3172 1775 c0 -16 2 -22 5 -12 2 9 2 23 0 30 -3 6 -5 -1 -5 -18z"/>
<path d="M130 1743 c0 -55 18 -165 41 -263 21 -87 66 -227 79 -245 4 -5 11
-26 15 -45 13 -64 151 -301 244 -420 73 -93 199 -223 276 -284 28 -22 55 -45
60 -51 16 -18 152 -107 240 -157 139 -79 333 -151 513 -190 98 -21 132 -23
397 -23 266 0 298 2 393 23 447 100 816 332 1102 692 46 58 88 116 94 130 6
14 38 69 70 124 32 54 70 128 83 165 42 115 80 234 93 291 7 30 17 69 22 85 5
17 12 66 15 111 l6 81 -227 7 c-159 5 -231 4 -240 -3 -8 -6 -16 -33 -19 -59
-3 -26 -13 -72 -22 -102 -9 -30 -20 -68 -25 -85 -61 -220 -227 -468 -423 -633
-197 -165 -378 -253 -644 -312 -141 -31 -407 -29 -563 4 -242 52 -416 136
-615 297 -180 146 -336 369 -409 581 -37 110 -76 262 -76 297 0 21 -2 21 -240
21 l-240 0 0 -37z m470 -178 c8 -20 4 -37 -18 -82 -17 -36 -23 -57 -16 -60 6
-2 31 -14 55 -26 33 -17 44 -28 44 -45 0 -20 -11 -28 -58 -47 -55 -23 -57 -23
-67 -5 -15 29 -12 39 15 52 l25 11 -35 24 c-39 27 -42 40 -19 85 l16 31 -35
-7 c-33 -6 -36 -5 -42 24 -4 17 -5 33 -3 34 1 2 30 10 63 18 33 9 61 16 63 17
1 0 7 -10 12 -24z m2861 -36 c-17 -50 -5 -46 18 6 15 34 25 46 38 43 35 -6 24
-138 -14 -169 -21 -18 -27 15 -9 50 9 16 16 36 16 43 -1 7 -12 -8 -26 -34 -44
-86 -79 -45 -49 58 11 40 19 54 27 46 7 -7 7 -20 -1 -43z m-3121 -74 c10 -12
14 -13 26 0 8 8 21 12 29 9 18 -7 48 -96 39 -117 -7 -19 -29 -23 -39 -7 -3 6
-10 10 -16 10 -14 0 -11 -30 6 -46 20 -21 19 -34 -4 -34 -11 0 -21 -5 -23 -12
-7 -20 -38 0 -38 24 0 13 -7 32 -16 43 -20 27 -37 93 -30 121 7 28 46 33 66 9z
m3088 -74 c2 -23 11 -35 28 -43 18 -9 23 -16 18 -32 -11 -36 -21 -39 -68 -20
-49 20 -54 28 -32 59 7 11 16 33 20 48 9 37 30 30 34 -12z m-2708 -118 c0 -15
-5 -23 -12 -21 -19 7 -32 34 -24 53 9 24 36 1 36 -32z m2603 20 c8 -14 -12
-53 -28 -53 -18 0 -20 31 -3 48 14 14 25 15 31 5z m285 -9 c36 -18 38 -22 18
-50 -12 -15 -17 -17 -27 -6 -18 17 -56 15 -63 -4 -11 -30 -6 -44 24 -59 32
-17 38 -36 16 -54 -11 -9 -24 -7 -60 11 -48 23 -55 37 -33 60 8 7 17 25 20 39
8 32 44 79 61 79 7 0 27 -7 44 -16z m-2930 -19 c11 -24 9 -26 -38 -50 l-49
-25 -16 30 -15 29 42 20 c57 26 63 25 76 -4z m2735 -12 c30 -15 34 -30 14 -57
-12 -17 -15 -17 -60 5 -50 24 -53 29 -36 60 11 21 28 20 82 -8z m-2693 -80 c8
-16 22 -37 31 -48 10 -11 20 -32 24 -46 5 -22 0 -31 -31 -58 l-38 -31 -14 26
c-12 23 -11 28 7 48 24 25 26 37 10 53 -9 9 -19 8 -40 -3 -27 -13 -29 -13 -46
12 -18 29 -23 23 42 60 31 18 41 16 55 -13z m-192 5 c23 -23 12 -38 -49 -69
-34 -16 -62 -29 -64 -27 -1 2 -7 13 -13 24 -10 20 -6 24 46 52 66 36 64 36 80
20z m2837 -15 l35 -17 -26 -45 c-48 -84 -87 -112 -101 -75 -3 9 2 32 12 50 10
19 15 37 11 41 -3 4 -12 -8 -18 -25 -8 -20 -19 -32 -30 -32 -21 0 -22 4 -7 33
22 42 60 87 74 87 8 0 30 -8 50 -17z m142 -71 c13 -8 17 -30 15 -69 -1 -12
-16 -38 -33 -58 -47 -53 -99 -44 -99 18 0 37 15 66 48 94 28 24 48 28 69 15z
m-2957 -29 c0 -8 11 -28 25 -45 35 -41 33 -81 -6 -109 -29 -20 -32 -21 -47 -5
-16 16 -15 19 11 37 30 23 35 50 11 70 -13 10 -21 9 -46 -6 -30 -17 -32 -17
-45 0 -19 27 -18 29 34 58 49 26 63 27 63 0z m2644 -21 c-6 -24 -5 -25 7 -10
10 12 19 15 28 9 12 -8 12 -12 2 -24 -10 -12 -6 -19 19 -39 31 -24 31 -24 12
-48 l-19 -23 -33 23 -33 23 -18 -24 c-18 -24 -17 -24 8 -51 26 -27 26 -28 8
-48 -18 -20 -19 -20 -39 -1 -12 11 -32 21 -46 23 -22 3 -25 7 -24 46 1 51 35
95 55 75 9 -9 9 -16 -1 -28 -7 -8 -8 -15 -3 -15 20 0 33 26 33 65 0 42 24 90
41 80 5 -4 6 -18 3 -33z m-2318 -38 c-6 -16 -8 -16 -28 3 -13 14 -18 28 -14
39 6 16 8 16 28 -3 13 -14 18 -28 14 -39z m-63 -51 c-44 -38 -51 -39 -69 -15
-19 25 -18 28 29 61 l42 30 18 -22 c19 -21 19 -22 -20 -54z m2507 -3 c0 -20
-25 -38 -36 -27 -8 7 15 47 26 47 6 0 10 -9 10 -20z m-2391 -56 c12 -15 21
-31 21 -35 0 -15 -30 -10 -36 6 -4 9 -15 20 -25 26 -16 8 -14 3 6 -27 30 -44
28 -58 -7 -62 -20 -2 -34 7 -62 39 -40 48 -43 54 -21 63 10 3 20 -5 30 -24 8
-16 19 -32 25 -35 6 -4 1 12 -11 34 -17 33 -19 44 -9 56 11 13 16 13 40 0 16
-8 38 -27 49 -41z m2459 16 c46 -33 50 -41 27 -60 -15 -13 -22 -10 -72 28 -28
20 -30 26 -20 43 15 25 17 24 65 -11z m-2723 6 c17 7 29 -14 32 -53 2 -35 -5
-41 -25 -21 -9 9 -16 7 -32 -7 -14 -13 -17 -22 -10 -29 15 -15 12 -36 -4 -36
-17 0 -46 43 -46 68 0 11 11 27 25 36 14 9 23 21 20 26 -10 16 5 34 17 22 6
-6 16 -8 23 -6z m2638 -52 c3 -4 2 -15 -3 -24 -15 -28 13 -47 45 -30 32 17 42
7 22 -24 -23 -34 -53 -41 -85 -20 -15 10 -34 17 -43 16 -12 -2 -16 4 -15 25 2
39 14 55 37 48 11 -4 19 -2 19 4 0 12 13 15 23 5z m-2282 -31 c15 -15 22 -70
10 -78 -5 -3 -12 -1 -16 5 -3 5 -10 10 -15 10 -14 0 -21 -32 -9 -46 21 -25 -1
-35 -32 -14 -32 24 -40 69 -14 90 8 7 12 16 9 21 -15 25 44 35 67 12z m2047
-21 l73 -18 -24 -22 c-13 -12 -32 -22 -42 -22 -24 0 -75 -48 -75 -72 0 -16
-37 -45 -46 -35 -2 2 -7 38 -10 81 -6 68 -5 78 12 91 24 18 24 18 112 -3z
m-2318 -27 c37 -19 60 -52 60 -87 0 -44 -19 -43 -66 3 -30 29 -44 38 -44 27 0
-9 14 -26 30 -38 17 -12 30 -28 30 -36 0 -27 -53 10 -78 54 -26 47 -27 56 -6
76 19 20 37 20 74 1z m396 -77 c59 -40 63 -46 64 -81 l0 -39 33 20 c28 18 34
19 51 6 23 -16 25 -13 -40 -53 -59 -36 -107 -40 -144 -11 -21 17 -23 21 -10
30 9 6 18 6 24 0 25 -25 36 -9 36 52 0 47 -3 59 -12 50 -7 -7 -17 -8 -29 -1
-14 7 -23 3 -42 -17 -22 -23 -27 -24 -46 -13 -11 8 -21 18 -21 23 0 12 53 74
64 75 5 1 38 -18 72 -41z m2111 20 c29 -27 29 -34 -4 -67 -39 -39 -80 -64 -93
-56 -18 11 -11 48 17 77 21 22 23 28 10 28 -9 0 -24 -11 -33 -25 -9 -14 -22
-25 -28 -25 -7 0 -19 -11 -26 -25 -12 -23 -12 -30 4 -56 14 -24 15 -33 6 -44
-18 -22 -23 -19 -60 26 l-33 42 39 32 c21 18 42 31 46 29 4 -3 12 6 19 18 35
66 94 86 136 46z m-2359 -77 c36 -31 30 -46 -13 -35 -20 5 -30 2 -41 -15 -17
-24 -34 -27 -52 -9 -9 9 -4 20 21 49 18 20 37 38 42 38 6 0 25 -13 43 -28z
m1948 -36 c26 -35 26 -36 8 -50 -27 -21 -39 -18 -54 10 -14 26 -44 33 -55 14
-4 -5 -1 -24 6 -41 10 -25 10 -31 -2 -39 -24 -15 -34 -10 -51 24 -27 51 -26
55 27 87 66 39 88 38 121 -5z m-1810 -72 c30 -28 30 -50 0 -88 -20 -25 -26
-28 -40 -16 -14 12 -14 16 -1 42 20 37 19 46 -4 59 -16 8 -25 5 -48 -20 -28
-30 -30 -30 -45 -13 -16 17 -15 21 18 61 l36 42 30 -22 c16 -13 40 -33 54 -45z
m489 8 c50 -22 73 -61 59 -99 -13 -37 -52 -49 -112 -34 -55 15 -92 51 -92 92
0 57 68 76 145 41z m1135 -21 c30 -59 26 -84 -15 -110 -41 -26 -115 -39 -115
-21 0 6 8 14 18 17 49 16 72 27 72 35 0 5 -15 1 -34 -7 -29 -14 -37 -15 -62
-3 -57 28 -35 77 49 110 60 24 64 23 87 -21z m365 10 c0 -8 -16 -25 -35 -38
-44 -30 -52 -49 -11 -28 17 9 31 21 31 26 0 6 7 10 15 10 8 0 15 -4 15 -9 0
-16 -49 -60 -74 -67 -85 -21 -118 60 -43 107 37 23 102 22 102 -1z m-580 -10
c0 -9 -11 -16 -27 -18 -27 -3 -38 14 -21 32 12 12 48 2 48 -14z m-737 -16 c27
-8 29 -24 2 -31 -19 -5 -20 -6 -3 -19 17 -13 17 -14 -5 -20 -14 -4 -25 -18
-30 -38 -5 -20 -15 -32 -28 -34 -33 -4 -45 11 -35 46 6 19 6 34 0 37 -16 11
-10 23 24 44 35 23 41 24 75 15z m765 -66 c9 -27 13 -48 9 -48 -4 0 -16 -3
-28 -6 -18 -5 -23 1 -33 40 -15 59 -14 64 7 69 23 5 27 0 45 -55z m-1308 19
c47 -27 58 -69 28 -106 l-19 -23 -54 29 c-38 19 -56 35 -58 51 -5 31 22 38 65
18 48 -23 54 -12 9 15 -66 39 -39 54 29 16z m749 15 c7 -12 -7 -29 -29 -35
-18 -4 -18 -5 3 -6 27 -1 30 -31 3 -31 -14 0 -21 -10 -25 -35 -6 -29 -11 -35
-32 -35 -23 0 -25 4 -23 33 1 17 -2 40 -6 49 -14 35 89 92 109 60z m468 -29
c24 -22 23 -33 -4 -33 -21 -1 -22 -2 -5 -14 15 -12 15 -15 2 -26 -21 -18 -98
-24 -124 -11 -29 16 -27 55 5 80 33 26 100 28 126 4z m482 1 c31 -31 15 -79
-35 -100 -32 -15 -36 -20 -28 -35 7 -14 5 -21 -11 -29 -27 -14 -33 -9 -54 42
-10 24 -23 52 -28 63 -7 11 -7 20 -1 22 5 2 29 14 53 28 53 28 83 31 104 9z
m-654 -13 c0 -11 -9 -23 -20 -26 -15 -5 -20 -15 -20 -41 0 -29 -3 -34 -24 -34
-22 0 -26 6 -31 44 -9 56 -3 66 40 64 19 -1 38 2 42 5 10 11 13 8 13 -12z
m-140 -19 c46 -38 2 -92 -74 -92 -39 0 -86 33 -86 60 0 47 114 69 160 32z
m-758 -10 c-1 -7 5 -15 13 -18 26 -10 18 -35 -9 -28 -18 4 -25 1 -29 -18 -4
-15 -1 -27 8 -34 17 -13 20 -34 5 -34 -6 0 -22 7 -35 16 -26 17 -32 43 -15 74
7 13 7 21 0 25 -17 10 -11 23 13 28 33 7 52 2 49 -11z m118 -15 c0 -19 -10
-27 -26 -20 -21 8 -17 33 6 33 11 0 20 -6 20 -13z m1258 -29 c37 -37 -10 -97
-81 -105 -37 -5 -47 -2 -60 17 -20 29 -11 58 27 81 35 21 96 25 114 7z m-1280
-7 c19 -12 -16 -114 -36 -106 -8 3 -18 5 -23 5 -14 0 -11 21 11 68 20 43 26
48 48 33z m162 -56 c26 -23 26 -71 1 -85 -48 -25 -142 10 -149 57 -7 50 101
70 148 28z m744 9 c29 -11 -1 -34 -35 -27 -57 11 -107 -52 -60 -77 25 -13 68
-13 76 0 8 13 42 13 50 0 9 -15 -57 -40 -103 -40 -98 0 -125 98 -39 135 34 15
85 19 111 9z m196 -8 c18 -22 8 -57 -22 -79 -32 -24 -103 -27 -125 -4 -22 22
-9 63 25 81 35 20 106 20 122 2z m-472 -79 c3 -72 1 -77 -18 -77 -18 0 -20 6
-20 81 0 71 2 80 18 77 14 -3 17 -16 20 -81z m-332 57 c59 -4 75 -20 72 -67
-3 -37 -6 -42 -30 -45 -25 -3 -26 -2 -21 36 4 31 2 40 -12 46 -23 8 -42 -9
-50 -45 -7 -29 -19 -35 -43 -21 -10 7 -10 19 0 60 10 46 14 51 32 46 12 -4 35
-8 52 -10z m241 -40 c7 -10 13 -35 13 -55 l0 -38 -52 1 c-74 1 -100 13 -96 41
3 19 10 22 51 25 53 3 55 22 2 22 -19 0 -36 4 -39 9 -18 28 101 23 121 -5z"/>
<path d="M310 1402 c0 -28 10 -52 22 -52 14 0 5 63 -9 68 -8 2 -13 -5 -13 -16z"/>
<path d="M385 1409 c-4 -6 0 -18 9 -27 15 -15 16 -15 16 5 0 25 -15 38 -25 22z"/>
<path d="M3317 1087 c-11 -29 -9 -43 4 -30 6 6 9 19 7 29 -3 18 -4 18 -11 1z"/>
<path d="M3442 1028 c-14 -14 -16 -54 -2 -63 14 -8 52 33 48 53 -4 21 -29 27
-46 10z"/>
<path d="M2990 749 c0 -18 2 -19 15 -9 15 12 12 30 -6 30 -5 0 -9 -10 -9 -21z"/>
<path d="M741 724 c13 -14 25 -20 27 -14 5 15 -17 40 -36 40 -12 0 -10 -6 9
-26z"/>
<path d="M3196 661 c-11 -12 -16 -24 -12 -28 9 -9 39 22 34 37 -2 7 -10 4 -22
-9z"/>
<path d="M1439 504 c-17 -20 -2 -45 35 -59 50 -17 81 20 47 54 -25 25 -63 27
-82 5z"/>
<path d="M2565 496 c-15 -11 -17 -18 -9 -26 14 -14 57 5 51 23 -5 17 -21 18
-42 3z"/>
<path d="M2936 504 c-31 -30 -13 -33 24 -4 19 15 21 20 8 20 -9 0 -24 -7 -32
-16z"/>
<path d="M1105 401 c-3 -5 4 -13 16 -16 28 -9 36 1 10 14 -12 7 -22 7 -26 2z"/>
<path d="M2298 423 c6 -2 18 -2 25 0 6 3 1 5 -13 5 -14 0 -19 -2 -12 -5z"/>
<path d="M2300 390 c-12 -8 -12 -10 5 -10 11 0 27 5 35 10 12 8 12 10 -5 10
-11 0 -27 -5 -35 -10z"/>
<path d="M2771 406 c-17 -20 -7 -46 18 -46 23 0 53 27 48 44 -6 17 -52 19 -66
2z"/>
<path d="M1975 390 c-11 -17 18 -42 39 -34 9 4 16 14 14 23 -4 19 -43 27 -53
11z"/>
<path d="M2590 325 c-16 -19 -6 -45 18 -45 25 0 46 25 38 45 -7 19 -40 19 -56
0z"/>
<path d="M1480 280 c-22 -14 0 -44 34 -48 30 -4 45 20 26 43 -14 17 -38 19
-60 5z"/>
<path d="M2410 265 c-11 -13 -11 -19 2 -31 13 -13 20 -14 37 -4 13 6 21 19 19
28 -4 23 -41 27 -58 7z"/>
<path d="M1860 180 c0 -5 9 -10 19 -10 11 0 23 5 26 10 4 6 -5 10 -19 10 -14
0 -26 -4 -26 -10z"/>
<path d="M1521 1744 c0 -11 3 -14 6 -6 3 7 2 16 -1 19 -3 4 -6 -2 -5 -13z"/>
<path d="M2881 1744 c0 -11 3 -14 6 -6 3 7 2 16 -1 19 -3 4 -6 -2 -5 -13z"/>
<path d="M1121 1734 c0 -11 3 -14 6 -6 3 7 2 16 -1 19 -3 4 -6 -2 -5 -13z"/>
<path d="M2476 1719 c-8 -42 0 -50 9 -9 4 17 5 34 2 36 -2 3 -7 -10 -11 -27z"/>
<path d="M1531 1704 c0 -11 3 -14 6 -6 3 7 2 16 -1 19 -3 4 -6 -2 -5 -13z"/>
<path d="M2891 1710 c0 -8 4 -24 9 -35 5 -13 9 -14 9 -5 0 8 -4 24 -9 35 -5
13 -9 14 -9 5z"/>
<path d="M935 1649 c-21 -68 -21 -107 0 -148 26 -51 38 -53 65 -14 34 49 33
115 -3 176 -16 26 -31 47 -35 47 -4 0 -16 -28 -27 -61z"/>
<path d="M1111 1694 c0 -11 3 -14 6 -6 3 7 2 16 -1 19 -3 4 -6 -2 -5 -13z"/>
<path d="M3015 1660 c-33 -64 -33 -125 -2 -172 39 -56 40 -79 8 -137 -31 -58
-137 -191 -151 -191 -14 0 0 32 32 68 15 18 31 44 34 57 8 32 -5 155 -16 155
-17 0 -81 -85 -90 -120 -10 -37 -1 -90 20 -115 5 -7 7 -27 4 -45 -5 -24 -25
-47 -80 -92 -41 -33 -72 -64 -69 -68 9 -14 -53 -62 -76 -58 -37 5 -28 31 16
51 60 28 74 45 80 96 3 25 12 61 20 79 18 39 8 41 -55 8 -57 -29 -82 -71 -83
-139 0 -39 -6 -60 -24 -84 l-24 -33 45 6 c26 4 65 1 90 -6 68 -19 110 -6 162
47 25 25 43 48 40 50 -10 10 -147 4 -161 -7 -9 -7 -18 -11 -20 -8 -9 9 140
121 169 129 27 6 28 7 6 8 -24 1 -24 1 11 39 54 57 104 122 130 171 57 104 68
127 68 136 0 6 -10 -8 -22 -30 -19 -35 -22 -37 -25 -17 -2 12 6 34 17 48 33
42 36 85 11 158 -12 36 -26 66 -31 66 -5 0 -20 -22 -34 -50z"/>
<path d="M2612 1674 c-45 -7 -96 -17 -112 -23 -26 -8 -30 -7 -31 7 0 9 -5 4
-9 -11 -10 -34 -1 -63 33 -99 106 -114 346 -95 412 33 17 32 20 73 5 64 -5 -3
-19 -1 -30 5 -45 24 -181 36 -268 24z"/>
<path d="M861 1634 c-1 -10 12 -51 34 -113 3 -8 7 -12 10 -10 2 3 -7 34 -20
69 -13 36 -24 60 -24 54z"/>
<path d="M3212 1618 c-49 -24 -82 -77 -82 -132 0 -26 -7 -40 -27 -57 -33 -26
-27 -24 54 19 35 17 69 42 77 55 14 20 35 138 25 137 -2 -1 -23 -10 -47 -22z"/>
<path d="M754 1614 c3 -9 6 -31 6 -49 0 -47 37 -86 122 -130 39 -20 78 -44 85
-53 13 -16 14 -15 5 2 -5 10 -7 28 -4 40 4 21 4 21 -12 1 -12 -14 -14 -15 -10
-4 3 10 1 20 -5 24 -7 3 -8 0 -5 -9 3 -9 2 -16 -3 -16 -22 0 -41 28 -47 70 -9
55 -39 106 -76 125 -39 20 -64 20 -56 -1z"/>
<path d="M3123 1568 c-12 -35 -20 -64 -18 -66 5 -5 46 109 43 119 -2 5 -13
-19 -25 -53z"/>
<path d="M910 1495 c0 -5 5 -17 10 -25 5 -8 10 -10 10 -5 0 6 -5 17 -10 25 -5
8 -10 11 -10 5z"/>
<path d="M1076 1371 c-8 -76 3 -111 51 -163 30 -31 27 -60 -7 -69 l-25 -7 26
-1 c16 -1 56 -25 103 -61 42 -33 76 -58 76 -56 0 3 -31 30 -70 61 -62 49 -70
60 -70 89 0 19 7 47 15 62 19 37 19 78 0 119 -16 33 -71 95 -85 95 -4 0 -10
-31 -14 -69z"/>
<path d="M1840 1410 c0 -29 35 -60 68 -60 16 0 52 7 82 16 51 15 54 15 79 -5
14 -11 43 -30 64 -40 75 -38 188 -143 172 -159 -3 -3 -9 -2 -13 4 -4 6 -21 19
-39 28 -18 9 -36 22 -40 29 -15 24 -80 67 -101 67 -39 0 -31 -17 26 -57 95
-66 137 -86 166 -79 23 6 26 11 26 49 0 40 -4 45 -52 82 -29 22 -64 45 -78 51
-14 6 -31 18 -39 27 -7 10 -22 17 -32 17 -11 0 -27 8 -36 18 -18 17 -77 19
-98 2 -16 -13 -125 -23 -125 -11 0 5 10 12 23 14 15 3 12 5 -11 6 -19 0 -31 5
-27 11 3 6 1 10 -4 10 -6 0 -11 -9 -11 -20z"/>
<path d="M990 1333 c0 -10 126 -169 141 -179 18 -11 -7 29 -32 51 -12 11 -42
46 -66 79 -23 32 -43 54 -43 49z"/>
<path d="M890 1294 c0 -26 38 -91 66 -113 27 -21 36 -24 101 -35 l31 -5 -15
39 c-21 52 -48 75 -121 104 -50 20 -62 22 -62 10z"/>
<path d="M1682 1243 l-2 -73 33 0 c21 0 36 -7 45 -20 7 -11 18 -20 26 -20 7 0
21 -9 31 -20 10 -11 24 -20 30 -20 7 0 18 -7 26 -16 8 -10 23 -14 41 -12 16 3
31 1 34 -4 8 -13 56 -9 84 7 14 8 45 15 70 15 l45 1 -42 19 c-57 25 -55 33 3
12 43 -16 47 -16 75 1 17 9 37 17 44 17 8 0 17 5 21 12 4 6 3 8 -3 5 -16 -10
-76 16 -118 51 -39 32 -81 50 -91 39 -6 -5 110 -88 141 -101 13 -5 15 -10 8
-13 -22 -8 -81 17 -124 53 -39 33 -69 44 -69 25 0 -5 -8 -11 -18 -13 -22 -6
-25 -37 -5 -60 19 -21 3 -31 -54 -35 l-42 -2 38 34 c21 19 38 40 38 47 0 7 4
20 7 29 9 22 -19 32 -46 18 -17 -9 -23 -8 -30 5 -11 20 -38 21 -64 1 -20 -15
-91 -20 -111 -7 -6 4 -13 28 -16 52 -2 33 -4 25 -5 -27z m158 -43 c14 -14 16
-21 7 -27 -13 -9 -87 -12 -87 -4 0 5 51 50 58 51 1 0 11 -9 22 -20z m20 10 c0
-5 -4 -10 -10 -10 -5 0 -10 5 -10 10 0 6 5 10 10 10 6 0 10 -4 10 -10z m84 1
c3 -4 -1 -17 -9 -27 -13 -18 -14 -18 -20 -2 -4 10 -11 15 -17 12 -5 -3 1 -14
12 -24 l21 -19 -21 -11 c-11 -6 -30 -8 -40 -5 -12 4 -20 2 -20 -4 0 -6 -10
-11 -22 -11 -20 1 -17 6 24 44 36 33 54 43 70 39 19 -4 20 -3 8 6 -9 7 -10 11
-3 11 6 0 14 -4 17 -9z m50 -66 c-7 -17 -20 -20 -28 -6 -7 10 3 21 20 21 8 0
11 -6 8 -15z m40 -20 c-4 -8 -13 -15 -22 -15 -13 0 -12 -3 4 -15 15 -11 16
-15 4 -16 -8 -1 -19 -1 -24 0 -4 1 -14 -4 -22 -10 -8 -7 -17 -9 -21 -5 -9 8
37 56 54 56 8 0 11 5 8 10 -3 6 1 10 9 10 10 0 13 -6 10 -15z"/>
<path d="M3057 1285 c-74 -30 -84 -39 -111 -96 l-23 -47 41 5 c80 10 134 56
156 133 10 35 12 35 -63 5z"/>
<path d="M1265 1183 c4 -10 11 -44 15 -76 9 -64 25 -89 73 -108 49 -19 61 -30
45 -41 -10 -7 -10 -8 2 -5 8 2 14 10 12 17 -2 8 -4 40 -6 72 -4 72 -25 104
-87 135 -54 27 -63 28 -54 6z"/>
<path d="M1450 1061 c0 -4 7 -28 16 -54 17 -51 68 -103 112 -113 33 -8 54 -23
46 -35 -10 -17 -62 -9 -108 17 -55 31 -94 29 -172 -6 l-49 -22 55 -26 c67 -32
124 -33 172 -4 26 16 51 22 96 22 33 0 63 -4 66 -9 9 -14 -85 -54 -131 -55
-24 -1 -43 -5 -43 -9 0 -19 64 -67 98 -74 114 -23 215 9 258 83 26 45 58 74
81 74 11 0 29 -36 25 -51 0 -3 10 -4 24 -1 13 2 32 -2 42 -9 12 -10 14 -10 6
0 -16 17 5 61 29 61 21 0 67 -43 67 -64 0 -21 63 -72 107 -87 77 -25 175 -13
223 27 40 35 38 49 -7 50 -40 0 -146 41 -139 53 8 13 -143 54 -172 46 -75 -18
-93 -18 -108 4 -8 11 -25 21 -38 21 -12 0 -28 6 -36 13 -12 10 -12 9 -1 -5 11
-15 11 -21 1 -33 -14 -17 -75 -20 -85 -5 -10 16 -61 12 -125 -10 -92 -31 -140
-8 -140 70 0 38 -20 68 -60 93 -34 22 -110 48 -110 38z"/>
<path d="M2505 1049 c-70 -27 -115 -77 -115 -128 0 -31 -6 -44 -26 -60 l-27
-21 65 0 c44 0 69 -5 77 -14 20 -24 92 -37 137 -25 47 13 94 37 94 47 0 4 -27
18 -60 31 -68 27 -117 24 -162 -9 -40 -30 -123 -25 -97 6 6 8 18 14 26 14 7 0
32 9 54 21 32 16 46 32 66 75 35 77 30 87 -32 63z"/>
<path d="M2000 1036 c0 -2 8 -10 18 -17 15 -13 16 -12 3 4 -13 16 -21 21 -21
13z"/>
<path d="M1151 1021 l-44 -6 50 -46 c57 -54 97 -66 158 -49 24 7 64 11 88 9
34 -3 43 -1 36 8 -6 7 -24 9 -44 6 -30 -5 -40 0 -81 36 -26 22 -54 41 -63 41
-9 0 -25 2 -36 4 -11 2 -40 1 -64 -3z"/>
<path d="M1969 1003 c-13 -16 -12 -17 4 -4 16 13 21 21 13 21 -2 0 -10 -8 -17
-17z"/>
<path d="M1325 995 c11 -9 29 -21 40 -26 l20 -10 -20 16 c-11 9 -29 21 -40 26
l-20 10 20 -16z"/>
<path d="M2645 975 c-22 -13 -37 -25 -33 -25 9 0 78 41 78 46 0 6 -3 5 -45
-21z"/>
<path d="M1898 973 c6 -2 18 -2 25 0 6 3 1 5 -13 5 -14 0 -19 -2 -12 -5z"/>
<path d="M2093 973 c9 -2 23 -2 30 0 6 3 -1 5 -18 5 -16 0 -22 -2 -12 -5z"/>
<path d="M2061 954 c0 -11 3 -14 6 -6 3 7 2 16 -1 19 -3 4 -6 -2 -5 -13z"/>
<path d="M2152 920 c0 -14 2 -19 5 -12 2 6 2 18 0 25 -3 6 -5 1 -5 -13z"/>
<path d="M1470 910 c8 -5 20 -10 25 -10 6 0 3 5 -5 10 -8 5 -19 10 -25 10 -5
0 -3 -5 5 -10z"/>
<path d="M2495 899 c-22 -10 -29 -16 -15 -13 28 7 80 33 65 33 -5 0 -28 -9
-50 -20z"/>
<path d="M1520 890 c8 -5 20 -10 25 -10 6 0 3 5 -5 10 -8 5 -19 10 -25 10 -5
0 -3 -5 5 -10z"/>
<path d="M1570 870 c8 -5 22 -9 30 -9 10 0 8 3 -5 9 -27 12 -43 12 -25 0z"/>
<path d="M2420 870 c-8 -5 -10 -10 -5 -10 6 0 17 5 25 10 8 5 11 10 5 10 -5 0
-17 -5 -25 -10z"/>
<path d="M2031 709 c-20 -25 -25 -28 -40 -17 -14 12 -15 11 -2 -5 13 -17 15
-16 41 8 14 14 30 22 34 18 4 -4 4 0 0 10 -8 21 -4 22 -33 -14z"/>
<path d="M1945 720 c-3 -6 1 -7 9 -4 18 7 21 14 7 14 -6 0 -13 -4 -16 -10z"/>
<path d="M2150 690 c0 -5 5 -10 11 -10 5 0 7 5 4 10 -3 6 -8 10 -11 10 -2 0
-4 -4 -4 -10z"/>
</g>
</svg>
