<?xml version="1.0" encoding="UTF-8"?>
<svg version="1.1" xmlns="http://www.w3.org/2000/svg" width="491" height="125">
<path d="M0 0 C0.95777344 0.51949219 1.91554688 1.03898438 2.90234375 1.57421875 C12.71462652 7.34852507 20.19059006 14.63980863 25 25 C25.44279297 25.94552734 25.44279297 25.94552734 25.89453125 26.91015625 C26.64261189 28.58688873 27.32366692 30.29306414 28 32 C28.34933594 32.80824219 28.69867188 33.61648437 29.05859375 34.44921875 C32.7402505 48.33563361 31.36258321 65.5314946 24.31640625 77.97265625 C16.10574727 91.37457059 5.03083205 100.81764266 -10 106 C-27.54840944 107.96624632 -44.49989255 107.92831501 -58.73486328 96.62207031 C-70.68916026 86.8073876 -78.98053125 75.54990934 -81 60 C-81.16088034 56.87376177 -81.18503936 53.75493716 -81.1875 50.625 C-81.19974609 49.81289063 -81.21199219 49.00078125 -81.22460938 48.1640625 C-81.25859763 34.02494668 -75.515182 20.50149384 -65.6875 10.3125 C-63 8 -63 8 -61 8 C-61 7.34 -61 6.68 -61 6 C-43.84849388 -6.34665157 -19.07585176 -10.71829509 0 0 Z " fill="#F8F9F7" transform="translate(86,10)"/>
<path d="M0 0 C43.85714286 0 43.85714286 0 56 10.625 C56.66 11.40875 57.32 12.1925 58 13 C58.66 13.556875 59.32 14.11375 60 14.6875 C65.03451675 20.50865999 67.80261361 27.34422792 68 35 C68.03867187 35.85464844 68.07734375 36.70929687 68.1171875 37.58984375 C68.4180285 49.50648988 65.69777307 57.78556278 59.25 67.6875 C53.06653235 74.04273064 46.29207224 76.6831711 38 80 C25.46 80 12.92 80 0 80 C0 53.6 0 27.2 0 0 Z M15 14 C15 31.49 15 48.98 15 67 C33.06617825 66.98749688 33.06617825 66.98749688 46.9375 58.125 C51.80774704 50.74583782 53.77377251 43.69903284 52.375 35 C50.56058804 27.21712764 46.750081 21.70312232 40.1484375 17.1875 C32.26102342 12.82791112 23.94975817 14 15 14 Z " fill="#006C20" transform="translate(302,19)"/>
<path d="M0 0 C38.33160622 0 38.33160622 0 47.4375 4.875 C48.38496094 5.36742187 49.33242188 5.85984375 50.30859375 6.3671875 C54.81570474 9.10154511 58.24245507 11.87842132 61.125 16.3125 C61.84042969 17.38951172 61.84042969 17.38951172 62.5703125 18.48828125 C66.81179652 25.93985017 67.5809177 31.62898759 67.5625 40.1875 C67.56080811 41.30286133 67.55911621 42.41822266 67.55737305 43.56738281 C67.3335553 53.7926352 65.18574816 60.08174591 58.5 67.9375 C57.675 68.618125 56.85 69.29875 56 70 C55.154375 70.825 54.30875 71.65 53.4375 72.5 C36.34925794 84.92781241 22.59964858 80 0 80 C0 53.6 0 27.2 0 0 Z M15 14 C15 31.16 15 48.32 15 66 C32.24530996 66.94947686 32.24530996 66.94947686 45.59765625 59.578125 C52.02117242 52.61151271 52.55496345 45.79849884 52.34765625 36.66796875 C51.67242536 29.54390353 49.0009576 24.05309036 43.70703125 19.21484375 C35.2566721 13.20097259 24.93142402 14 15 14 Z " fill="#006C20" transform="translate(387,19)"/>
<path d="M0 0 C0.8559375 -0.02449219 1.711875 -0.04898437 2.59375 -0.07421875 C11.94667417 -0.11673204 18.80129841 3.2536554 25.58203125 9.57421875 C27.82818899 11.99922745 29.20462737 14.23888212 30.25 17.375 C30.08203125 19.41015625 30.08203125 19.41015625 29.25 21.375 C27.2890625 22.640625 27.2890625 22.640625 24.875 23.625 C24.08351562 23.96015625 23.29203125 24.2953125 22.4765625 24.640625 C20.25 25.375 20.25 25.375 17.25 25.375 C15.8959068 23.38899663 14.56542376 21.38682457 13.25 19.375 C8.32686098 14.82109641 4.89791462 14.07367073 -1.78125 14.1484375 C-4.65459787 14.47910055 -6.50419873 15.60558082 -8.75 17.375 C-9.95272819 19.78045638 -9.85071472 21.32496953 -9.8125 24 C-9.80347656 24.81726563 -9.79445312 25.63453125 -9.78515625 26.4765625 C-9.77355469 27.10304688 -9.76195312 27.72953125 -9.75 28.375 C-8.615625 28.74625 -7.48125 29.1175 -6.3125 29.5 C-4.45801322 30.12404952 -2.6039124 30.74924619 -0.75 31.375 C-0.1012793 31.58962891 0.54744141 31.80425781 1.21582031 32.02539062 C22.88206336 39.21775114 22.88206336 39.21775114 28.25 46.375 C31.39157533 52.73669005 31.78995779 58.48633387 30.25 65.375 C27.83308289 71.47483842 24.39262817 76.30557555 18.56445312 79.52832031 C13.53989193 81.36641928 8.15775759 80.98620221 2.875 80.9375 C1.69421875 80.96134766 0.5134375 80.98519531 -0.703125 81.00976562 C-9.15950329 80.99564027 -15.43631294 79.60458732 -21.59082031 73.57006836 C-25.01952258 69.78179977 -28.58841238 65.79881426 -28.9375 60.5625 C-28.8446875 59.4796875 -28.8446875 59.4796875 -28.75 58.375 C-20.9202895 54.40044108 -20.9202895 54.40044108 -16.875 54.3125 C-13.99084139 55.75457931 -13.33337299 57.58826353 -11.75 60.375 C-6.28925963 65.47960513 -2.1040266 67.78663099 5.3203125 67.5625 C7.98151392 67.30392172 9.94231499 66.73246177 12.25 65.375 C14.36285867 62.4572428 14.69320925 59.920674 14.25 56.375 C12.06786995 52.64547616 10.02763031 51.61971761 5.953125 50.375 C4.39078125 49.88 4.39078125 49.88 2.796875 49.375 C1.70890625 49.045 0.6209375 48.715 -0.5 48.375 C-19.87948942 42.41208018 -19.87948942 42.41208018 -24.75 33.375 C-27.40854274 26.2855527 -27.54063906 19.76636704 -24.99609375 12.65625 C-22.24215345 7.61455366 -17.55148479 3.91631869 -12.5703125 1.17578125 C-8.38217888 -0.01337026 -4.33357636 0.00641062 0 0 Z " fill="#006C20" transform="translate(188.75,18.625)"/>
<path d="M0 0 C0.95777344 0.51949219 1.91554688 1.03898438 2.90234375 1.57421875 C12.71462652 7.34852507 20.19059006 14.63980863 25 25 C25.44279297 25.94552734 25.44279297 25.94552734 25.89453125 26.91015625 C29.66123193 35.35276122 30.18798692 41.78864094 30 51 C25.71 51 21.42 51 17 51 C16.62875 48.3084375 16.62875 48.3084375 16.25 45.5625 C14.06333123 32.63989496 7.51593356 22.79766394 -3 15 C-12.91418671 8.80845538 -23.9269307 7.50813456 -35.33984375 9.6171875 C-46.56181485 12.63284204 -56.0715471 18.86542761 -62 29 C-66.36425962 36.69393998 -67.68858095 43.17646019 -68 52 C-72.29 52 -76.58 52 -81 52 C-81.38286563 36.68537488 -77.2936386 23.82042207 -67.28125 11.96484375 C-65.6875 10.3125 -65.6875 10.3125 -63 8 C-62.34 8 -61.68 8 -61 8 C-61 7.34 -61 6.68 -61 6 C-43.84849388 -6.34665157 -19.07585176 -10.71829509 0 0 Z " fill="#18A452" transform="translate(86,10)"/>
<path d="M0 0 C4.29 0 8.58 0 13 0 C13.76463606 16.05735716 8.3181567 27.84002263 -2 40 C-17.16172398 53.90074892 -32.58306429 56.24191299 -52.32872009 55.47853088 C-66.49849297 54.66029508 -76.62427209 45.98783754 -86 36 C-94.74984877 25.54058931 -98.23343227 14.53907159 -98 1 C-93.71 1 -89.42 1 -85 1 C-84.71125 2.69125 -84.4225 4.3825 -84.125 6.125 C-83.54741308 9.34298426 -82.91102482 12.26692553 -81.875 15.375 C-80.97300785 18.08097645 -80.83348235 20.16919988 -81 23 C-81.66 23 -82.32 23 -83 23 C-85.29648649 20.4385343 -86 19.52032428 -86 16 C-87.65 16.33 -89.3 16.66 -91 17 C-90.16666667 19.16666667 -90.16666667 19.16666667 -88 20 C-88.33 20.66 -88.66 21.32 -89 22 C-88.01 22 -87.02 22 -86 22 C-86 22.99 -86 23.98 -86 25 C-86.66 25 -87.32 25 -88 25 C-88 25.66 -88 26.32 -88 27 C-87.34 27 -86.68 27 -86 27 C-85.731875 27.61875 -85.46375 28.2375 -85.1875 28.875 C-84.04443152 31.2995233 -84.04443152 31.2995233 -81 33 C-81.33 33.66 -81.66 34.32 -82 35 C-81.030625 35.28875 -80.06125 35.5775 -79.0625 35.875 C-76 37 -76 37 -75 39 C-74.34 37.35 -73.68 35.7 -73 34 C-74.98 34.495 -74.98 34.495 -77 35 C-77 33.68 -77 32.36 -77 31 C-77.495 30.505 -77.99 30.01 -78.5 29.5 C-78.995 29.005 -79.49 28.51 -80 28 C-80 26.68 -80 25.36 -80 24 C-76.68949622 25.4250513 -74.72960196 27.16230225 -72.3125 29.8125 C-64.72557557 37.5827516 -55.80726681 41.1285199 -44.98339844 41.53295898 C-31.60648563 41.68817633 -21.59574286 38.45386574 -11.67578125 28.9375 C-4.45019083 20.58343742 -1.17798341 10.83744739 0 0 Z " fill="#ED1F1F" transform="translate(103,61)"/>
<path d="M0 0 C1.03769531 -0.01417969 2.07539062 -0.02835938 3.14453125 -0.04296875 C6.22520533 0.19035573 8.40511592 0.88631114 11.1875 2.1875 C8.64037926 4.18880916 6.2347625 6.04477656 3.1875 7.1875 C0.9375 6.8125 0.9375 6.8125 -0.8125 6.1875 C-0.8125 8.1675 -0.8125 10.1475 -0.8125 12.1875 C0.0228125 12.2803125 0.0228125 12.2803125 0.875 12.375 C6.81754948 14.46292279 11.14769758 21.495741 15.1875 26.1875 C14.8575 26.8475 14.5275 27.5075 14.1875 28.1875 C13.60355469 27.5378125 13.60355469 27.5378125 13.0078125 26.875 C9.48261078 23.36604345 7.06799377 21.74756511 2 21.6875 C-1.420124 21.81676453 -3.89390222 22.35763757 -6.8125 24.1875 C-7.48406616 26.12368425 -7.48406616 26.12368425 -7.8125 28.1875 C-8.4725 29.1775 -9.1325 30.1675 -9.8125 31.1875 C-9.8125 30.5275 -9.8125 29.8675 -9.8125 29.1875 C-10.4725 29.1875 -11.1325 29.1875 -11.8125 29.1875 C-12.4725 33.1475 -13.1325 37.1075 -13.8125 41.1875 C-10.8425 40.1975 -7.8725 39.2075 -4.8125 38.1875 C-5.4725 36.5375 -6.1325 34.8875 -6.8125 33.1875 C-6.1525 33.5175 -5.4925 33.8475 -4.8125 34.1875 C-4.8125 34.8475 -4.8125 35.5075 -4.8125 36.1875 C-0.235722 37.50772442 1.99194238 37.74445489 6.390625 35.6953125 C9.37853453 33.93230427 12.3033464 32.11507599 15.1875 30.1875 C15.1875 31.1775 15.1875 32.1675 15.1875 33.1875 C13.21875 34.79296875 13.21875 34.79296875 10.6875 36.375 C9.8521875 36.90480469 9.016875 37.43460938 8.15625 37.98046875 C7.5065625 38.37878906 6.856875 38.77710938 6.1875 39.1875 C7.62405854 39.26881463 9.0619483 39.32683559 10.5 39.375 C11.30050781 39.40980469 12.10101563 39.44460937 12.92578125 39.48046875 C15.21873684 39.35262211 15.21873684 39.35262211 16.94140625 38.0234375 C18.62898213 35.53704044 18.66155793 33.60809195 18.8125 30.625 C19.10678251 25.34893498 19.10678251 25.34893498 20.1875 23.1875 C18.2075 22.8575 16.2275 22.5275 14.1875 22.1875 C14.1875 21.8575 14.1875 21.5275 14.1875 21.1875 C16.4975 21.1875 18.8075 21.1875 21.1875 21.1875 C21.1875 19.8675 21.1875 18.5475 21.1875 17.1875 C20.4140625 17.435 20.4140625 17.435 19.625 17.6875 C16.23200666 18.38349863 13.65790154 18.59924256 10.1875 18.1875 C7.57942233 16.4470902 5.37761336 14.42421151 3.1875 12.1875 C3.921875 8.40625 3.921875 8.40625 6.3125 6.4375 C10.16265674 4.76351881 12.00103482 4.43256366 16.1875 5.1875 C20.47087916 7.16010882 23.45970622 9.31285382 26.1875 13.1875 C27.48897937 20.39956524 27.25971199 27.43332403 24.1875 34.1875 C23.50070058 36.51498694 22.82988957 38.84736656 22.1875 41.1875 C21.1975 41.1875 20.2075 41.1875 19.1875 41.1875 C17.31089166 42.193954 17.31089166 42.193954 15.5 43.5625 C14.87738281 44.00335938 14.25476563 44.44421875 13.61328125 44.8984375 C13.14277344 45.32382813 12.67226562 45.74921875 12.1875 46.1875 C12.1875 46.8475 12.1875 47.5075 12.1875 48.1875 C6.05871281 49.50081154 0.31736831 48.91952991 -5.8984375 48.34375 C-6.86007813 48.2921875 -7.82171875 48.240625 -8.8125 48.1875 C-9.1425 48.5175 -9.4725 48.8475 -9.8125 49.1875 C-8.884375 49.744375 -7.95625 50.30125 -7 50.875 C-3.83891452 53.16833652 -2.42824864 54.68671129 -0.8125 58.1875 C-0.8125 59.1775 -0.8125 60.1675 -0.8125 61.1875 C-0.1525 61.1875 0.5075 61.1875 1.1875 61.1875 C1.1875 63.4975 1.1875 65.8075 1.1875 68.1875 C0.8575 67.5275 0.5275 66.8675 0.1875 66.1875 C-0.4725 66.1875 -1.1325 66.1875 -1.8125 66.1875 C-2.1425 64.8675 -2.4725 63.5475 -2.8125 62.1875 C-3.4725 63.1775 -4.1325 64.1675 -4.8125 65.1875 C-6.8125 64.1875 -6.8125 64.1875 -7.8125 62.1875 C-7.4825 63.5075 -7.1525 64.8275 -6.8125 66.1875 C-7.4725 66.1875 -8.1325 66.1875 -8.8125 66.1875 C-8.8125 66.8475 -8.8125 67.5075 -8.8125 68.1875 C-9.8025 68.1875 -10.7925 68.1875 -11.8125 68.1875 C-12.03164063 67.27097656 -12.25078125 66.35445313 -12.4765625 65.41015625 C-14.10106026 61.49141166 -15.53136318 60.65890989 -19.1875 58.625 C-24.87276347 55.42991258 -28.75291503 51.63213008 -31.28515625 45.5 C-32.49607711 40.18988779 -32.01508897 34.59737592 -31.8125 29.1875 C-30.8225 29.5175 -29.8325 29.8475 -28.8125 30.1875 C-28.64302421 31.60383336 -28.47704493 33.02058533 -28.3125 34.4375 C-28.2196875 35.22640625 -28.126875 36.0153125 -28.03125 36.828125 C-27.8125 39.1875 -27.8125 39.1875 -27.8125 43.1875 C-27.4825 43.5175 -27.1525 43.8475 -26.8125 44.1875 C-27.1425 42.8675 -27.4725 41.5475 -27.8125 40.1875 C-24.42762277 41.25131856 -22.80115792 42.19940919 -20.3125 44.8125 C-18.06485376 47.46082457 -18.06485376 47.46082457 -15.15625 47.3359375 C-14.3828125 47.28695312 -13.609375 47.23796875 -12.8125 47.1875 C-13.50085937 46.3521875 -13.50085937 46.3521875 -14.203125 45.5 C-20.82548214 37.26379112 -24.99344069 29.93163091 -25.8125 19.1875 C-25.4765625 16.421875 -25.4765625 16.421875 -24.8125 14.1875 C-22.875 13.125 -22.875 13.125 -20.8125 12.1875 C-20.379375 11.259375 -20.379375 11.259375 -19.9375 10.3125 C-18.29427754 7.20863536 -15.75824515 5.98056226 -12.8125 4.1875 C-13.1425 5.13625 -13.4725 6.085 -13.8125 7.0625 C-14.91409191 9.95812452 -14.91409191 9.95812452 -14.8125 12.1875 C-13.8225 12.1875 -12.8325 12.1875 -11.8125 12.1875 C-11.895 11.115 -11.9775 10.0425 -12.0625 8.9375 C-11.8125 5.1875 -11.8125 5.1875 -9.9375 2.8125 C-6.45555324 0.14983483 -4.3531513 0.02683817 0 0 Z " fill="#BCEABE" transform="translate(57.8125,28.8125)"/>
<path d="M0 0 C5.28 0 10.56 0 16 0 C16 21.78 16 43.56 16 66 C26.89 66 37.78 66 49 66 C52.30823887 69.30823887 50 75.32144372 50 80 C33.5 80 17 80 0 80 C0 53.6 0 27.2 0 0 Z " fill="#006C20" transform="translate(238,19)"/>
<path d="M0 0 C0.495 0.99 0.495 0.99 1 2 C0.01 2.33 -0.98 2.66 -2 3 C-0.02 3.66 1.96 4.32 4 5 C4 5.99 4 6.98 4 8 C4.66 8.33 5.32 8.66 6 9 C3.03824877 8.38722388 1.61941217 7.74627478 -1 6 C-1.33 7.32 -1.66 8.64 -2 10 C-2.495 8.515 -2.495 8.515 -3 7 C-3.66 7 -4.32 7 -5 7 C-4.505 9.475 -4.505 9.475 -4 12 C-3.2575 11.649375 -2.515 11.29875 -1.75 10.9375 C2.8132587 9.79668532 6.47418749 10.28740733 11.09765625 10.90625 C14.27054861 11.00873912 16.16810563 10.37178003 19 9 C19 9.66 19 10.32 19 11 C20.65 11.66 22.3 12.32 24 13 C24 13.33 24 13.66 24 14 C22.77925781 13.95359375 21.55851562 13.9071875 20.30078125 13.859375 C4.89765517 13.44511 -7.11256929 15.32677143 -19 26 C-27.45298594 34.77602999 -30.578491 45.05724495 -31 57 C-35.29 57 -39.58 57 -44 57 C-44.38286563 41.68537488 -40.2936386 28.82042207 -30.28125 16.96484375 C-28.6875 15.3125 -28.6875 15.3125 -26 13 C-25.34 13 -24.68 13 -24 13 C-24 12.34 -24 11.68 -24 11 C-16.65070229 5.7095481 -8.65273194 2.47001745 0 0 Z " fill="#4EBA7B" transform="translate(49,5)"/>
<path d="M0 0 C4.29 0 8.58 0 13 0 C13.28875 1.69125 13.5775 3.3825 13.875 5.125 C14.45258692 8.34298426 15.08897518 11.26692553 16.125 14.375 C17.02699215 17.08097645 17.16651765 19.16919988 17 22 C16.34 22 15.68 22 15 22 C12.70351351 19.4385343 12 18.52032428 12 15 C10.35 15.33 8.7 15.66 7 16 C7.83333333 18.16666667 7.83333333 18.16666667 10 19 C9.67 19.66 9.34 20.32 9 21 C9.99 21 10.98 21 12 21 C12 21.99 12 22.98 12 24 C11.34 24 10.68 24 10 24 C10 24.66 10 25.32 10 26 C10.66 26 11.32 26 12 26 C12.268125 26.61875 12.53625 27.2375 12.8125 27.875 C13.95556848 30.2995233 13.95556848 30.2995233 17 32 C16.67 32.66 16.34 33.32 16 34 C16.969375 34.28875 17.93875 34.5775 18.9375 34.875 C22 36 22 36 23 38 C23.66 36.35 24.32 34.7 25 33 C23.02 33.495 23.02 33.495 21 34 C21 32.68 21 31.36 21 30 C20.505 29.505 20.01 29.01 19.5 28.5 C19.005 28.005 18.51 27.51 18 27 C18 25.68 18 24.36 18 23 C21.3380049 24.44225601 23.43843466 26.25221856 25.9375 28.875 C28.80961274 31.82763927 31.69665371 34.52249028 35 37 C31.94736336 37.98120464 30.05263664 37.98120464 27 37 C26.4465236 39.07553648 26 40.84365964 26 43 C27.485 42.505 27.485 42.505 29 42 C31.1875 42.9375 31.1875 42.9375 33 44 C33.33 43.01 33.66 42.02 34 41 C36 44 36 44 36 47 C38.97 47 41.94 47 45 47 C45 47.66 45 48.32 45 49 C45.66 49 46.32 49 47 49 C47.495 48.01 47.495 48.01 48 47 C48.33 47.99 48.66 48.98 49 50 C51.97 49.505 51.97 49.505 55 49 C55.33 47.68 55.66 46.36 56 45 C56.33 45.99 56.66 46.98 57 48 C58.58323688 48.027193 60.16661062 48.04648306 61.75 48.0625 C62.63171875 48.07410156 63.5134375 48.08570313 64.421875 48.09765625 C66.79518377 48.00775819 68.72008204 47.60829744 71 47 C71.99 47 72.98 47 74 47 C74.495 46.01 74.495 46.01 75 45 C76.9812585 44.27954236 78.98504093 43.61998741 81 43 C84.76756732 41.89333693 84.76756732 41.89333693 87 39 C88.485 39.99 88.485 39.99 90 41 C89.890625 42.7734375 89.890625 42.7734375 89 45 C86.234375 46.8515625 86.234375 46.8515625 82.75 48.625 C81.61046875 49.21539062 80.4709375 49.80578125 79.296875 50.4140625 C67.26816018 56.2003874 47.77012802 56.91515587 34.8203125 52.59765625 C22.07871768 47.11713031 9.974448 35.36858862 4 23 C0.96476496 15.30447045 -0.14210753 8.24223683 0 0 Z " fill="#F10909" transform="translate(5,62)"/>
<path d="M0 0 C4.28337916 1.97260882 7.27220622 4.12535382 10 8 C11.30147937 15.21206524 11.07221199 22.24582403 8 29 C7.31320058 31.32748694 6.64238957 33.65986656 6 36 C5.01 36 4.02 36 3 36 C1.12339166 37.006454 1.12339166 37.006454 -0.6875 38.375 C-1.31011719 38.81585938 -1.93273437 39.25671875 -2.57421875 39.7109375 C-3.27998047 40.34902344 -3.27998047 40.34902344 -4 41 C-4 41.66 -4 42.32 -4 43 C-11.41872726 44.48374545 -19.44719264 44.7930105 -26.1875 40.9375 C-27.5796875 39.9784375 -27.5796875 39.9784375 -29 39 C-29 38.34 -29 37.68 -29 37 C-25.37 37.33 -21.74 37.66 -18 38 C-18.33 36.35 -18.66 34.7 -19 33 C-19.99 32.67 -20.98 32.34 -22 32 C-22.6875 29.9375 -22.6875 29.9375 -23 28 C-22.34 28.33 -21.68 28.66 -21 29 C-21 29.66 -21 30.32 -21 31 C-16.423222 32.32022442 -14.19555762 32.55695489 -9.796875 30.5078125 C-6.80896547 28.74480427 -3.8841536 26.92757599 -1 25 C-1 25.99 -1 26.98 -1 28 C-2.96875 29.60546875 -2.96875 29.60546875 -5.5 31.1875 C-6.3353125 31.71730469 -7.170625 32.24710938 -8.03125 32.79296875 C-8.6809375 33.19128906 -9.330625 33.58960938 -10 34 C-8.56344146 34.08131463 -7.1255517 34.13933559 -5.6875 34.1875 C-4.88699219 34.22230469 -4.08648437 34.25710937 -3.26171875 34.29296875 C-0.96876316 34.16512211 -0.96876316 34.16512211 0.75390625 32.8359375 C2.44148213 30.34954044 2.47405793 28.42059195 2.625 25.4375 C2.91928251 20.16143498 2.91928251 20.16143498 4 18 C2.02 17.67 0.04 17.34 -2 17 C-2 16.67 -2 16.34 -2 16 C0.31 16 2.62 16 5 16 C5 14.68 5 13.36 5 12 C4.484375 12.165 3.96875 12.33 3.4375 12.5 C0.04450666 13.19599863 -2.52959846 13.41174256 -6 13 C-8.60807767 11.2595902 -10.80988664 9.23671151 -13 7 C-12.265625 3.21875 -12.265625 3.21875 -9.875 1.25 C-6.02484326 -0.42398119 -4.18646518 -0.75493634 0 0 Z " fill="#50A151" transform="translate(74,34)"/>
<path d="M0 0 C0.66 0 1.32 0 2 0 C3.66666667 1.66666667 5.33333333 3.33333333 7 5 C9.44338332 6.58819916 11.89453583 7.94726791 14.5 9.25 C20.93788422 13.75651896 23.47170725 20.85674495 26 28 C26.36480469 28.95003906 26.72960937 29.90007813 27.10546875 30.87890625 C28.63735801 36.22379496 28.11290149 41.46782722 28 47 C23.71 47 19.42 47 15 47 C14.7525 45.205625 14.505 43.41125 14.25 41.5625 C13.30607235 35.8517377 11.64253961 31.1199205 9 26 C8.33333333 24.66666667 7.66666667 23.33333333 7 22 C9.1385485 19.8614515 10.13275314 19.57344937 13 19 C12.67 18.01 12.34 17.02 12 16 C11.34 15.67 10.68 15.34 10 15 C9.67 14.01 9.34 13.02 9 12 C6.98491642 11.26676204 6.98491642 11.26676204 5 11 C5 10.01 5 9.02 5 8 C2.67881567 6.17394457 2.67881567 6.17394457 0 5 C-0.99 5.495 -0.99 5.495 -2 6 C-2 3 -2 3 0 1 C0 0.67 0 0.34 0 0 Z " fill="#35B26A" transform="translate(88,14)"/>
<path d="M0 0 C0.70511719 0.16371094 1.41023438 0.32742187 2.13671875 0.49609375 C5.09658688 1.01699824 7.81061273 1.09866732 10.8125 1.0625 C11.78832031 1.05347656 12.76414062 1.04445312 13.76953125 1.03515625 C14.50558594 1.02355469 15.24164063 1.01195312 16 1 C16 2.32 16 3.64 16 5 C14.35 5.33 12.7 5.66 11 6 C12.32 6.33 13.64 6.66 15 7 C14.93976506 9.08412907 14.85091679 11.16744435 14.75 13.25 C14.70359375 14.41015625 14.6571875 15.5703125 14.609375 16.765625 C13.89847476 20.53886476 13.11230415 21.79545123 10 24 C7.640625 24.390625 7.640625 24.390625 5.25 24.25 C4.45078125 24.21390625 3.6515625 24.1778125 2.828125 24.140625 C2.22484375 24.09421875 1.6215625 24.0478125 1 24 C0.67 23.34 0.34 22.68 0 22 C1.28813342 21.16121545 2.58063256 20.32913217 3.875 19.5 C4.95394531 18.80390625 4.95394531 18.80390625 6.0546875 18.09375 C8 17 8 17 10 17 C9.67 16.34 9.34 15.68 9 15 C8.27554688 15.51691406 7.55109375 16.03382812 6.8046875 16.56640625 C5.83789062 17.22511719 4.87109375 17.88382813 3.875 18.5625 C2.92367187 19.22378906 1.97234375 19.88507813 0.9921875 20.56640625 C-2.60680963 22.29072994 -4.2222939 22.12494018 -8 21 C-8.99 20.34 -9.98 19.68 -11 19 C-10.01 20.32 -9.02 21.64 -8 23 C-11.8610854 24.43668294 -14.896427 25.11185208 -19 25 C-18.85904936 23.3745692 -18.71207913 21.74965949 -18.5625 20.125 C-18.48128906 19.22007813 -18.40007813 18.31515625 -18.31640625 17.3828125 C-18 15 -18 15 -17 13 C-14.9375 11.875 -14.9375 11.875 -13 11 C-13 9.68 -13 8.36 -13 7 C-8.27000193 4.47733436 -3.2207778 4.02718426 2 5 C4.73251454 6.66664007 6.86573488 8.62545337 9 11 C8.06558465 9.72689688 7.12732889 8.456612 6.1875 7.1875 C5.66542969 6.47980469 5.14335938 5.77210937 4.60546875 5.04296875 C3.16871123 3.21468607 1.68184237 1.60103312 0 0 Z " fill="#BEE4BE" transform="translate(63,45)"/>
<path d="M0 0 C0.99 0.33 1.98 0.66 3 1 C3.16947579 2.41633336 3.33545507 3.83308533 3.5 5.25 C3.5928125 6.03890625 3.685625 6.8278125 3.78125 7.640625 C4 10 4 10 4 14 C4.33 14.33 4.66 14.66 5 15 C4.67 13.68 4.34 12.36 4 11 C7.49504927 12.02795567 9.40493098 13.31430642 11.75 16 C14.83037081 19.2952804 17.53986872 19.78448968 21.8828125 20.515625 C25.84160121 21.42132574 28.18557128 23.72018343 30.3125 27.0625 C31 29 31 29 31 32 C31.66 32 32.32 32 33 32 C33 34.31 33 36.62 33 39 C32.67 38.34 32.34 37.68 32 37 C31.34 37 30.68 37 30 37 C29.67 35.68 29.34 34.36 29 33 C28.34 33.99 27.68 34.98 27 36 C25 35 25 35 24 33 C24.33 34.32 24.66 35.64 25 37 C24.34 37 23.68 37 23 37 C23 37.66 23 38.32 23 39 C22.01 39 21.02 39 20 39 C19.78085937 38.08347656 19.56171875 37.16695312 19.3359375 36.22265625 C17.71143974 32.30391166 16.28113682 31.47140989 12.625 29.4375 C6.93973653 26.24241258 3.05958497 22.44463008 0.52734375 16.3125 C-0.68357711 11.00238779 -0.20258897 5.40987592 0 0 Z " fill="#608060" transform="translate(26,58)"/>
<path d="M0 0 C1.23556641 0.13341797 1.23556641 0.13341797 2.49609375 0.26953125 C3.70458984 0.38361328 3.70458984 0.38361328 4.9375 0.5 C7.5288153 1.00339763 9.67316414 1.70048083 12.1328125 2.61328125 C17.20171692 4.35814093 21.86265442 4.49469954 27.18359375 4.39453125 C28.055 4.39775391 28.92640625 4.40097656 29.82421875 4.40429688 C34.34733347 4.36637442 37.78921484 4.06412551 41.93359375 2.08203125 C44.74609375 1.95703125 44.74609375 1.95703125 46.93359375 2.08203125 C47.42859375 3.56703125 47.42859375 3.56703125 47.93359375 5.08203125 C49.43344984 6.74913471 49.43344984 6.74913471 50.93359375 8.08203125 C48.12331987 9.95554717 46.69490717 10.50261085 43.49609375 11.14453125 C40.19094763 11.8169129 40.19094763 11.8169129 36.921875 12.640625 C34.72580707 13.12816071 32.80455386 13.14507574 30.55859375 13.08203125 C26.90346218 13.03369893 23.5276099 13.34479717 19.93359375 14.08203125 C19.60359375 13.42203125 19.27359375 12.76203125 18.93359375 12.08203125 C17.94359375 12.41203125 16.95359375 12.74203125 15.93359375 13.08203125 C15.93359375 12.42203125 15.93359375 11.76203125 15.93359375 11.08203125 C14.94359375 11.41203125 13.95359375 11.74203125 12.93359375 12.08203125 C9.87109375 11.89453125 9.87109375 11.89453125 6.93359375 11.08203125 C5.55859375 9.01953125 5.55859375 9.01953125 4.93359375 7.08203125 C4.06734375 7.36046875 4.06734375 7.36046875 3.18359375 7.64453125 C0.7266685 8.12226671 -0.71038159 7.83932489 -3.06640625 7.08203125 C-3.69140625 4.70703125 -3.69140625 4.70703125 -4.06640625 2.08203125 C-2.06640625 0.08203125 -2.06640625 0.08203125 0 0 Z " fill="#EA2424" transform="translate(34.06640625,97.91796875)"/>
<path d="M0 0 C0.66 0 1.32 0 2 0 C2.57895111 8.92871263 2.83382809 16.75622232 -3 24 C-6.147893 26.68511713 -9.47941321 28.84185167 -13 31 C-16.32301502 33.12626324 -16.32301502 33.12626324 -17.75 36.6875 C-17.8325 37.450625 -17.915 38.21375 -18 39 C-19.32 38.67 -20.64 38.34 -22 38 C-22 36.35 -22 34.7 -22 33 C-25.96 32.505 -25.96 32.505 -30 32 C-28.14000886 26.73002509 -26.10548359 22.76776756 -21 20 C-18.71688473 19.40808123 -16.43970963 19.00038687 -14.1171875 18.59375 C-10.81541342 17.66779122 -9.13194841 15.58417989 -7 13 C-6.34 12.34 -5.68 11.68 -5 11 C-4.01 11 -3.02 11 -2 11 C-2 11.99 -2 12.98 -2 14 C-2 12.68 -2 11.36 -2 10 C-2.02320312 9.31679687 -2.04640625 8.63359375 -2.0703125 7.9296875 C-2.1229057 5.95368583 -2.06373141 3.97567379 -2 2 C-1.34 1.34 -0.68 0.68 0 0 Z " fill="#608061" transform="translate(90,58)"/>
<path d="M0 0 C4.29 0 8.58 0 13 0 C13.36873129 8.01990555 13.26664129 14.05502914 9 21 C8.34 21.66 7.68 22.32 7 23 C6.34 23 5.68 23 5 23 C5.99 19.37 6.98 15.74 8 12 C6.35 12 4.7 12 3 12 C2.73067479 16.65052872 2.73067479 16.65052872 4 21 C2.35 20.67 0.7 20.34 -1 20 C-1 21.32 -1 22.64 -1 24 C-1.66 24 -2.32 24 -3 24 C-3.21081851 27.89459074 -3.21081851 27.89459074 -2 31 C-2.99 31 -3.98 31 -5 31 C-5.66 31.33 -6.32 31.66 -7 32 C-7.99 31.67 -8.98 31.34 -10 31 C-10 31.66 -10 32.32 -10 33 C-10.66 33 -11.32 33 -12 33 C-12 33.66 -12 34.32 -12 35 C-13.32 35 -14.64 35 -16 35 C-14.70987334 32.17517292 -13.32286866 30.1174188 -11.1875 27.875 C-4.03029077 19.61802447 -1.97009228 10.57628488 0 0 Z " fill="#EC1513" transform="translate(103,61)"/>
<path d="M0 0 C1.03769531 -0.01417969 2.07539062 -0.02835938 3.14453125 -0.04296875 C6.22520533 0.19035573 8.40511592 0.88631114 11.1875 2.1875 C8.64037926 4.18880916 6.2347625 6.04477656 3.1875 7.1875 C0.9375 6.8125 0.9375 6.8125 -0.8125 6.1875 C-0.8125 8.1675 -0.8125 10.1475 -0.8125 12.1875 C-0.255625 12.249375 0.30125 12.31125 0.875 12.375 C6.81754948 14.46292279 11.14769758 21.495741 15.1875 26.1875 C14.8575 26.8475 14.5275 27.5075 14.1875 28.1875 C13.60355469 27.5378125 13.60355469 27.5378125 13.0078125 26.875 C9.492046 23.37543519 7.11929046 21.75757005 2.0625 21.75 C-1.28786925 21.95939808 -4.5607934 22.32037824 -7.8125 23.1875 C-6.56273244 19.53433329 -6.14151247 18.40684164 -2.8125 16.1875 C-2.08867533 14.12824861 -2.08867533 14.12824861 -1.8125 12.1875 C-3.7925 12.1875 -5.7725 12.1875 -7.8125 12.1875 C-7.585625 12.93 -7.35875 13.6725 -7.125 14.4375 C-6.8125 17.1875 -6.8125 17.1875 -8.125 19.5 C-8.681875 20.056875 -9.23875 20.61375 -9.8125 21.1875 C-10.4725 21.1875 -11.1325 21.1875 -11.8125 21.1875 C-11.9206866 18.60304227 -11.99987237 16.02312648 -12.0625 13.4375 C-12.09601562 12.70789062 -12.12953125 11.97828125 -12.1640625 11.2265625 C-12.22958687 7.62272196 -12.15626276 5.63353928 -9.921875 2.734375 C-6.42810883 0.17227981 -4.31182754 0.0265834 0 0 Z " fill="#4E9058" transform="translate(57.8125,28.8125)"/>
<path d="M0 0 C3.64567713 -0.08816905 7.29107474 -0.14077948 10.9375 -0.1875 C12.46987305 -0.22520508 12.46987305 -0.22520508 14.03320312 -0.26367188 C20.59819504 -0.32659512 25.9339085 0.4487325 32 3 C32 3.33 32 3.66 32 4 C27.97007218 3.44687265 23.97977076 2.8441938 20 2 C20 2.66 20 3.32 20 4 C20.99 4.66 21.98 5.32 23 6 C23.33 6.99 23.66 7.98 24 9 C24.99 8.34 25.98 7.68 27 7 C28 8 28 8 28.0625 10.5625 C28.041875 11.366875 28.02125 12.17125 28 13 C21.44987147 12.24421594 21.44987147 12.24421594 18.8125 10.8125 C18.214375 10.544375 17.61625 10.27625 17 10 C16.44699219 10.32226562 15.89398438 10.64453125 15.32421875 10.9765625 C12.05468778 12.41625513 9.52853849 11.92507228 6 11.5625 C0.4242137 10.9382411 0.4242137 10.9382411 -5 12 C-5.33 10.35 -5.66 8.7 -6 7 C-5.34 7 -4.68 7 -4 7 C-3.67 7.66 -3.34 8.32 -3 9 C-2.67 8.01 -2.34 7.02 -2 6 C0.475 6.99 0.475 6.99 3 8 C3 7.01 3 6.02 3 5 C0.36 4.67 -2.28 4.34 -5 4 C-4.34 3.34 -3.68 2.68 -3 2 C-2.01 2 -1.02 2 0 2 C0 1.34 0 0.68 0 0 Z " fill="#22AF61" transform="translate(50,5)"/>
<path d="M0 0 C3.875 1.75 3.875 1.75 5 4 C4.67 4.99 4.34 5.98 4 7 C4.99 8.485 4.99 8.485 6 10 C5.35546875 11.83984375 5.35546875 11.83984375 4.1875 13.9375 C1.42689494 19.57024971 1.28602995 24.77884861 1 31 C-3.29 31 -7.58 31 -12 31 C-12 27.37 -12 23.74 -12 20 C-10 22 -10 22 -10 26 C-6.10540926 26.21081851 -6.10540926 26.21081851 -3 25 C-4.65 25 -6.3 25 -8 25 C-8.625 23.125 -8.625 23.125 -9 21 C-8.34 20.34 -7.68 19.68 -7 19 C-7.33 18.01 -7.66 17.02 -8 16 C-7.01 15.67 -6.02 15.34 -5 15 C-5.33 14.01 -5.66 13.02 -6 12 C-5.01 11.67 -4.02 11.34 -3 11 C-3.33 9.68 -3.66 8.36 -4 7 C-3.01 6.67 -2.02 6.34 -1 6 C-1.33 5.34 -1.66 4.68 -2 4 C-0.68 3.67 0.64 3.34 2 3 C1.34 2.67 0.68 2.34 0 2 C0 1.34 0 0.68 0 0 Z " fill="#1CA656" transform="translate(17,31)"/>
<path d="M0 0 C4.25158617 2.51230092 6.33346212 5.3707281 8 10 C7.6875 13.375 7.6875 13.375 7 16 C6.34 15.01 5.68 14.02 5 13 C2.56172956 12.8642494 2.56172956 12.8642494 -0.1875 13.1875 C-4.63409317 13.34547107 -6.8196159 12.96070139 -10.1875 10 C-11.15109582 9.02512086 -12.09910937 8.03310325 -13 7 C-12.265625 3.21875 -12.265625 3.21875 -9.875 1.25 C-6.26283838 -0.32050505 -3.90648417 -0.48831052 0 0 Z " fill="#337933" transform="translate(74,34)"/>
<path d="M0 0 C0.33 0.66 0.66 1.32 1 2 C-0.4375 4.625 -0.4375 4.625 -2 7 C-1.34 7.66 -0.68 8.32 0 9 C0.26991906 11.68839385 0.08737357 14.29141936 0 17 C-1.65 15.68 -3.3 14.36 -5 13 C-6.68864588 14.63709315 -6.68864588 14.63709315 -8 17 C-7.77426109 20.19235272 -7.77426109 20.19235272 -7 23 C-6.34 23 -5.68 23 -5 23 C-4.896875 23.639375 -4.79375 24.27875 -4.6875 24.9375 C-4.3471875 25.9584375 -4.3471875 25.9584375 -4 27 C-3.01 27.33 -2.02 27.66 -1 28 C-1.33 30.64 -1.66 33.28 -2 36 C-6.13681178 34.26046199 -7.28139287 32.3897597 -9.11328125 28.421875 C-11.28631961 22.48670414 -12.83755269 16.18282433 -11 10 C-9.0625 8.9375 -9.0625 8.9375 -7 8 C-6.690625 7.38125 -6.38125 6.7625 -6.0625 6.125 C-4.63101256 3.26202511 -2.54558673 1.87569549 0 0 Z " fill="#2E7234" transform="translate(44,33)"/>
<path d="M0 0 C1.32 0.66 2.64 1.32 4 2 C3.890625 3.7734375 3.890625 3.7734375 3 6 C0.234375 7.8515625 0.234375 7.8515625 -3.25 9.625 C-4.38953125 10.21539062 -5.5290625 10.80578125 -6.703125 11.4140625 C-14.73271028 15.27663551 -14.73271028 15.27663551 -19.8125 15.125 C-20.60269531 15.10695313 -21.39289063 15.08890625 -22.20703125 15.0703125 C-22.79871094 15.04710938 -23.39039062 15.02390625 -24 15 C-24 14.34 -24 13.68 -24 13 C-26.64 12.34 -29.28 11.68 -32 11 C-31.67 9.35 -31.34 7.7 -31 6 C-30.01 7.485 -30.01 7.485 -29 9 C-26.70095589 9.40289329 -26.70095589 9.40289329 -24.125 9.25 C-23.26132813 9.23453125 -22.39765625 9.2190625 -21.5078125 9.203125 C-19.21556625 9.01746019 -17.21712395 8.57515349 -15 8 C-14.01 8 -13.02 8 -12 8 C-11.67 7.34 -11.34 6.68 -11 6 C-9.0187415 5.27954236 -7.01495907 4.61998741 -5 4 C-3.32836805 3.34588315 -1.65984798 2.68346682 0 2 C0 1.34 0 0.68 0 0 Z " fill="#F01414" transform="translate(91,101)"/>
<path d="M0 0 C4.29 0 8.58 0 13 0 C13.28875 1.69125 13.5775 3.3825 13.875 5.125 C14.45258692 8.34298426 15.08897518 11.26692553 16.125 14.375 C17.02699215 17.08097645 17.16651765 19.16919988 17 22 C16.34 22 15.68 22 15 22 C12.70351351 19.4385343 12 18.52032428 12 15 C8.39007621 15.65585189 8.39007621 15.65585189 5 17 C4.259016 12.924588 4 9.1434382 4 5 C3.34 5 2.68 5 2 5 C2 3.68 2 2.36 2 1 C1.34 0.67 0.68 0.34 0 0 Z " fill="#F70A0A" transform="translate(5,62)"/>
<path d="M0 0 C1.03769531 -0.01417969 2.07539062 -0.02835938 3.14453125 -0.04296875 C6.22520533 0.19035573 8.40511592 0.88631114 11.1875 2.1875 C8.64037926 4.18880916 6.2347625 6.04477656 3.1875 7.1875 C0.9375 6.8125 0.9375 6.8125 -0.8125 6.1875 C-0.8125 7.8375 -0.8125 9.4875 -0.8125 11.1875 C-2.27042884 11.24149736 -3.72892712 11.28029177 -5.1875 11.3125 C-5.99960937 11.33570313 -6.81171875 11.35890625 -7.6484375 11.3828125 C-9.8125 11.1875 -9.8125 11.1875 -11.8125 9.1875 C-11.59236323 6.32572205 -11.2088898 4.67006149 -9.375 2.4375 C-6.26065547 -0.05397562 -3.92311626 0.02418691 0 0 Z " fill="#2C642F" transform="translate(57.8125,28.8125)"/>
<path d="M0 0 C0.33 1.32 0.66 2.64 1 4 C0.34 4 -0.32 4 -1 4 C-0.67 4.99 -0.34 5.98 0 7 C-0.66 7 -1.32 7 -2 7 C-2 7.66 -2 8.32 -2 9 C-1.01 9.33 -0.02 9.66 1 10 C0.67 10.66 0.34 11.32 0 12 C-0.99 12 -1.98 12 -3 12 C-2.67 12.66 -2.34 13.32 -2 14 C-3.32 14 -4.64 14 -6 14 C-5.34 15.65 -4.68 17.3 -4 19 C-5.32 19 -6.64 19 -8 19 C-7.34 20.32 -6.68 21.64 -6 23 C-7.32 23 -8.64 23 -10 23 C-10 23.66 -10 24.32 -10 25 C-9.34 25.33 -8.68 25.66 -8 26 C-8.66 26.66 -9.32 27.32 -10 28 C-10 28.99 -10 29.98 -10 31 C-8.35 31.33 -6.7 31.66 -5 32 C-5.33 32.66 -5.66 33.32 -6 34 C-8.0625 34.625 -8.0625 34.625 -10 35 C-10 34.34 -10 33.68 -10 33 C-10.66 33 -11.32 33 -12 33 C-14.32342728 26.02971817 -13.111672 20.06117184 -10.27734375 13.53515625 C-7.63086858 8.28267189 -4.94681626 3.29787751 0 0 Z " fill="#0AA14A" transform="translate(19,24)"/>
<path d="M0 0 C3.34093908 2.22729272 3.70410668 3.12028504 5.0625 6.75 C5.38347656 7.59046875 5.70445313 8.4309375 6.03515625 9.296875 C6.35355469 10.18890625 6.67195313 11.0809375 7 12 C7.36738281 12.95648438 7.73476562 13.91296875 8.11328125 14.8984375 C9.10523777 18.36810038 9.19848258 21.27435371 9.125 24.875 C9.10695313 26.02742188 9.08890625 27.17984375 9.0703125 28.3671875 C9.03550781 29.67042969 9.03550781 29.67042969 9 31 C6.69 31 4.38 31 2 31 C2 30.34 2 29.68 2 29 C1.01 28.67 0.02 28.34 -1 28 C0.65 27.34 2.3 26.68 4 26 C4 27.32 4 28.64 4 30 C5.32 30 6.64 30 8 30 C7.67 25.38 7.34 20.76 7 16 C5.68 16.33 4.36 16.66 3 17 C3 17.66 3 18.32 3 19 C1.02 19.33 -0.96 19.66 -3 20 C-3 18.68 -3 17.36 -3 16 C-1.35 15.67 0.3 15.34 2 15 C1.01 15 0.02 15 -1 15 C-1.99 14.67 -2.98 14.34 -4 14 C-5.1875 11.4375 -5.1875 11.4375 -6 9 C-4.35 8.67 -2.7 8.34 -1 8 C-1 7.34 -1 6.68 -1 6 C-0.34 5.67 0.32 5.34 1 5 C0.67 3.35 0.34 1.7 0 0 Z " fill="#3DB774" transform="translate(107,30)"/>
<path d="M0 0 C6.02109316 0.65016499 11.25264538 1.97458266 16.93359375 4.08203125 C16.93359375 7.05203125 16.93359375 10.02203125 16.93359375 13.08203125 C16.60359375 12.42203125 16.27359375 11.76203125 15.93359375 11.08203125 C14.94359375 11.41203125 13.95359375 11.74203125 12.93359375 12.08203125 C9.87109375 11.89453125 9.87109375 11.89453125 6.93359375 11.08203125 C5.55859375 9.01953125 5.55859375 9.01953125 4.93359375 7.08203125 C4.06734375 7.36046875 4.06734375 7.36046875 3.18359375 7.64453125 C0.7266685 8.12226671 -0.71038159 7.83932489 -3.06640625 7.08203125 C-3.69140625 4.70703125 -3.69140625 4.70703125 -4.06640625 2.08203125 C-2.06640625 0.08203125 -2.06640625 0.08203125 0 0 Z " fill="#E52D2D" transform="translate(34.06640625,97.91796875)"/>
<path d="M0 0 C4.29 0.33 8.58 0.66 13 1 C13 1.66 13 2.32 13 3 C13.66 3 14.32 3 15 3 C15.33 2.34 15.66 1.68 16 1 C16.33 1.99 16.66 2.98 17 4 C17.70125 3.79375 18.4025 3.5875 19.125 3.375 C23.25573622 2.83620832 26.33498309 4.16749154 30 6 C30 6.66 30 7.32 30 8 C26.45849107 8.08761663 22.91726367 8.14059739 19.375 8.1875 C18.37597656 8.21263672 17.37695312 8.23777344 16.34765625 8.26367188 C10.82007024 8.31858167 6.72990779 8.22847325 2 5 C0 1.90909091 0 1.90909091 0 0 Z " fill="#FA0706" transform="translate(37,108)"/>
<path d="M0 0 C2.8125 -0.3125 2.8125 -0.3125 6 0 C7.88599343 2.38892501 9 3.91851558 9 7 C9.66 7 10.32 7 11 7 C11.33 6.01 11.66 5.02 12 4 C12.66 5.32 13.32 6.64 14 8 C13.34 8 12.68 8 12 8 C12.33 9.98 12.66 11.96 13 14 C13.99 14.33 14.98 14.66 16 15 C16.33 15.99 16.66 16.98 17 18 C17.66 18 18.32 18 19 18 C18.625 20.4375 18.625 20.4375 18 23 C17.34 23.33 16.68 23.66 16 24 C15.7525 23.360625 15.505 22.72125 15.25 22.0625 C14.18437567 19.81258459 14.18437567 19.81258459 11.875 19.25 C11.25625 19.1675 10.6375 19.085 10 19 C10 18.34 10 17.68 10 17 C9.34 16.34 8.68 15.68 8 15 C7.34 14.34 6.68 13.68 6 13 C6 12.34 6 11.68 6 11 C5.34 11 4.68 11 4 11 C4 10.34 4 9.68 4 9 C4.66 9 5.32 9 6 9 C6 8.01 6 7.02 6 6 C4.68 6.33 3.36 6.66 2 7 C2 6.01 2 5.02 2 4 C1.34 3.67 0.68 3.34 0 3 C0 2.01 0 1.02 0 0 Z " fill="#E33839" transform="translate(11,77)"/>
<path d="M0 0 C1.81293089 0.14037521 3.6253443 0.28744889 5.4375 0.4375 C6.95150391 0.55931641 6.95150391 0.55931641 8.49609375 0.68359375 C11 1 11 1 12 2 C11.95875 2.804375 11.9175 3.60875 11.875 4.4375 C11.91625 5.283125 11.9575 6.12875 12 7 C12.99 7.66 13.98 8.32 15 9 C6.42 9 -2.16 9 -11 9 C-10.01 8.67 -9.02 8.34 -8 8 C-8 6.68 -8 5.36 -8 4 C-7.67 3.01 -7.34 2.02 -7 1 C-6.01 1.33 -5.02 1.66 -4 2 C-4.66 2 -5.32 2 -6 2 C-6 2.66 -6 3.32 -6 4 C-3.87635519 4.22609337 -3.87635519 4.22609337 -2.375 2.5 C-1.92125 2.005 -1.4675 1.51 -1 1 C-1 2.65 -1 4.3 -1 6 C-0.34 6 0.32 6 1 6 C1.33 4.35 1.66 2.7 2 1 C1.34 0.67 0.68 0.34 0 0 Z " fill="#9DB29E" transform="translate(57,89)"/>
<path d="M0 0 C0.99 0 1.98 0 3 0 C3.33 1.32 3.66 2.64 4 4 C3.34 4 2.68 4 2 4 C2 4.66 2 5.32 2 6 C-3.7623845 7.34736339 -9.09508803 8.16136734 -15.015625 8.00390625 C-17.4374967 7.99913879 -19.65900921 8.39587334 -22 9 C-21.67 7.02 -21.34 5.04 -21 3 C-19.948125 3.020625 -18.89625 3.04125 -17.8125 3.0625 C-14.15485053 3.11968402 -14.15485053 3.11968402 -11.25 2.4375 C-9 2 -9 2 -6 3 C-5.67 2.67 -5.34 2.34 -5 2 C-2 2 -2 2 0 3 C0 2.01 0 1.02 0 0 Z " fill="#EFBCBD" transform="translate(77,103)"/>
<path d="M0 0 C1.04976964 3.14930893 1.10131595 5.38814456 1.0625 8.6875 C1.05347656 9.68136719 1.04445313 10.67523438 1.03515625 11.69921875 C1.02355469 12.45847656 1.01195313 13.21773437 1 14 C-0.32 14 -1.64 14 -3 14 C-3.33 13.01 -3.66 12.02 -4 11 C-4.33 12.32 -4.66 13.64 -5 15 C-6.98 15 -8.96 15 -11 15 C-11 12.03 -11 9.06 -11 6 C-10.01 6.495 -10.01 6.495 -9 7 C-9 7.66 -9 8.32 -9 9 C-5.83333333 7.16666667 -5.83333333 7.16666667 -4 4 C-5.65 4 -7.3 4 -9 4 C-8.67 3.34 -8.34 2.68 -8 2 C-6.68 2.33 -5.36 2.66 -4 3 C-4 2.34 -4 1.68 -4 1 C-2 0 -2 0 0 0 Z " fill="#0CA24D" transform="translate(114,46)"/>
<path d="M0 0 C0.33 0.66 0.66 1.32 1 2 C2.32 2 3.64 2 5 2 C5 1.34 5 0.68 5 0 C5.66 0 6.32 0 7 0 C7.66 1.32 8.32 2.64 9 4 C7 6 7 6 5 7 C5 7.66 5 8.32 5 9 C0.61538462 12 0.61538462 12 -2 12 C-2 11.34 -2 10.68 -2 10 C-2.99 9.67 -3.98 9.34 -5 9 C-5 8.01 -5 7.02 -5 6 C-5.99 5.67 -6.98 5.34 -8 5 C-4.04 2.525 -4.04 2.525 0 0 Z " fill="#E6393A" transform="translate(86,94)"/>
<path d="M0 0 C5.3202899 0.63843479 10.18058959 1.5902948 15 4 C15.625 6.5625 15.625 6.5625 16 9 C14.68 8.67 13.36 8.34 12 8 C11.67 8.99 11.34 9.98 11 11 C10.01 11 9.02 11 8 11 C7.67 9.35 7.34 7.7 7 6 C5.35 6.66 3.7 7.32 2 8 C2 6.68 2 5.36 2 4 C1.01 3.34 0.02 2.68 -1 2 C-0.67 1.34 -0.34 0.68 0 0 Z " fill="#04A049" transform="translate(70,7)"/>
<path d="M0 0 C0.33 0.66 0.66 1.32 1 2 C2.65 1.34 4.3 0.68 6 0 C6 2.62113708 5.68707555 4.50935112 5 7 C7.97 7.495 7.97 7.495 11 8 C11.33 7.34 11.66 6.68 12 6 C12 6.99 12 7.98 12 9 C10.35 9.66 8.7 10.32 7 11 C7 11.66 7 12.32 7 13 C9.97 13.495 9.97 13.495 13 14 C13 15.66666667 13 17.33333333 13 19 C10.625 19.125 10.625 19.125 8 19 C5.99760971 16.99760971 5.18425857 15.53376252 4 13 C3.47019531 11.90171875 3.47019531 11.90171875 2.9296875 10.78125 C2.58164063 10.0284375 2.23359375 9.275625 1.875 8.5 C1.52179688 7.7471875 1.16859375 6.994375 0.8046875 6.21875 C0 4 0 4 0 0 Z " fill="#1DA14F" transform="translate(97,36)"/>
<path d="M0 0 C7.88729601 1.86804379 15.51022831 7.26534247 20 14 C16 14 16 14 13.4375 11.625 C12.633125 10.75875 11.82875 9.8925 11 9 C10.01 8.34 9.02 7.68 8 7 C7.67 6.67 7.34 6.34 7 6 C6.67 6.66 6.34 7.32 6 8 C5.34 8 4.68 8 4 8 C3.67 9.32 3.34 10.64 3 12 C1.35 11.67 -0.3 11.34 -2 11 C-1.34 9.35 -0.68 7.7 0 6 C0.99 6 1.98 6 3 6 C3 4.68 3 3.36 3 2 C2.01 1.67 1.02 1.34 0 1 C0 0.67 0 0.34 0 0 Z " fill="#6BC894" transform="translate(82,9)"/>
<path d="M0 0 C1.98 0 3.96 0 6 0 C5.63899109 3.24908017 5.36709039 4.65515751 2.9375 6.9375 C0.66333275 8.91704908 0.66333275 8.91704908 0.8125 12.1875 C0.874375 13.115625 0.93625 14.04375 1 15 C0 16 0 16 -2.5625 16.0625 C-3.366875 16.041875 -4.17125 16.02125 -5 16 C-5.80967438 13.08517222 -6.21845993 11.53886783 -5.0625 8.6875 C-4.711875 8.130625 -4.36125 7.57375 -4 7 C-4 7.66 -4 8.32 -4 9 C-0.71185401 6.27393696 -0.71185401 6.27393696 0.25 2.25 C0.1675 1.5075 0.085 0.765 0 0 Z " fill="#C5E7C9" transform="translate(50,41)"/>
<path d="M0 0 C3.3380049 1.44225601 5.43843466 3.25221856 7.9375 5.875 C10.80961274 8.82763927 13.69665371 11.52249028 17 14 C12.72305054 15.37473375 10.16065329 14.38688443 6 13 C6.33 12.01 6.66 11.02 7 10 C5.68 10.33 4.36 10.66 3 11 C3 9.68 3 8.36 3 7 C2.505 6.505 2.01 6.01 1.5 5.5 C1.005 5.005 0.51 4.51 0 4 C0 2.68 0 1.36 0 0 Z " fill="#EC2424" transform="translate(23,85)"/>
<path d="M0 0 C4.25158617 2.51230092 6.33346212 5.3707281 8 10 C7.6875 13.375 7.6875 13.375 7 16 C6.33300789 13.99902368 5.72837572 11.9761854 5.1875 9.9375 C4.30653047 6.9696838 4.30653047 6.9696838 2.25390625 5.82421875 C-0.39051118 4.85719609 -2.44223746 4.80111151 -5.25 4.875 C-6.58804688 4.90207031 -6.58804688 4.90207031 -7.953125 4.9296875 C-8.62859375 4.95289063 -9.3040625 4.97609375 -10 5 C-9.67 6.32 -9.34 7.64 -9 9 C-10.32 8.34 -11.64 7.68 -13 7 C-12.69611836 4.06247746 -12.19330344 3.15919107 -9.875 1.25 C-6.26283838 -0.32050505 -3.90648417 -0.48831052 0 0 Z " fill="#1D5527" transform="translate(74,34)"/>
<path d="M0 0 C3.875 1.875 3.875 1.875 5 3 C5.07319621 5.69654854 5.09242537 8.36691458 5.0625 11.0625 C5.05798828 11.82111328 5.05347656 12.57972656 5.04882812 13.36132812 C5.0370068 15.24091871 5.01907078 17.12046899 5 19 C4.67 19 4.34 19 4 19 C3.67 17.02 3.34 15.04 3 13 C1.50256881 14.49743119 1.66797307 15.98824239 1.4375 18.0625 C1.293125 19.361875 1.14875 20.66125 1 22 C0.01 21.34 -0.98 20.68 -2 20 C-1.67 17.69 -1.34 15.38 -1 13 C-3.97 12.505 -3.97 12.505 -7 12 C-7 11.67 -7 11.34 -7 11 C-4.69 11 -2.38 11 0 11 C0.33 10.01 0.66 9.02 1 8 C1.33 8.33 1.66 8.66 2 9 C1.51421457 5.87709365 1.0013988 3.00419641 0 0 Z " fill="#619E6A" transform="translate(79,39)"/>
<path d="M0 0 C0.70511719 0.16371094 1.41023438 0.32742187 2.13671875 0.49609375 C5.09658688 1.01699824 7.81061273 1.09866732 10.8125 1.0625 C11.78832031 1.05347656 12.76414062 1.04445312 13.76953125 1.03515625 C14.50558594 1.02355469 15.24164063 1.01195312 16 1 C16 2.32 16 3.64 16 5 C14.35 5.33 12.7 5.66 11 6 C12.32 6.33 13.64 6.66 15 7 C14.34 8.32 13.68 9.64 13 11 C9.49565146 10.43990974 8.12047667 9.38428252 5.9375 6.625 C4.05751376 4.28125058 2.16099168 2.09045486 0 0 Z " fill="#86BD8B" transform="translate(63,45)"/>
<path d="M0 0 C0.33 0 0.66 0 1 0 C1.24991456 6.65050424 0.73955334 12.56986533 -1 19 C-1.61875 19.144375 -2.2375 19.28875 -2.875 19.4375 C-5.03258322 19.93152225 -5.03258322 19.93152225 -7 21 C-7.86626039 18.57447091 -8.17413108 17.42863035 -7.1875 15 C-6.795625 14.34 -6.40375 13.68 -6 13 C-5.62875 12.2575 -5.2575 11.515 -4.875 10.75 C-4.58625 10.1725 -4.2975 9.595 -4 9 C-3.67 9.33 -3.34 9.66 -3 10 C-2.814375 8.3603125 -2.814375 8.3603125 -2.625 6.6875 C-2 3 -2 3 0 0 Z " fill="#55915C" transform="translate(82,50)"/>
<path d="M0 0 C3.00221784 4.50332676 4.31896025 8.57767579 4 14 C3.34 14 2.68 14 2 14 C-0.29648649 11.4385343 -1 10.52032428 -1 7 C-4.60992379 7.65585189 -4.60992379 7.65585189 -8 9 C-8.33 7.02 -8.66 5.04 -9 3 C-7.02 2.34 -5.04 1.68 -3 1 C-2.67 1.66 -2.34 2.32 -2 3 C-1.34 2.01 -0.68 1.02 0 0 Z " fill="#E93635" transform="translate(18,70)"/>
<path d="M0 0 C2.08614437 0.20198219 4.16904068 0.43769321 6.25 0.6875 C7.41015625 0.81511719 8.5703125 0.94273438 9.765625 1.07421875 C13.71896532 2.2057908 14.74841058 3.64308486 17 7 C18.31494512 8.35147138 19.64264858 9.69112542 21 11 C16.69235185 9.43358249 12.93828536 7.31663844 9 5 C9 4.01 9 3.02 9 2 C7.02 2 5.04 2 3 2 C3.226875 2.7425 3.45375 3.485 3.6875 4.25 C4 7 4 7 2.6875 9.3125 C2.130625 9.869375 1.57375 10.42625 1 11 C0.34 11 -0.32 11 -1 11 C-1.0270043 9.54176788 -1.04639787 8.08339325 -1.0625 6.625 C-1.07410156 5.81289063 -1.08570313 5.00078125 -1.09765625 4.1640625 C-1 2 -1 2 0 0 Z " fill="#8EBC93" transform="translate(47,39)"/>
<path d="M0 0 C0.33 0 0.66 0 1 0 C0.50130596 5.36891879 -0.02227532 10.69235173 -1 16 C-1.66 15.67 -2.32 15.34 -3 15 C-3 14.01 -3 13.02 -3 12 C-4.65 12.66 -6.3 13.32 -8 14 C-8.66 12.02 -9.32 10.04 -10 8 C-8.35 6.35 -6.7 4.7 -5 3 C-4.01 4.32 -3.02 5.64 -2 7 C-1.34 4.69 -0.68 2.38 0 0 Z " fill="#BBE3BD" transform="translate(45,42)"/>
<path d="M0 0 C0 0.99 0 1.98 0 3 C0.99 3.33 1.98 3.66 3 4 C3 4.99 3 5.98 3 7 C1.02 7.99 -0.96 8.98 -3 10 C-4.00894372 9.07213211 -5.00690907 8.13231567 -6 7.1875 C-6.8353125 6.40439453 -6.8353125 6.40439453 -7.6875 5.60546875 C-9 4 -9 4 -9 1 C-3.375 -1.125 -3.375 -1.125 0 0 Z " fill="#4EB676" transform="translate(98,26)"/>
<path d="M0 0 C0.33 1.32 0.66 2.64 1 4 C-0.32 4.33 -1.64 4.66 -3 5 C-2.67 6.65 -2.34 8.3 -2 10 C-2.66 9.67 -3.32 9.34 -4 9 C-4.33 9.33 -4.66 9.66 -5 10 C-5.99 9.67 -6.98 9.34 -8 9 C-7.34 10.65 -6.68 12.3 -6 14 C-7.98 13.34 -9.96 12.68 -12 12 C-12 10.35 -12 8.7 -12 7 C-11.01 6.67 -10.02 6.34 -9 6 C-9 5.34 -9 4.68 -9 4 C-6.09432866 1.98217268 -3.48330216 0.64505596 0 0 Z " fill="#0FA24D" transform="translate(34,12)"/>
<path d="M0 0 C0.66 0 1.32 0 2 0 C3.0828125 1.11375 3.0828125 1.11375 4.1875 2.25 C6.49593463 4.50713609 7.99923534 5.66771606 10.75 7.125 C14 9 14 9 15 12 C14.34 12 13.68 12 13 12 C13 12.66 13 13.32 13 14 C12.01 14.33 11.02 14.66 10 15 C9.67 14.01 9.34 13.02 9 12 C6.98491642 11.26676204 6.98491642 11.26676204 5 11 C5 10.01 5 9.02 5 8 C2.67881567 6.17394457 2.67881567 6.17394457 0 5 C-0.99 5.495 -0.99 5.495 -2 6 C-2 3 -2 3 0 1 C0 0.67 0 0.34 0 0 Z " fill="#06A14B" transform="translate(88,14)"/>
<path d="M0 0 C0.99 0.33 1.98 0.66 3 1 C2.01 1.495 2.01 1.495 1 2 C1.79117904 3.99983534 1.79117904 3.99983534 3 6 C3.99 6.33 4.98 6.66 6 7 C6 7.66 6 8.32 6 9 C-7.6332574 9.738041 -7.6332574 9.738041 -14 5 C-14 4.34 -14 3.68 -14 3 C-12.02 3 -10.04 3 -8 3 C-7.67 3.66 -7.34 4.32 -7 5 C-4.47266765 5.65555119 -4.47266765 5.65555119 -2 6 C-2 4.35 -2 2.7 -2 1 C-1.34 0.67 -0.68 0.34 0 0 Z " fill="#38823B" transform="translate(59,68)"/>
<path d="M0 0 C0.66 1.32 1.32 2.64 2 4 C2.66 4 3.32 4 4 4 C4.103125 4.639375 4.20625 5.27875 4.3125 5.9375 C4.539375 6.618125 4.76625 7.29875 5 8 C5.99 8.33 6.98 8.66 8 9 C7.67 11.64 7.34 14.28 7 17 C2.79624622 15.25654843 1.56748631 13.18546697 -0.31640625 9.17578125 C-1.38307158 5.78073787 -0.85444647 3.4177859 0 0 Z " fill="#3F9140" transform="translate(35,52)"/>
<path d="M0 0 C0.33 0.99 0.66 1.98 1 3 C-9.37357631 9.70387244 -9.37357631 9.70387244 -15 10 C-14.67 11.98 -14.34 13.96 -14 16 C-17.62528568 16.20140476 -19.86501708 15.85776765 -23 14 C-19.535 13.505 -19.535 13.505 -16 13 C-16.33 11.35 -16.66 9.7 -17 8 C-17.99 7.67 -18.98 7.34 -20 7 C-20.6875 4.9375 -20.6875 4.9375 -21 3 C-20.34 3.33 -19.68 3.66 -19 4 C-19 4.66 -19 5.32 -19 6 C-14.50186566 7.27305689 -12.28144782 7.64156365 -8.01953125 5.5078125 C-5.28382884 3.7453548 -2.61925072 1.93073445 0 0 Z " fill="#6BAB6F" transform="translate(72,59)"/>
<path d="M0 0 C0.78375 0.804375 1.5675 1.60875 2.375 2.4375 C4.71982856 4.98690417 4.71982856 4.98690417 7 6 C7 6.66 7 7.32 7 8 C6.34 8 5.68 8 5 8 C4.34 9.32 3.68 10.64 3 12 C0 12 0 12 -3 10 C-2.67 8.35 -2.34 6.7 -2 5 C-2.99 5.495 -2.99 5.495 -4 6 C-2.84826645 3.53199953 -1.95216435 1.95216435 0 0 Z " fill="#12A452" transform="translate(21,20)"/>
<path d="M0 0 C0.99 0.33 1.98 0.66 3 1 C3.16947579 2.41633336 3.33545507 3.83308533 3.5 5.25 C3.5928125 6.03890625 3.685625 6.8278125 3.78125 7.640625 C4 10 4 10 4 14 C5.41977909 16.22743787 5.41977909 16.22743787 7 18 C6.34 19.32 5.68 20.64 5 22 C2.2291946 19.6070317 1.1089093 17.4796809 0 14 C-0.1953125 10.44921875 -0.1953125 10.44921875 -0.125 6.6875 C-0.10695313 5.43324219 -0.08890625 4.17898437 -0.0703125 2.88671875 C-0.03550781 1.45779297 -0.03550781 1.45779297 0 0 Z " fill="#567656" transform="translate(26,58)"/>
<path d="M0 0 C2 2 2 2 2 6 C5.7763932 6.2981424 5.7763932 6.2981424 8 5 C8.66 4.34 9.32 3.68 10 3 C11 4 11 4 11.0625 7.5625 C11.041875 8.696875 11.02125 9.83125 11 11 C7.37 11 3.74 11 0 11 C0 7.37 0 3.74 0 0 Z " fill="#08A650" transform="translate(5,51)"/>
<path d="M0 0 C0.33 0.99 0.66 1.98 1 3 C1.7425 2.649375 2.485 2.29875 3.25 1.9375 C7.8132587 0.79668532 11.47418749 1.28740733 16.09765625 1.90625 C19.27054861 2.00873912 21.16810563 1.37178003 24 0 C24 0.66 24 1.32 24 2 C25.65 2.66 27.3 3.32 29 4 C29 4.33 29 4.66 29 5 C27.06447266 4.98259766 27.06447266 4.98259766 25.08984375 4.96484375 C23.37239729 4.9554588 21.65494925 4.94635936 19.9375 4.9375 C19.08994141 4.92912109 18.24238281 4.92074219 17.36914062 4.91210938 C13.51929732 4.89724512 9.83280948 4.95147739 6.03125 5.59375 C3 6 3 6 0.5625 4.5625 C0.046875 4.046875 -0.46875 3.53125 -1 3 C-0.67 2.01 -0.34 1.02 0 0 Z " fill="#04993C" transform="translate(44,14)"/>
<path d="M0 0 C1.67542976 0.28604898 3.34385343 0.61781233 5 1 C4.50269348 5.97306516 3.44697666 9.63799813 1 14 C-0.9375 13.1875 -0.9375 13.1875 -3 12 C-3.33 11.01 -3.66 10.02 -4 9 C-2.68 9 -1.36 9 0 9 C-0.66 8.34 -1.32 7.68 -2 7 C-1.67 6.67 -1.34 6.34 -1 6 C-1 5.175 -1 4.35 -1 3.5 C-1 1 -1 1 0 0 Z " fill="#EBB7B7" transform="translate(106,72)"/>
<path d="M0 0 C1.65 0.33 3.3 0.66 5 1 C-1.70459011 10.2850509 -1.70459011 10.2850509 -6 14 C-6.99 14 -7.98 14 -9 14 C-8.62875 13.071875 -8.2575 12.14375 -7.875 11.1875 C-7.58625 10.135625 -7.2975 9.08375 -7 8 C-7.66 7.01 -8.32 6.02 -9 5 C-7.68 5.33 -6.36 5.66 -5 6 C-4.54625 5.34 -4.0925 4.68 -3.625 4 C-3.08875 3.34 -2.5525 2.68 -2 2 C-1.34 2 -0.68 2 0 2 C0 1.34 0 0.68 0 0 Z " fill="#0F9E49" transform="translate(28,26)"/>
<path d="M0 0 C0.66 1.32 1.32 2.64 2 4 C6.38889325 3.33501617 9.9811485 1.81242323 14 0 C14 0.66 14 1.32 14 2 C15.98 1.67 17.96 1.34 20 1 C20.33 1.66 20.66 2.32 21 3 C18 4 18 4 14.625 3.875 C10.74619829 4.00875178 9.08876656 4.75362432 6 7 C6.61277612 9.96175123 7.25372522 11.38058783 9 14 C7.66666667 13.33333333 6.33333333 12.66666667 5 12 C4.3090625 11.7525 3.618125 11.505 2.90625 11.25 C1 10 1 10 0.390625 7.6171875 C0.34421875 6.71226563 0.2978125 5.80734375 0.25 4.875 C0.19328125 3.96492188 0.1365625 3.05484375 0.078125 2.1171875 C0.05234375 1.41851562 0.0265625 0.71984375 0 0 Z " fill="#D4EAD6" transform="translate(56,31)"/>
<path d="M0 0 C1.32 0.66 2.64 1.32 4 2 C3.67 3.32 3.34 4.64 3 6 C-2.75 7.125 -2.75 7.125 -5 6 C-5 6.99 -5 7.98 -5 9 C-11.75 10.125 -11.75 10.125 -14 9 C-11.44755286 5.88034238 -8.79731164 5.13919349 -5 4 C-3.32836805 3.34588315 -1.65984798 2.68346682 0 2 C0 1.34 0 0.68 0 0 Z " fill="#F60201" transform="translate(91,101)"/>
<path d="M0 0 C0.99 0.33 1.98 0.66 3 1 C3 1.66 3 2.32 3 3 C3.99 3.33 4.98 3.66 6 4 C6.33 4.99 6.66 5.98 7 7 C7.66 7 8.32 7 9 7 C8.625 9.4375 8.625 9.4375 8 12 C7.01 12.495 7.01 12.495 6 13 C5.7525 12.360625 5.505 11.72125 5.25 11.0625 C4.18437567 8.81258459 4.18437567 8.81258459 1.875 8.25 C1.25625 8.1675 0.6375 8.085 0 8 C0 7.34 0 6.68 0 6 C-0.99 5.34 -1.98 4.68 -3 4 C-3 3.34 -3 2.68 -3 2 C-2.01 1.34 -1.02 0.68 0 0 Z " fill="#EFC7C6" transform="translate(21,88)"/>
<path d="M0 0 C3 1 3 1 3.9375 2.8125 C4 5 4 5 2.625 7.25 C-1.17169544 9.78113029 -4.56400911 9.34123007 -9 9 C-9.33 8.34 -9.66 7.68 -10 7 C-8.71186658 6.16121545 -7.41936744 5.32913217 -6.125 4.5 C-5.40570313 4.0359375 -4.68640625 3.571875 -3.9453125 3.09375 C-2 2 -2 2 0 2 C0 1.34 0 0.68 0 0 Z " fill="#AAD1AA" transform="translate(73,60)"/>
<path d="M0 0 C0.66 0 1.32 0 2 0 C2 0.99 2 1.98 2 3 C2.66 2.01 3.32 1.02 4 0 C4.99 0.33 5.98 0.66 7 1 C7 1.99 7 2.98 7 4 C6.34 4 5.68 4 5 4 C5 4.66 5 5.32 5 6 C3.98679687 6.09087891 3.98679687 6.09087891 2.953125 6.18359375 C2.06109375 6.26738281 1.1690625 6.35117188 0.25 6.4375 C-0.63171875 6.51871094 -1.5134375 6.59992187 -2.421875 6.68359375 C-4.69350452 6.96238465 -6.79851823 7.38790577 -9 8 C-9.33 6.35 -9.66 4.7 -10 3 C-9.34 3 -8.68 3 -8 3 C-7.67 3.66 -7.34 4.32 -7 5 C-6.67 4.01 -6.34 3.02 -6 2 C-3.525 2.99 -3.525 2.99 -1 4 C-0.67 2.68 -0.34 1.36 0 0 Z " fill="#ADDEC0" transform="translate(54,9)"/>
<path d="M0 0 C0.66 0 1.32 0 2 0 C2.66 0.66 3.32 1.32 4 2 C6.20250992 2.46006346 6.20250992 2.46006346 8.625 2.625 C9.44226562 2.69976563 10.25953125 2.77453125 11.1015625 2.8515625 C11.72804688 2.90054687 12.35453125 2.94953125 13 3 C10.54003371 5.55293014 8.15727531 7.34243046 5 9 C4.01 9 3.02 9 2 9 C2 8.34 2 7.68 2 7 C1.01 6.67 0.02 6.34 -1 6 C-1.6875 3.9375 -1.6875 3.9375 -2 2 C-1.34 1.67 -0.68 1.34 0 1 C0 0.67 0 0.34 0 0 Z " fill="#1AA453" transform="translate(28,19)"/>
<path d="M0 0 C2 1.75 2 1.75 4 4 C4 5.32 4 6.64 4 8 C2.54207116 8.05399736 1.08357288 8.09279177 -0.375 8.125 C-1.18710937 8.14820313 -1.99921875 8.17140625 -2.8359375 8.1953125 C-5 8 -5 8 -7 6 C-7 4 -7 4 -6 2 C-2.9375 0.75 -2.9375 0.75 0 0 Z " fill="#317133" transform="translate(53,32)"/>
<path d="M0 0 C0.05406122 1.93719378 0.09282025 3.87481921 0.125 5.8125 C0.14820312 6.89144531 0.17140625 7.97039062 0.1953125 9.08203125 C0 12 0 12 -2 15 C-2.33 12.69 -2.66 10.38 -3 8 C-4.65 8 -6.3 8 -8 8 C-8.33 7.01 -8.66 6.02 -9 5 C-7.875 2.875 -7.875 2.875 -6 1 C-3.92348487 0.40670996 -2.15883622 0 0 0 Z " fill="#F04A49" transform="translate(116,61)"/>
<path d="M0 0 C0.33 0.66 0.66 1.32 1 2 C0.01 2.33 -0.98 2.66 -2 3 C-0.02 3.66 1.96 4.32 4 5 C4 5.99 4 6.98 4 8 C4.66 8.33 5.32 8.66 6 9 C3.03824877 8.38722388 1.61941217 7.74627478 -1 6 C-1.33 7.32 -1.66 8.64 -2 10 C-2.33 9.01 -2.66 8.02 -3 7 C-4.299375 6.87625 -5.59875 6.7525 -6.9375 6.625 C-9.15234375 6.4140625 -9.15234375 6.4140625 -11 6 C-11.33 5.34 -11.66 4.68 -12 4 C-8.04 2.68 -4.08 1.36 0 0 Z " fill="#24AC5E" transform="translate(49,5)"/>
<path d="M0 0 C3.875 1.75 3.875 1.75 5 4 C4.67 4.99 4.34 5.98 4 7 C4.99 8.485 4.99 8.485 6 10 C5.01 11.32 4.02 12.64 3 14 C2.67 12.68 2.34 11.36 2 10 C1.34 10 0.68 10 0 10 C0 10.66 0 11.32 0 12 C-1.32 11.34 -2.64 10.68 -4 10 C-4 9.01 -4 8.02 -4 7 C-3.01 6.67 -2.02 6.34 -1 6 C-1.33 5.34 -1.66 4.68 -2 4 C-0.68 3.67 0.64 3.34 2 3 C1.34 2.67 0.68 2.34 0 2 C0 1.34 0 0.68 0 0 Z " fill="#21A85B" transform="translate(17,31)"/>
<path d="M0 0 C4.95 0 9.9 0 15 0 C13 3 13 3 11 3.75 C9 4 9 4 7 3 C6.67 4.98 6.34 6.96 6 9 C5.34 8.34 4.68 7.68 4 7 C3.01 7.495 3.01 7.495 2 8 C2 5.69 2 3.38 2 1 C1.34 0.67 0.68 0.34 0 0 Z " fill="#EE2525" transform="translate(49,103)"/>
<path d="M0 0 C0.99 0.33 1.98 0.66 3 1 C2.67 1.66 2.34 2.32 2 3 C0.8486234 6.18321766 0 8.59879634 0 12 C0.66 12.33 1.32 12.66 2 13 C1.34 13.66 0.68 14.32 0 15 C0 15.99 0 16.98 0 18 C1.65 18.33 3.3 18.66 5 19 C4.67 19.66 4.34 20.32 4 21 C1.9375 21.625 1.9375 21.625 0 22 C0 21.34 0 20.68 0 20 C-0.66 20 -1.32 20 -2 20 C-4.42254657 12.73236029 -2.89384003 6.7522934 0 0 Z " fill="#079E47" transform="translate(9,37)"/>
<path d="M0 0 C0.33 0.66 0.66 1.32 1 2 C-0.25 4.625 -0.25 4.625 -2 7 C-2.99 7 -3.98 7 -5 7 C-5 7.66 -5 8.32 -5 9 C-5.99 9 -6.98 9 -8 9 C-8.66 13.29 -9.32 17.58 -10 22 C-10.33 22 -10.66 22 -11 22 C-11.24915939 20.23186888 -11.47366632 18.46025018 -11.6875 16.6875 C-11.81511719 15.70136719 -11.94273438 14.71523438 -12.07421875 13.69921875 C-12 11 -12 11 -10.64453125 9.14453125 C-9 8 -9 8 -7 8 C-6.773125 7.4225 -6.54625 6.845 -6.3125 6.25 C-4.66961977 3.4336339 -2.60466773 1.91922886 0 0 Z " fill="#BEDBBF" transform="translate(44,33)"/>
<path d="M0 0 C2.125 0.9375 2.125 0.9375 4 2 C3.34 3.65 2.68 5.3 2 7 C-4.4 8.23076923 -4.4 8.23076923 -7.4375 7.0625 C-7.953125 6.711875 -8.46875 6.36125 -9 6 C-8.34 5.67 -7.68 5.34 -7 5 C-6.34 5.33 -5.68 5.66 -5 6 C-5 5.34 -5 4.68 -5 4 C-4.34 4 -3.68 4 -3 4 C-2.67 3.01 -2.34 2.02 -2 1 C-1.34 0.67 -0.68 0.34 0 0 Z " fill="#5DBE83" transform="translate(64,9)"/>
<path d="M0 0 C2.475 0.99 2.475 0.99 5 2 C5 2.66 5 3.32 5 4 C4.34 4 3.68 4 3 4 C2.34 5.65 1.68 7.3 1 9 C0.34 9 -0.32 9 -1 9 C-1.33 9.66 -1.66 10.32 -2 11 C-2.99 11 -3.98 11 -5 11 C-5.66 9.68 -6.32 8.36 -7 7 C-5.68 7 -4.36 7 -3 7 C-3.33 6.34 -3.66 5.68 -4 5 C-1.525 5.99 -1.525 5.99 1 7 C0.01 5.35 -0.98 3.7 -2 2 C-1.34 2 -0.68 2 0 2 C0 1.34 0 0.68 0 0 Z " fill="#F0CACA" transform="translate(100,85)"/>
<path d="M0 0 C0.0825 0.61875 0.165 1.2375 0.25 1.875 C0.81258459 4.18437567 0.81258459 4.18437567 3.0625 5.25 C3.701875 5.4975 4.34125 5.745 5 6 C4.125 9.875 4.125 9.875 3 11 C1.33382885 11.04063832 -0.33388095 11.042721 -2 11 C-1.85957123 9.35369672 -1.71250671 7.70795821 -1.5625 6.0625 C-1.48128906 5.14597656 -1.40007813 4.22945312 -1.31640625 3.28515625 C-1 1 -1 1 0 0 Z " fill="#48934D" transform="translate(46,59)"/>
<path d="M0 0 C3.96 0 7.92 0 12 0 C12 0.33 12 0.66 12 1 C10.35 1.33 8.7 1.66 7 2 C8.32 2.66 9.64 3.32 11 4 C10.01 5.485 10.01 5.485 9 7 C6.375 7.1875 6.375 7.1875 4 7 C4 6.34 4 5.68 4 5 C3.34 5 2.68 5 2 5 C2 3.68 2 2.36 2 1 C1.34 0.67 0.68 0.34 0 0 Z " fill="#BF3926" transform="translate(5,62)"/>
<path d="M0 0 C0.62608696 8.95652174 0.62608696 8.95652174 -1.875 13.125 C-4 15 -4 15 -6 15 C-5.67 13.989375 -5.34 12.97875 -5 11.9375 C-3.92998679 8.24520089 -3.84295845 4.84751793 -4 1 C-1 0 -1 0 0 0 Z " fill="#F10E0E" transform="translate(114,69)"/>
<path d="M0 0 C1.98 1.32 3.96 2.64 6 4 C5.67 5.32 5.34 6.64 5 8 C2.6875 8.25 2.6875 8.25 0 8 C-1.8125 6 -1.8125 6 -3 4 C-2.01 2.68 -1.02 1.36 0 0 Z " fill="#7CC896" transform="translate(88,18)"/>
<path d="M0 0 C2.93453261 0.36681658 3.86437246 0.86437246 6 3 C6 4.66666667 6 6.33333333 6 8 C3.69 7.67 1.38 7.34 -1 7 C-1.625 4.625 -1.625 4.625 -2 2 C-1.34 1.34 -0.68 0.68 0 0 Z " fill="#F2D1D1" transform="translate(32,98)"/>
<path d="M0 0 C4 0 4 0 6.25 1.875 C8 4 8 4 8 6 C10.64 6.33 13.28 6.66 16 7 C16 7.33 16 7.66 16 8 C10.43012143 8.28809717 6.80329524 8.20219683 2 5 C0 1.90909091 0 1.90909091 0 0 Z " fill="#F40303" transform="translate(37,108)"/>
<path d="M0 0 C0.99 0.33 1.98 0.66 3 1 C2.34 1 1.68 1 1 1 C0.87625 1.969375 0.7525 2.93875 0.625 3.9375 C0.00136191 8.34815777 -0.98746506 12.66477759 -2 17 C-2.33 17 -2.66 17 -3 17 C-3.0825 16.21625 -3.165 15.4325 -3.25 14.625 C-3.72806339 11.85250896 -3.72806339 11.85250896 -6.0625 10.6875 C-6.701875 10.460625 -7.34125 10.23375 -8 10 C-7.401875 9.814375 -6.80375 9.62875 -6.1875 9.4375 C-2.97129906 7.32399653 -2.34240103 4.51581222 -1 1 C-0.67 0.67 -0.34 0.34 0 0 Z " fill="#D8F1DA" transform="translate(47,30)"/>
<path d="M0 0 C1.32 0 2.64 0 4 0 C4.33 0.99 4.66 1.98 5 3 C5.99 2.34 6.98 1.68 8 1 C9 2 9 2 9.0625 4.5625 C9.041875 5.366875 9.02125 6.17125 9 7 C5.53058454 6.54177532 2.32604951 6.10868317 -1 5 C-0.67 3.35 -0.34 1.7 0 0 Z " fill="#ADDCBE" transform="translate(69,11)"/>
<path d="M0 0 C1.485 0.99 1.485 0.99 3 2 C3.66 1.67 4.32 1.34 5 1 C5.33 3.31 5.66 5.62 6 8 C4.68 8.99 3.36 9.98 2 11 C1.01 9.68 0.02 8.36 -1 7 C-0.649375 6.401875 -0.29875 5.80375 0.0625 5.1875 C1.33304698 2.89186786 1.33304698 2.89186786 0 0 Z " fill="#E92929" transform="translate(93,94)"/>
<path d="M0 0 C-1.47692308 6.52307692 -1.47692308 6.52307692 -4.125 8.9375 C-4.74375 9.288125 -5.3625 9.63875 -6 10 C-6 9.34 -6 8.68 -6 8 C-6.66 7.67 -7.32 7.34 -8 7 C-7.62005832 4.24542282 -7.1926367 3.17979426 -5.125 1.25 C-3 0 -3 0 0 0 Z " fill="#839D84" transform="translate(88,69)"/>
<path d="M0 0 C0.66 0 1.32 0 2 0 C1.96519531 0.81984375 1.93039063 1.6396875 1.89453125 2.484375 C1.85392578 4.10085937 1.85392578 4.10085937 1.8125 5.75 C1.77769531 6.81734375 1.74289063 7.8846875 1.70703125 8.984375 C2.02917214 12.30027855 2.77148914 13.59016673 5 16 C3.68 16 2.36 16 1 16 C0.71125 15.360625 0.4225 14.72125 0.125 14.0625 C-0.82823451 11.84793921 -0.82823451 11.84793921 -3 11 C-3.625 8.4375 -3.625 8.4375 -4 6 C-2.68 5.34 -1.36 4.68 0 4 C0 2.68 0 1.36 0 0 Z " fill="#9BCDA3" transform="translate(50,52)"/>
<path d="M0 0 C0.33 0.99 0.66 1.98 1 3 C1.99 3 2.98 3 4 3 C4 3.66 4 4.32 4 5 C4.66 5 5.32 5 6 5 C5.67 6.32 5.34 7.64 5 9 C3.35 9 1.7 9 0 9 C-0.84454356 5.62182575 -1.10844919 3.32534757 0 0 Z " fill="#E9F9EB" transform="translate(45,48)"/>
<path d="M0 0 C1.98 0.66 3.96 1.32 6 2 C6 3.98 6 5.96 6 8 C5.67 7.34 5.34 6.68 5 6 C4.01 6.33 3.02 6.66 2 7 C-0.1875 6.5625 -0.1875 6.5625 -2 6 C-1.34 4.02 -0.68 2.04 0 0 Z " fill="#ECC7C7" transform="translate(45,103)"/>
<path d="M0 0 C-1.32 1.65 -2.64 3.3 -4 5 C-5.32 4.34 -6.64 3.68 -8 3 C-8.33 3.66 -8.66 4.32 -9 5 C-10.32 5 -11.64 5 -13 5 C-13.33 4.34 -13.66 3.68 -14 3 C-14.66 2.67 -15.32 2.34 -16 2 C-14.27192682 1.66104344 -12.54248026 1.32908475 -10.8125 1 C-9.84957031 0.814375 -8.88664062 0.62875 -7.89453125 0.4375 C-5.2065794 0.03122388 -2.71228981 -0.07933572 0 0 Z " fill="#EC1414" transform="translate(76,102)"/>
<path d="M0 0 C2.95813066 4.43719599 3.1143157 7.45411417 3.0625 12.6875 C3.05347656 13.86699219 3.04445313 15.04648437 3.03515625 16.26171875 C3.02355469 17.16535156 3.01195313 18.06898437 3 19 C0.69 19 -1.62 19 -4 19 C-4 18.34 -4 17.68 -4 17 C-4.99 16.67 -5.98 16.34 -7 16 C-5.35 15.34 -3.7 14.68 -2 14 C-2 15.32 -2 16.64 -2 18 C-0.68 18 0.64 18 2 18 C1.48758893 11.97099313 0.930215 5.97995357 0 0 Z " fill="#74C999" transform="translate(113,42)"/>
<path d="M0 0 C0.66 0 1.32 0 2 0 C2.14285714 7.42857143 2.14285714 7.42857143 1 11 C0.01 10.67 -0.98 10.34 -2 10 C-2.1953125 3.9453125 -2.1953125 3.9453125 -2 2 C-1.34 1.34 -0.68 0.68 0 0 Z " fill="#69876A" transform="translate(90,58)"/>
<path d="M0 0 C0.99 0 1.98 0 3 0 C3.33 1.32 3.66 2.64 4 4 C3.34 4 2.68 4 2 4 C2 4.66 2 5.32 2 6 C0.35 6.33 -1.3 6.66 -3 7 C-3.66 5.35 -4.32 3.7 -5 2 C-2 2 -2 2 0 3 C0 2.01 0 1.02 0 0 Z " fill="#EDC1C0" transform="translate(77,103)"/>
<path d="M0 0 C2.97 0 5.94 0 9 0 C8.67 1.65 8.34 3.3 8 5 C7.01 4.67 6.02 4.34 5 4 C4.67 3.34 4.34 2.68 4 2 C4.33 3.32 4.66 4.64 5 6 C3.68 6.33 2.36 6.66 1 7 C0.67 4.69 0.34 2.38 0 0 Z " fill="#7C9A7C" transform="translate(46,89)"/>
<path d="M0 0 C2.475 0.495 2.475 0.495 5 1 C5 1.99 5 2.98 5 4 C5.99 4.66 6.98 5.32 8 6 C8 6.66 8 7.32 8 8 C5.69 7.34 3.38 6.68 1 6 C0.67 4.02 0.34 2.04 0 0 Z " fill="#79C997" transform="translate(39,13)"/>
<path d="M0 0 C1.98 0 3.96 0 6 0 C7.0625 1.8125 7.0625 1.8125 8 4 C7.67 4.99 7.34 5.98 7 7 C5.35 7 3.7 7 2 7 C2 6.01 2 5.02 2 4 C1.34 3.67 0.68 3.34 0 3 C0 2.01 0 1.02 0 0 Z " fill="#EDBFBF" transform="translate(11,77)"/>
<path d="M0 0 C0 0.66 0 1.32 0 2 C1.258125 1.938125 2.51625 1.87625 3.8125 1.8125 C7.72231986 1.79173989 7.72231986 1.79173989 10 3.5 C10.33 3.995 10.66 4.49 11 5 C10.17242187 4.75443359 10.17242187 4.75443359 9.328125 4.50390625 C6.73385993 3.94239586 4.40164589 3.90260992 1.75 3.9375 C0.41195312 3.95103516 0.41195312 3.95103516 -0.953125 3.96484375 C-1.62859375 3.97644531 -2.3040625 3.98804688 -3 4 C-2.67 5.32 -2.34 6.64 -2 8 C-3.32 7.34 -4.64 6.68 -6 6 C-5.6875 4.125 -5.6875 4.125 -5 2 C-2 0 -2 0 0 0 Z " fill="#27602D" transform="translate(67,35)"/>
<path d="M0 0 C2 1 2 1 3 2 C3.33 2.99 3.66 3.98 4 5 C0.25 8 0.25 8 -2 8 C-2 7.34 -2 6.68 -2 6 C-2.66 6 -3.32 6 -4 6 C-3.67 4.68 -3.34 3.36 -3 2 C-2.67 2.66 -2.34 3.32 -2 4 C-1.34 2.68 -0.68 1.36 0 0 Z " fill="#EFBFC0" transform="translate(86,98)"/>
<path d="M0 0 C0.99 0.33 1.98 0.66 3 1 C2.34 1 1.68 1 1 1 C1 1.66 1 2.32 1 3 C3.12364481 3.22609337 3.12364481 3.22609337 4.625 1.5 C5.305625 0.7575 5.305625 0.7575 6 0 C6.33 1.98 6.66 3.96 7 6 C4.69 6.33 2.38 6.66 0 7 C-0.93423645 3.98968256 -1.04449911 3.13349732 0 0 Z " fill="#DBE3DA" transform="translate(50,90)"/>
<path d="M0 0 C0.33 0 0.66 0 1 0 C1.12375 1.2375 1.2475 2.475 1.375 3.75 C1.76355401 6.8917367 2.31978512 9.26965082 4 12 C4.33 12.66 4.66 13.32 5 14 C2.5625 13.625 2.5625 13.625 0 13 C-1.57170996 9.85658007 -1.23175783 6.44228549 -1 3 C-0.67 2.01 -0.34 1.02 0 0 Z " fill="#EA3130" transform="translate(102,68)"/>
<path d="M0 0 C2.875 1.375 2.875 1.375 4.875 4.375 C4.26011719 4.25640625 3.64523438 4.1378125 3.01171875 4.015625 C0.5892527 3.62926678 -1.67060968 3.32696033 -4.125 3.375 C-6.12678863 5.17995431 -6.12678863 5.17995431 -7.125 7.375 C-7.785 7.375 -8.445 7.375 -9.125 7.375 C-8.21916548 4.58201022 -7.35369279 2.62819559 -5.375 0.4375 C-3.125 -0.625 -3.125 -0.625 0 0 Z " fill="#28653B" transform="translate(59.125,44.625)"/>
<path d="M0 0 C0.309375 0.928125 0.309375 0.928125 0.625 1.875 C2.54775888 4.84653645 4.66594527 5.13024659 8 6 C7.360625 6.12375 6.72125 6.2475 6.0625 6.375 C5.381875 6.58125 4.70125 6.7875 4 7 C3.67 7.66 3.34 8.32 3 9 C0.36 7.02 -2.28 5.04 -5 3 C-3.68 2.34 -2.36 1.68 -1 1 C-0.67 0.67 -0.34 0.34 0 0 Z " fill="#119C44" transform="translate(85,20)"/>
<path d="M0 0 C0.66 0.33 1.32 0.66 2 1 C2 1.99 2 2.98 2 4 C2.99 4 3.98 4 5 4 C5.33 3.34 5.66 2.68 6 2 C6.33 2.99 6.66 3.98 7 5 C6.01 5 5.02 5 4 5 C4.33 5.99 4.66 6.98 5 8 C2.03 7.505 2.03 7.505 -1 7 C-0.67 4.69 -0.34 2.38 0 0 Z " fill="#EB1815" transform="translate(106,65)"/>
<path d="M0 0 C0.66 0 1.32 0 2 0 C2.66 1.98 3.32 3.96 4 6 C2.68 6 1.36 6 0 6 C0.66 7.32 1.32 8.64 2 10 C0.35 9.67 -1.3 9.34 -3 9 C-1.125 2.25 -1.125 2.25 0 0 Z " fill="#17A452" transform="translate(11,37)"/>
<path d="M0 0 C0 2.31 0 4.62 0 7 C-0.99 5.68 -1.98 4.36 -3 3 C-5.47266765 3.34444881 -5.47266765 3.34444881 -8 4 C-8.33 4.66 -8.66 5.32 -9 6 C-8.625 3.5625 -8.625 3.5625 -8 1 C-5.29120665 -0.35439668 -2.99066732 -0.06501451 0 0 Z " fill="#17511C" transform="translate(56,30)"/>
<path d="M0 0 C1.32 0 2.64 0 4 0 C4.6875 1.75 4.6875 1.75 5 4 C3.6875 6.25 3.6875 6.25 2 8 C1.34 8 0.68 8 0 8 C0 5.36 0 2.72 0 0 Z " fill="#2E7536" transform="translate(46,42)"/>
<path d="M0 0 C2.475 0.99 2.475 0.99 5 2 C5 2.66 5 3.32 5 4 C4.34 4 3.68 4 3 4 C2.34 5.32 1.68 6.64 1 8 C-2 8 -2 8 -4 7 C-4 6.34 -4 5.68 -4 5 C-2.68 5.33 -1.36 5.66 0 6 C-0.2784375 4.7934375 -0.2784375 4.7934375 -0.5625 3.5625 C-0.706875 2.716875 -0.85125 1.87125 -1 1 C-0.67 0.67 -0.34 0.34 0 0 Z " fill="#B6E0C5" transform="translate(23,24)"/>
<path d="M0 0 C1.5 1.375 1.5 1.375 3 3 C3 3.66 3 4.32 3 5 C4.65 5.33 6.3 5.66 8 6 C6 8 6 8 2.375 8.125 C1.26125 8.08375 0.1475 8.0425 -1 8 C-0.67 5.36 -0.34 2.72 0 0 Z " fill="#049F47" transform="translate(37,14)"/>
<path d="M0 0 C0.33 0.99 0.66 1.98 1 3 C2.98 2.34 4.96 1.68 7 1 C8.02104551 1.97850195 9.0206121 2.97980427 10 4 C10 4.33 10 4.66 10 5 C3.6 6.35384615 3.6 6.35384615 0.5625 4.5625 C0.046875 4.046875 -0.46875 3.53125 -1 3 C-0.67 2.01 -0.34 1.02 0 0 Z " fill="#0F9F4A" transform="translate(44,14)"/>
<path d="M0 0 C0.99 0.33 1.98 0.66 3 1 C3 2.32 3 3.64 3 5 C3.66 5.33 4.32 5.66 5 6 C1.23312136 6 0.08809695 5.76462683 -3 4 C-3 3.34 -3 2.68 -3 2 C-2.01 1.34 -1.02 0.68 0 0 Z " fill="#E4A1A1" transform="translate(21,88)"/>
<path d="M0 0 C0.99 0 1.98 0 3 0 C1.84826645 2.46800047 0.95216435 4.04783565 -1 6 C-4.125 6.125 -4.125 6.125 -7 6 C-7.33 5.34 -7.66 4.68 -8 4 C-6.02 4 -4.04 4 -2 4 C-1.34 2.68 -0.68 1.36 0 0 Z " fill="#C3E9C2" transform="translate(74,63)"/>
<path d="M0 0 C3.875 1.875 3.875 1.875 5 3 C5.07319621 5.69654854 5.09242537 8.36691458 5.0625 11.0625 C5.05798828 11.82111328 5.05347656 12.57972656 5.04882812 13.36132812 C5.0370068 15.24091871 5.01907078 17.12046899 5 19 C4.67 19 4.34 19 4 19 C3.96261719 18.13117187 3.92523438 17.26234375 3.88671875 16.3671875 C3.47551037 7.71957101 3.47551037 7.71957101 0 0 Z " fill="#9EC19E" transform="translate(79,39)"/>
<path d="M0 0 C0.33 0.66 0.66 1.32 1 2 C2.98 1.67 4.96 1.34 7 1 C7.33 1.66 7.66 2.32 8 3 C5 4 5 4 1.5625 3.9375 C-1.76400349 3.99585971 -3.26464408 4.24937221 -6 6 C-6.66 5.34 -7.32 4.68 -8 4 C-5.36 2.68 -2.72 1.36 0 0 Z " fill="#BBDFBB" transform="translate(69,31)"/>
<path d="M0 0 C1.65 0.33 3.3 0.66 5 1 C4.04882866 2.1725131 3.08882991 3.33787015 2.125 4.5 C1.59132813 5.1496875 1.05765625 5.799375 0.5078125 6.46875 C0.01023437 6.9740625 -0.48734375 7.479375 -1 8 C-1.66 8 -2.32 8 -3 8 C-2.67 6.02 -2.34 4.04 -2 2 C-1.34 2 -0.68 2 0 2 C0 1.34 0 0.68 0 0 Z " fill="#049D43" transform="translate(28,26)"/>
<path d="M0 0 C6.14830711 1.20555041 8.35248219 2.91558124 12 8 C8 8 8 8 5.4375 5.6875 C4.633125 4.800625 3.82875 3.91375 3 3 C2.401875 2.401875 1.80375 1.80375 1.1875 1.1875 C0.795625 0.795625 0.40375 0.40375 0 0 Z " fill="#4CBF7C" transform="translate(90,15)"/>
<path d="M0 0 C0.99 0 1.98 0 3 0 C3.625 1.8125 3.625 1.8125 4 4 C3.01 5.485 3.01 5.485 2 7 C0.68 6.34 -0.64 5.68 -2 5 C-1.34 3.35 -0.68 1.7 0 0 Z " fill="#F01314" transform="translate(99,94)"/>
<path d="M0 0 C0.99 0 1.98 0 3 0 C4.09658936 3.28976808 3.79953138 4.71303767 3 8 C1.68 7.67 0.36 7.34 -1 7 C-1.04254356 5.00045254 -1.04080783 2.99958364 -1 1 C-0.67 0.67 -0.34 0.34 0 0 Z " fill="#7B987B" transform="translate(69,89)"/>
<path d="M0 0 C2.97 0.495 2.97 0.495 6 1 C6 2.98 6 4.96 6 7 C4.68 7 3.36 7 2 7 C2 5.02 2 3.04 2 1 C1.34 0.67 0.68 0.34 0 0 Z " fill="#CFD9D0" transform="translate(57,89)"/>
<path d="M0 0 C3.515562 2.343708 4.42274025 4.13571362 6 8 C5.67 8.99 5.34 9.98 5 11 C4.67 10.34 4.34 9.68 4 9 C3.01 9 2.02 9 1 9 C0.34 8.01 -0.32 7.02 -1 6 C-0.34 5.67 0.32 5.34 1 5 C0.67 3.35 0.34 1.7 0 0 Z " fill="#55C58C" transform="translate(107,30)"/>
<path d="M0 0 C3 1 3 1 5 2 C4.67 3.32 4.34 4.64 4 6 C2.35 5.67 0.7 5.34 -1 5 C-0.67 3.35 -0.34 1.7 0 0 Z " fill="#E8A5A4" transform="translate(68,105)"/>
<path d="M0 0 C1.32 0.33 2.64 0.66 4 1 C4 2.65 4 4.3 4 6 C2.68 6.33 1.36 6.66 0 7 C0 4.69 0 2.38 0 0 Z " fill="#D2DCD3" transform="translate(65,90)"/>
<path d="M0 0 C0.33 0 0.66 0 1 0 C1 3.3 1 6.6 1 10 C0.01 10 -0.98 10 -2 10 C-2.25 3.375 -2.25 3.375 0 0 Z " fill="#2A792E" transform="translate(82,50)"/>
<path d="M0 0 C1.65 0.33 3.3 0.66 5 1 C4.67 2.32 4.34 3.64 4 5 C2.35 4.67 0.7 4.34 -1 4 C-0.67 2.68 -0.34 1.36 0 0 Z " fill="#A2D7B3" transform="translate(9,51)"/>
<path d="M0 0 C1.65 0.33 3.3 0.66 5 1 C4.34 2.98 3.68 4.96 3 7 C1.35 6.67 -0.3 6.34 -2 6 C-2 5.34 -2 4.68 -2 4 C-1.01 3.67 -0.02 3.34 1 3 C0.67 2.01 0.34 1.02 0 0 Z " fill="#C2E7D2" transform="translate(11,43)"/>
<path d="M0 0 C2 3 2 3 2 5 C1.01 5.66 0.02 6.32 -1 7 C-1 7.66 -1 8.32 -1 9 C-1.66 9 -2.32 9 -3 9 C-4.625 6.5 -4.625 6.5 -6 4 C-4.35 3.67 -2.7 3.34 -1 3 C-0.67 2.01 -0.34 1.02 0 0 Z " fill="#EA2728" transform="translate(39,103)"/>
<path d="M0 0 C1.32 0.66 2.64 1.32 4 2 C3.67 3.32 3.34 4.64 3 6 C1.68 6.33 0.36 6.66 -1 7 C-1.33 5.35 -1.66 3.7 -2 2 C-1.34 2 -0.68 2 0 2 C0 1.34 0 0.68 0 0 Z " fill="#EF1211" transform="translate(91,101)"/>
<path d="M0 0 C0.99 0.33 1.98 0.66 3 1 C2.01 2.98 1.02 4.96 0 7 C-1.9375 6.1875 -1.9375 6.1875 -4 5 C-4.33 4.01 -4.66 3.02 -5 2 C-3.35 2 -1.7 2 0 2 C0 1.34 0 0.68 0 0 Z " fill="#EAACAC" transform="translate(107,79)"/>
<path d="M0 0 C-0.33 0.99 -0.66 1.98 -1 3 C-0.01 3.33 0.98 3.66 2 4 C2 4.66 2 5.32 2 6 C0.35 6.33 -1.3 6.66 -3 7 C-3.66 5.02 -4.32 3.04 -5 1 C-3 0 -3 0 0 0 Z " fill="#C7E9D5" transform="translate(106,38)"/>
<path d="M0 0 C0.66 0.33 1.32 0.66 2 1 C2 1.66 2 2.32 2 3 C2.763125 2.79375 3.52625 2.5875 4.3125 2.375 C7 2 7 2 10 4 C8.06280622 4.05406122 6.12518079 4.09282025 4.1875 4.125 C3.10855469 4.14820312 2.02960937 4.17140625 0.91796875 4.1953125 C-2 4 -2 4 -5 2 C-3.35 2 -1.7 2 0 2 C0 1.34 0 0.68 0 0 Z " fill="#F40102" transform="translate(52,109)"/>
<path d="M0 0 C3.68754757 0.49831724 5.60490662 1.10067643 8 4 C5.21176345 5.0326802 4.1322726 5.04509293 1.25 4.0625 C0.5075 3.711875 -0.235 3.36125 -1 3 C-0.67 2.01 -0.34 1.02 0 0 Z " fill="#F11010" transform="translate(32,95)"/>
<path d="M0 0 C1.32 0 2.64 0 4 0 C4 1.65 4 3.3 4 5 C3.01 5 2.02 5 1 5 C0.01 5.495 0.01 5.495 -1 6 C-1.625 4.125 -1.625 4.125 -2 2 C-1.34 1.34 -0.68 0.68 0 0 Z " fill="#3D8241" transform="translate(76,65)"/>
<path d="M0 0 C1.32 0.66 2.64 1.32 4 2 C2.56988027 2.86646667 1.13059381 3.71781829 -0.3125 4.5625 C-1.51326172 5.27599609 -1.51326172 5.27599609 -2.73828125 6.00390625 C-5 7 -5 7 -8 6 C-7.34 6 -6.68 6 -6 6 C-6 5.34 -6 4.68 -6 4 C-4.02 3.67 -2.04 3.34 0 3 C0 2.01 0 1.02 0 0 Z " fill="#EA1E1F" transform="translate(86,107)"/>
<path d="M0 0 C2.475 0.99 2.475 0.99 5 2 C5 2.66 5 3.32 5 4 C4.34 4 3.68 4 3 4 C2.34 5.32 1.68 6.64 1 8 C0.01 6.02 -0.98 4.04 -2 2 C-1.34 2 -0.68 2 0 2 C0 1.34 0 0.68 0 0 Z " fill="#EBBDBD" transform="translate(100,85)"/>
<path d="M0 0 C1.65 0 3.3 0 5 0 C5 0.99 5 1.98 5 3 C4 4 4 4 1.4375 4.0625 C0.2309375 4.0315625 0.2309375 4.0315625 -1 4 C-0.67 2.68 -0.34 1.36 0 0 Z " fill="#E98C88" transform="translate(10,65)"/>
<path d="M0 0 C-0.66 0 -1.32 0 -2 0 C-2 0.66 -2 1.32 -2 2 C-1.34 2.66 -0.68 3.32 0 4 C-0.99 4 -1.98 4 -3 4 C-3 4.99 -3 5.98 -3 7 C-3.66 6.67 -4.32 6.34 -5 6 C-5.625 2.9375 -5.625 2.9375 -6 0 C-3.50907189 -1.24546405 -2.58919267 -0.7767578 0 0 Z " fill="#1AA759" transform="translate(72,7)"/>
<path d="M0 0 C2.97 0 5.94 0 9 0 C9 0.66 9 1.32 9 2 C6 4 6 4 4 5 C2.68 3.35 1.36 1.7 0 0 Z " fill="#F11D1D" transform="translate(41,109)"/>
<path d="M0 0 C0 1.32 0 2.64 0 4 C-2.64 3.67 -5.28 3.34 -8 3 C-4.93882432 0.37613513 -4.26826873 0 0 0 Z " fill="#BDE8BD" transform="translate(79,46)"/>
<path d="M0 0 C2.475 0.495 2.475 0.495 5 1 C5.33 2.65 5.66 4.3 6 6 C3.5625 5.25 3.5625 5.25 1 4 C0.1875 1.875 0.1875 1.875 0 0 Z " fill="#3A873A" transform="translate(64,41)"/>
<path d="M0 0 C0.66 0 1.32 0 2 0 C2.66 1.32 3.32 2.64 4 4 C2 6 2 6 0 7 C-0.66 5.35 -1.32 3.7 -2 2 C-1.34 2 -0.68 2 0 2 C0 1.34 0 0.68 0 0 Z " fill="#EFCACA" transform="translate(91,94)"/>
<path d="M0 0 C0.66 0.33 1.32 0.66 2 1 C1.01 2.485 1.01 2.485 0 4 C-0.66 4 -1.32 4 -2 4 C-2 4.66 -2 5.32 -2 6 C-3.32 6 -4.64 6 -6 6 C-4.98545548 3.4636387 -4.3146444 2.20648539 -2 0.6875 C-1.34 0.460625 -0.68 0.23375 0 0 Z " fill="#F10505" transform="translate(93,90)"/>
<path d="M0 0 C0.33 0.66 0.66 1.32 1 2 C1.99 2.33 2.98 2.66 4 3 C4 4.65 4 6.3 4 8 C3.34 8 2.68 8 2 8 C0.3125 6.25 0.3125 6.25 -1 4 C-0.6875 1.75 -0.6875 1.75 0 0 Z " fill="#F30807" transform="translate(18,76)"/>
<path d="M0 0 C0.33 0 0.66 0 1 0 C1.36923077 6.4 1.36923077 6.4 -0.5 9.4375 C-0.995 9.953125 -1.49 10.46875 -2 11 C-2.66 10.67 -3.32 10.34 -4 10 C-3.71125 9.46375 -3.4225 8.9275 -3.125 8.375 C-1.83288192 5.64719516 -0.91441408 2.87387282 0 0 Z " fill="#557556" transform="translate(91,65)"/>
<path d="M0 0 C0.99 0.33 1.98 0.66 3 1 C3 2.65 3 4.3 3 6 C1.68 5.67 0.36 5.34 -1 5 C-0.67 3.35 -0.34 1.7 0 0 Z " fill="#E6F5E9" transform="translate(74,55)"/>
<path d="M0 0 C2.0625 0.4375 2.0625 0.4375 4 1 C3.67 2.98 3.34 4.96 3 7 C2.01 6.67 1.02 6.34 0 6 C-0.38218767 4.34385343 -0.71395102 2.67542976 -1 1 C-0.67 0.67 -0.34 0.34 0 0 Z " fill="#F0D2D0" transform="translate(39,101)"/>
<path d="M0 0 C0.33 0 0.66 0 1 0 C3.21538462 7.26153846 3.21538462 7.26153846 2.125 11 C1.75375 11.66 1.3825 12.32 1 13 C0.67 13 0.34 13 0 13 C0 8.71 0 4.42 0 0 Z " fill="#F30403" transform="translate(103,65)"/>
<path d="M0 0 C0.33 0 0.66 0 1 0 C1.33 2.97 1.66 5.94 2 9 C1.01 9.33 0.02 9.66 -1 10 C-1.125 3.375 -1.125 3.375 0 0 Z " fill="#5C7E5E" transform="translate(28,59)"/>
<path d="M0 0 C2.97 0.495 2.97 0.495 6 1 C6 2.32 6 3.64 6 5 C4.02 5 2.04 5 0 5 C0 3.35 0 1.7 0 0 Z " fill="#27B061" transform="translate(103,56)"/>
<path d="M0 0 C1.98 0 3.96 0 6 0 C5.67 1.65 5.34 3.3 5 5 C4.34 5 3.68 5 3 5 C1.375 2.5 1.375 2.5 0 0 Z " fill="#F5FBF7" transform="translate(50,41)"/>
<path d="M0 0 C3.875 1.75 3.875 1.75 5 4 C4.01 5.485 4.01 5.485 3 7 C0.525 6.01 0.525 6.01 -2 5 C-0.68 4.34 0.64 3.68 2 3 C1.34 2.67 0.68 2.34 0 2 C0 1.34 0 0.68 0 0 Z " fill="#B7E3C8" transform="translate(17,31)"/>
<path d="M0 0 C0.66 0 1.32 0 2 0 C2.66 1.65 3.32 3.3 4 5 C3.01 5 2.02 5 1 5 C1.33 5.66 1.66 6.32 2 7 C1.01 6.67 0.02 6.34 -1 6 C-1.6875 3.9375 -1.6875 3.9375 -2 2 C-1.34 1.67 -0.68 1.34 0 1 C0 0.67 0 0.34 0 0 Z " fill="#C6EAD5" transform="translate(28,19)"/>
<path d="M0 0 C1 3 1 3 0.22265625 4.82421875 C-0.8515625 6.54947917 -1.92578125 8.27473958 -3 10 C-3.93423645 6.98968256 -4.04449911 6.13349732 -3 3 C-1.4375 1.3125 -1.4375 1.3125 0 0 Z " fill="#EE3C3B" transform="translate(112,80)"/>
<path d="M0 0 C0 2.31 0 4.62 0 7 C-0.66 7 -1.32 7 -2 7 C-2.66 5.02 -3.32 3.04 -4 1 C-1 0 -1 0 0 0 Z " fill="#F90504" transform="translate(114,69)"/>
<path d="M0 0 C2.475 0.495 2.475 0.495 5 1 C5 1.99 5 2.98 5 4 C3.35 4 1.7 4 0 4 C0 2.68 0 1.36 0 0 Z " fill="#F1FCF2" transform="translate(51,68)"/>
<path d="M0 0 C1.65 0 3.3 0 5 0 C5 1.66666667 5 3.33333333 5 5 C3.35 5 1.7 5 0 5 C0 3.33333333 0 1.66666667 0 0 Z " fill="#C1E8D1" transform="translate(105,50)"/>
<path d="M0 0 C0.33 0.66 0.66 1.32 1 2 C0.0625 4.125 0.0625 4.125 -1 6 C-2.32 6 -3.64 6 -5 6 C-3.63016497 2.83884224 -3.0109362 2.0072908 0 0 Z " fill="#236123" transform="translate(44,33)"/>
<path d="M0 0 C2.97 0 5.94 0 9 0 C7 3 7 3 5.0625 3.875 C3 4 3 4 1.25 2.625 C0 1 0 1 0 0 Z " fill="#EE5151" transform="translate(55,103)"/>
<path d="M0 0 C0.66 0.99 1.32 1.98 2 3 C1.67 3.99 1.34 4.98 1 6 C0.01 6 -0.98 6 -2 6 C-2.33 4.35 -2.66 2.7 -3 1 C-2.01 0.67 -1.02 0.34 0 0 Z " fill="#E18887" transform="translate(33,99)"/>
<path d="M0 0 C0.99 0.33 1.98 0.66 3 1 C3.33 2.98 3.66 4.96 4 7 C3.01 6.67 2.02 6.34 1 6 C0.67 4.02 0.34 2.04 0 0 Z " fill="#F10D0E" transform="translate(23,85)"/>
<path d="M0 0 C2.97 0.495 2.97 0.495 6 1 C4.875 2.5 4.875 2.5 3 4 C-0.1875 4.1875 -0.1875 4.1875 -3 4 C-1.68 3.34 -0.36 2.68 1 2 C0.67 1.34 0.34 0.68 0 0 Z " fill="#BDD3BE" transform="translate(44,74)"/>
<path d="M0 0 C2 3.875 2 3.875 2 5 C-1.62528568 5.20140476 -3.86501708 4.85776765 -7 3 C-3.535 2.505 -3.535 2.505 0 2 C0 1.34 0 0.68 0 0 Z " fill="#54A858" transform="translate(56,70)"/>
<path d="M0 0 C0.99 0 1.98 0 3 0 C1.25 4.875 1.25 4.875 -1 6 C-1.625 4.125 -1.625 4.125 -2 2 C-1.34 1.34 -0.68 0.68 0 0 Z " fill="#587859" transform="translate(85,69)"/>
<path d="M0 0 C4.67692308 1.47692308 4.67692308 1.47692308 6.3125 4.125 C6.539375 4.74375 6.76625 5.3625 7 6 C6.01 5.34 5.02 4.68 4 4 C3.01 4 2.02 4 1 4 C0.67 2.68 0.34 1.36 0 0 Z " fill="#507251" transform="translate(30,69)"/>
<path d="M0 0 C0.99 0 1.98 0 3 0 C3 2.31 3 4.62 3 7 C2.67 6.34 2.34 5.68 2 5 C1.34 5 0.68 5 0 5 C0 3.35 0 1.7 0 0 Z " fill="#7C997C" transform="translate(56,90)"/>
<path d="M0 0 C-1.75 3.875 -1.75 3.875 -4 5 C-4 4.34 -4 3.68 -4 3 C-4.66 3 -5.32 3 -6 3 C-6 2.34 -6 1.68 -6 1 C-3 0 -3 0 0 0 Z " fill="#EFCDCC" transform="translate(21,85)"/>
<path d="M0 0 C0.66 1.32 1.32 2.64 2 4 C0.35 4.33 -1.3 4.66 -3 5 C-3.33 4.01 -3.66 3.02 -4 2 C-2.68 1.34 -1.36 0.68 0 0 Z " fill="#F3D5D3" transform="translate(13,71)"/>
<path d="M0 0 C3 0 3 0 6 1 C5.67 1.99 5.34 2.98 5 4 C3.33333333 4 1.66666667 4 0 4 C-0.33 3.01 -0.66 2.02 -1 1 C-0.67 0.67 -0.34 0.34 0 0 Z " fill="#B4E4C8" transform="translate(8,57)"/>
<path d="M0 0 C0.33 0.99 0.66 1.98 1 3 C1.99 3 2.98 3 4 3 C4 3.66 4 4.32 4 5 C3.360625 5.12375 2.72125 5.2475 2.0625 5.375 C1.0415625 5.684375 1.0415625 5.684375 0 6 C-0.33 6.66 -0.66 7.32 -1 8 C-0.67 5.36 -0.34 2.72 0 0 Z " fill="#F6FEF7" transform="translate(45,48)"/>
<path d="M0 0 C0.66 0 1.32 0 2 0 C2.33 1.98 2.66 3.96 3 6 C2.01 6.33 1.02 6.66 0 7 C0 4.69 0 2.38 0 0 Z " fill="#03A147" transform="translate(17,41)"/>
<path d="M0 0 C2.475 0.495 2.475 0.495 5 1 C4.67 2.32 4.34 3.64 4 5 C2.68 4.34 1.36 3.68 0 3 C0 2.01 0 1.02 0 0 Z " fill="#B7E1C7" transform="translate(13,38)"/>
<path d="M0 0 C0.99 0.33 1.98 0.66 3 1 C3 1.99 3 2.98 3 4 C1.02 4.99 1.02 4.99 -1 6 C-1.625 4.125 -1.625 4.125 -2 2 C-1.34 1.34 -0.68 0.68 0 0 Z " fill="#C9E7D2" transform="translate(98,29)"/>
<path d="M0 0 C0.99 0.33 1.98 0.66 3 1 C2.67 2.32 2.34 3.64 2 5 C0.68 5 -0.64 5 -2 5 C-1.34 3.35 -0.68 1.7 0 0 Z " fill="#B4E0C4" transform="translate(91,21)"/>
</svg>
