<?xml version="1.0" encoding="utf-8"?>
<!-- Generator: Adobe Illustrator 25.2.0, SVG Export Plug-In . SVG Version: 6.00 Build 0)  -->
<svg version="1.1" id="Layer_1" xmlns="http://www.w3.org/2000/svg" xmlns:xlink="http://www.w3.org/1999/xlink" x="0px" y="0px"
	 viewBox="0 0 1826 1138" style="enable-background:new 0 0 1826 1138;" xml:space="preserve">
<style type="text/css">
	.st0{opacity:0.3;}
	.st1{fill:none;stroke:#FFFFFF;stroke-width:3.0092;stroke-linecap:round;stroke-miterlimit:10;stroke-dasharray:6.3,11.82;}
</style>
<g class="st0">
	<path class="st1" d="M184.3,850.3c-10.9-10.9-10.9-28.6,0-39.5c10.9-10.9,28.6-10.9,39.5,0s10.9,28.6,0,39.5
		S195.2,861.2,184.3,850.3z"/>
	<path class="st1" d="M1823.8,1136.2c-36.6-104.8-145.1-171.7-254.9-188c-109.8-16.3-221.3,9.8-327.6,41.7
		c-106.3,31.9-212.2,70-322.8,78.8s-229.9-16.2-308.6-94.5c-54.1-53.9-88.3-131.3-157.4-163.8c-62.5-29.4-135.7-13.6-203.7-1.6
		s-145.8,17-198.5-27.7C-3.2,735.8-9.9,651.7,18.5,587.7c28.4-64.1,84.6-111.4,142.7-150.6c58.1-39.1,120.6-72.9,171.6-121
		c51-48.1,90.2-114.9,84.9-184.7C412.5,61.5,350.2-5.4,280.5,2.7"/>
</g>
</svg>
